<?xml version="1.0" encoding="us-ascii" standalone="no"?><svg xmlns="http://www.w3.org/2000/svg" xmlns:xlink="http://www.w3.org/1999/xlink" contentStyleType="text/css" height="575px" preserveAspectRatio="none" style="width:1247px;height:575px;background:#FFFFFF;" version="1.1" viewBox="0 0 1247 575" width="1247px" zoomAndPan="magnify"><defs/><g><!--cluster abrirGrados()--><g id="cluster_abrirGrados()"><path d="M8.5,147.5 L103.5,147.5 A3.75,3.75 0 0 1 106,150 L113,171.1094 L393.5,171.1094 A2.5,2.5 0 0 1 396,173.6094 L396,566 A2.5,2.5 0 0 1 393.5,568.5 L8.5,568.5 A2.5,2.5 0 0 1 6,566 L6,150 A2.5,2.5 0 0 1 8.5,147.5 " fill="none" style="stroke:#000000;stroke-width:1.5;"/><line style="stroke:#000000;stroke-width:1.5;" x1="6" x2="113" y1="171.1094" y2="171.1094"/><text fill="#000000" font-family="sans-serif" font-size="14" font-weight="bold" lengthAdjust="spacing" textLength="94" x="10" y="164.0332">abrirGrados()</text></g><!--entity VistaGrado--><g id="elem_VistaGrado"><rect fill="#629EF9" height="37.6094" rx="2.5" ry="2.5" style="stroke:#181818;stroke-width:0.5;" width="91" x="288.5" y="183.5"/><text fill="#000000" font-family="sans-serif" font-size="14" lengthAdjust="spacing" textLength="71" x="298.5" y="208.0332">VistaGrado</text></g><!--entity ControladorGrado--><g id="elem_ControladorGrado"><rect fill="#B5BD68" height="37.6094" rx="2.5" ry="2.5" style="stroke:#181818;stroke-width:0.5;" width="135" x="65.5" y="299.5"/><text fill="#000000" font-family="sans-serif" font-size="14" lengthAdjust="spacing" textLength="115" x="75.5" y="324.0332">ControladorGrado</text></g><!--entity GradoRepository--><g id="elem_GradoRepository"><rect fill="#F2AC4E" height="37.6094" rx="2.5" ry="2.5" style="stroke:#181818;stroke-width:0.5;" width="128" x="69" y="415.5"/><text fill="#000000" font-family="sans-serif" font-size="14" lengthAdjust="spacing" textLength="108" x="79" y="440.0332">GradoRepository</text></g><!--entity Grado--><g id="elem_Grado"><rect fill="#F2AC4E" height="37.6094" rx="2.5" ry="2.5" style="stroke:#181818;stroke-width:0.5;" width="60" x="103" y="514.5"/><text fill="#000000" font-family="sans-serif" font-size="14" lengthAdjust="spacing" textLength="40" x="113" y="539.0332">Grado</text></g><!--entity Administrador--><g id="elem_Administrador"><ellipse cx="259" cy="14" fill="#F1F1F1" rx="8" ry="8" style="stroke:#181818;stroke-width:0.5;"/><path d="M259,22 L259,49 M246,30 L272,30 M259,49 L246,64 M259,49 L272,64 " fill="none" style="stroke:#181818;stroke-width:0.5;"/><text fill="#000000" font-family="sans-serif" font-size="14" lengthAdjust="spacing" textLength="87" x="215.5" y="80.0332">Administrador</text></g><!--entity SD_in--><g id="elem_SD_in"><rect fill="#CDEBA5" height="37.6094" rx="2.5" ry="2.5" style="stroke:#181818;stroke-width:0.5;" width="144" x="338" y="25.5"/><text fill="#000000" font-family="sans-serif" font-size="14" lengthAdjust="spacing" textLength="124" x="348" y="50.0332">:Sistema Disponible</text></g><!--entity SD_out--><g id="elem_SD_out"><rect fill="#CDEBA5" height="37.6094" rx="2.5" ry="2.5" style="stroke:#181818;stroke-width:0.5;" width="144" x="412" y="299.5"/><text fill="#000000" font-family="sans-serif" font-size="14" lengthAdjust="spacing" textLength="124" x="422" y="324.0332">:Sistema Disponible</text></g><!--entity ColCrear--><g id="elem_ColCrear"><rect fill="#CDEBA5" height="37.6094" rx="2.5" ry="2.5" style="stroke:#181818;stroke-width:0.5;" width="188" x="591" y="299.5"/><text fill="#000000" font-family="sans-serif" font-size="14" lengthAdjust="spacing" textLength="168" x="601" y="324.0332">:Collaboration CrearGrado</text></g><!--entity ColEditar--><g id="elem_ColEditar"><rect fill="#CDEBA5" height="37.6094" rx="2.5" ry="2.5" style="stroke:#181818;stroke-width:0.5;" width="189" x="814.5" y="299.5"/><text fill="#000000" font-family="sans-serif" font-size="14" lengthAdjust="spacing" textLength="169" x="824.5" y="324.0332">:Collaboration EditarGrado</text></g><!--entity ColEliminar--><g id="elem_ColEliminar"><rect fill="#CDEBA5" height="37.6094" rx="2.5" ry="2.5" style="stroke:#181818;stroke-width:0.5;" width="202" x="1039" y="299.5"/><text fill="#000000" font-family="sans-serif" font-size="14" lengthAdjust="spacing" textLength="182" x="1049" y="324.0332">:Collaboration EliminarGrado</text></g><!--link SD_in to VistaGrado--><g id="link_SD_in_VistaGrado"><path d="M401.73,63.74 C390.28,88.98 371,131.5 371,131.5 C371,131.5 357.2933,157.4252 346.3333,178.1652 " fill="none" id="SD_in-to-VistaGrado" style="stroke:#181818;stroke-width:1.0;"/><polygon fill="#181818" points="343.53,183.47,351.2716,177.3816,345.8661,179.0493,344.1984,173.6439,343.53,183.47" style="stroke:#181818;stroke-width:1.0;"/><text fill="#000000" font-family="sans-serif" font-size="13" lengthAdjust="spacing" textLength="75" x="379" y="127.9951">abrirGrados()</text></g><!--link VistaGrado to ControladorGrado--><g id="link_VistaGrado_ControladorGrado"><path d="M288.39,211.32 C209.05,224.92 54,251.5 54,251.5 C54,251.5 54,269.5 54,269.5 C54,269.5 75.6321,282.6448 98.0021,296.2348 " fill="none" id="VistaGrado-to-ControladorGrado" style="stroke:#181818;stroke-width:1.0;"/><polygon fill="#181818" points="103.13,299.35,97.515,291.2585,98.8568,296.754,93.3613,298.0957,103.13,299.35" style="stroke:#181818;stroke-width:1.0;"/><text fill="#000000" font-family="sans-serif" font-size="13" lengthAdjust="spacing" textLength="78" x="55" y="265.9951">listarGrados()</text></g><!--link VistaGrado to ControladorGrado--><g id="link_VistaGrado_ControladorGrado"><path d="M288.12,218.69 C245.64,232.75 189,251.5 189,251.5 C189,251.5 168.7608,275.344 152.1808,294.894 " fill="none" id="VistaGrado-to-ControladorGrado-1" style="stroke:#181818;stroke-width:1.0;"/><polygon fill="#181818" points="148.3,299.47,157.1718,295.1932,151.534,295.6567,151.0705,290.0189,148.3,299.47" style="stroke:#181818;stroke-width:1.0;"/><text fill="#000000" font-family="sans-serif" font-size="13" lengthAdjust="spacing" textLength="201" x="190" y="265.9951">filtrarGrados(criterio) : List&lt;Grado&gt;</text></g><!--link ControladorGrado to GradoRepository--><g id="link_ControladorGrado_GradoRepository"><path d="M133,337.56 C133,358.78 133,387.8 133,409.14 " fill="none" id="ControladorGrado-to-GradoRepository" style="stroke:#181818;stroke-width:1.0;"/><polygon fill="#181818" points="133,415.14,137,406.14,133,410.14,129,406.14,133,415.14" style="stroke:#181818;stroke-width:1.0;"/><text fill="#000000" font-family="sans-serif" font-size="13" lengthAdjust="spacing" textLength="170" x="134" y="381.9951">obtenerTodos() : List&lt;Grado&gt;</text></g><!--link GradoRepository to Grado--><g id="link_GradoRepository_Grado"><path d="M133,453.74 C133,471.09 133,497.02 133,514.34 " fill="none" id="GradoRepository-Grado" style="stroke:#181818;stroke-width:1.0;"/></g><!--link Administrador to VistaGrado--><g id="link_Administrador_VistaGrado"><path d="M272.78,83.72 C281.06,106.69 290,131.5 290,131.5 C290,131.5 306.4364,157.6506 319.4764,178.3906 " fill="none" id="Administrador-to-VistaGrado" style="stroke:#181818;stroke-width:1.0;"/><polygon fill="#181818" points="322.67,183.47,321.2658,173.7218,320.0086,179.2371,314.4933,177.9799,322.67,183.47" style="stroke:#181818;stroke-width:1.0;"/><text fill="#000000" font-family="sans-serif" font-size="13" lengthAdjust="spacing" textLength="75" x="291" y="127.9951">filtrar(criterio)</text></g><!--link VistaGrado to SD_out--><g id="link_VistaGrado_SD_out"><path d="M357.77,221.56 C385.69,242.78 426.9823,274.1704 455.0723,295.5104 " fill="none" id="VistaGrado-to-SD_out" style="stroke:#181818;stroke-width:1.0;stroke-dasharray:7.0,7.0;"/><polygon fill="#181818" points="459.85,299.14,455.1032,290.5105,455.8686,296.1153,450.2638,296.8807,459.85,299.14" style="stroke:#181818;stroke-width:1.0;"/><text fill="#000000" font-family="sans-serif" font-size="13" lengthAdjust="spacing" textLength="110" x="418" y="265.9951">completarGestion()</text></g><!--link VistaGrado to ColCrear--><g id="link_VistaGrado_ColCrear"><path d="M379.56,214.27 C439.41,228.42 537,251.5 537,251.5 C537,251.5 595.2606,277.4754 639.0806,297.0254 " fill="none" id="VistaGrado-to-ColCrear" style="stroke:#181818;stroke-width:1.0;stroke-dasharray:7.0,7.0;"/><polygon fill="#181818" points="644.56,299.47,637.9706,292.1502,639.9938,297.4328,634.7112,299.456,644.56,299.47" style="stroke:#181818;stroke-width:1.0;"/><text fill="#000000" font-family="sans-serif" font-size="13" lengthAdjust="spacing" textLength="72" x="577" y="265.9951">crearGrado()</text></g><!--link VistaGrado to ColEditar--><g id="link_VistaGrado_ColEditar"><path d="M379.73,210.28 C469.04,223.51 658,251.5 658,251.5 C658,251.5 760.2975,278.3934 834.6075,297.9434 " fill="none" id="VistaGrado-to-ColEditar" style="stroke:#181818;stroke-width:1.0;stroke-dasharray:7.0,7.0;"/><polygon fill="#181818" points="840.41,299.47,832.7239,293.3118,835.5745,298.1979,830.6885,301.0485,840.41,299.47" style="stroke:#181818;stroke-width:1.0;"/><text fill="#000000" font-family="sans-serif" font-size="13" lengthAdjust="spacing" textLength="75" x="726" y="265.9951">editarGrado()</text></g><!--link VistaGrado to ColEliminar--><g id="link_VistaGrado_ColEliminar"><path d="M379.64,208.1 C498.78,220.12 810,251.5 810,251.5 C810,251.5 946.2366,278.7428 1043.9466,298.2928 " fill="none" id="VistaGrado-to-ColEliminar" style="stroke:#181818;stroke-width:1.0;stroke-dasharray:7.0,7.0;"/><polygon fill="#181818" points="1049.83,299.47,1041.7897,293.782,1044.9272,298.489,1040.2201,301.6265,1049.83,299.47" style="stroke:#181818;stroke-width:1.0;"/><text fill="#000000" font-family="sans-serif" font-size="13" lengthAdjust="spacing" textLength="88" x="899" y="265.9951">eliminarGrado()</text></g><!--SRC=[bPB1Ji9048Rl-nIJUi53EH0XGWm9bkB5anYlPjiEE66xs-okCSJuxiwMYgKq1dlhplTDPkTVjoDTIIjBS6-oC1-ajx2Hog5mnueYZNvV8LH6xSEF43BtniAYA4cJyvPDAopcNkgjGhXAbkdzOWpHRCrLB2KioLL6KwOm0kbWlNmbBKGbyvtS8aGoisGVGXitk8xWKm1_hNwJqJHTJU65kyaQwmBPE2icjv0OxQrHOPnUR3LQ93SfrBKdh8mZliR-BqfyYNzUpBpxNYCnIidCMEd9Q4WioiECjSV5-kG2Cot8TzJ3qIMk8awiQpU7GjInG1pFMvk66Poa8rgbG7PNphmAnAzmHWIj4m5R9lEeqJwRskA3HsvpLtDpqSNZk8ddv0cUZxuXnIKxo2rvj6Gk6RznclcFPcUYTgFXSDuapr1koafXM02wiFJJbGNq9-m07vz1BtO8bZdy3RqVR38CQ3jZXhy1]--></g></svg>