<?xml version="1.0" encoding="us-ascii" standalone="no"?><svg xmlns="http://www.w3.org/2000/svg" xmlns:xlink="http://www.w3.org/1999/xlink" contentStyleType="text/css" height="574px" preserveAspectRatio="none" style="width:1163px;height:574px;background:#FFFFFF;" version="1.1" viewBox="0 0 1163 574" width="1163px" zoomAndPan="magnify"><defs/><g><!--cluster crearAula() / editarAula()--><g id="cluster_crearAula() / editarAula()"><path d="M8.5,109 L179.5,109 A3.75,3.75 0 0 1 182,111.5 L189,132.6094 L393.5,132.6094 A2.5,2.5 0 0 1 396,135.1094 L396,564.5 A2.5,2.5 0 0 1 393.5,567 L8.5,567 A2.5,2.5 0 0 1 6,564.5 L6,111.5 A2.5,2.5 0 0 1 8.5,109 " fill="none" style="stroke:#000000;stroke-width:1.5;"/><line style="stroke:#000000;stroke-width:1.5;" x1="6" x2="189" y1="132.6094" y2="132.6094"/><text fill="#000000" font-family="sans-serif" font-size="14" font-weight="bold" lengthAdjust="spacing" textLength="170" x="10" y="125.5332">crearAula() / editarAula()</text></g><!--cluster eliminarAula()--><g id="cluster_eliminarAula()"><path d="M566.5,109 L663.5,109 A3.75,3.75 0 0 1 666,111.5 L673,132.6094 L961.5,132.6094 A2.5,2.5 0 0 1 964,135.1094 L964,564.5 A2.5,2.5 0 0 1 961.5,567 L566.5,567 A2.5,2.5 0 0 1 564,564.5 L564,111.5 A2.5,2.5 0 0 1 566.5,109 " fill="none" style="stroke:#000000;stroke-width:1.5;"/><line style="stroke:#000000;stroke-width:1.5;" x1="564" x2="673" y1="132.6094" y2="132.6094"/><text fill="#000000" font-family="sans-serif" font-size="14" font-weight="bold" lengthAdjust="spacing" textLength="96" x="568" y="125.5332">eliminarAula()</text></g><!--entity VistaAula--><g id="elem_VistaAula"><rect fill="#629EF9" height="37.6094" rx="2.5" ry="2.5" style="stroke:#181818;stroke-width:0.5;" width="79" x="208.5" y="145"/><text fill="#000000" font-family="sans-serif" font-size="14" lengthAdjust="spacing" textLength="59" x="218.5" y="169.5332">VistaAula</text></g><!--entity FormularioAula--><g id="elem_FormularioAula"><rect fill="#629EF9" height="37.6094" rx="2.5" ry="2.5" style="stroke:#181818;stroke-width:0.5;" width="116" x="107" y="281"/><text fill="#000000" font-family="sans-serif" font-size="14" lengthAdjust="spacing" textLength="96" x="117" y="305.5332">FormularioAula</text></g><!--entity ControladorAula--><g id="elem_ControladorAula"><rect fill="#B5BD68" height="37.6094" rx="2.5" ry="2.5" style="stroke:#181818;stroke-width:0.5;" width="123" x="103.5" y="397"/><text fill="#000000" font-family="sans-serif" font-size="14" lengthAdjust="spacing" textLength="103" x="113.5" y="421.5332">ControladorAula</text></g><!--entity AulaRepository--><g id="elem_AulaRepository"><rect fill="#F2AC4E" height="37.6094" rx="2.5" ry="2.5" style="stroke:#181818;stroke-width:0.5;" width="116" x="22" y="513"/><text fill="#000000" font-family="sans-serif" font-size="14" lengthAdjust="spacing" textLength="96" x="32" y="537.5332">AulaRepository</text></g><!--entity Aula--><g id="elem_Aula"><rect fill="#F2AC4E" height="37.6094" rx="2.5" ry="2.5" style="stroke:#181818;stroke-width:0.5;" width="48" x="173" y="513"/><text fill="#000000" font-family="sans-serif" font-size="14" lengthAdjust="spacing" textLength="28" x="183" y="537.5332">Aula</text></g><!--entity VistaAula2--><g id="elem_VistaAula2"><rect fill="#629EF9" height="37.6094" rx="2.5" ry="2.5" style="stroke:#181818;stroke-width:0.5;" width="87" x="647.5" y="145"/><text fill="#000000" font-family="sans-serif" font-size="14" lengthAdjust="spacing" textLength="67" x="657.5" y="169.5332">VistaAula2</text></g><!--entity ConfirmacionAula--><g id="elem_ConfirmacionAula"><rect fill="#629EF9" height="37.6094" rx="2.5" ry="2.5" style="stroke:#181818;stroke-width:0.5;" width="131" x="603.5" y="281"/><text fill="#000000" font-family="sans-serif" font-size="14" lengthAdjust="spacing" textLength="111" x="613.5" y="305.5332">ConfirmacionAula</text></g><!--entity ControladorAula2--><g id="elem_ControladorAula2"><rect fill="#B5BD68" height="37.6094" rx="2.5" ry="2.5" style="stroke:#181818;stroke-width:0.5;" width="131" x="603.5" y="397"/><text fill="#000000" font-family="sans-serif" font-size="14" lengthAdjust="spacing" textLength="111" x="613.5" y="421.5332">ControladorAula2</text></g><!--entity AulaRepository2--><g id="elem_AulaRepository2"><rect fill="#F2AC4E" height="37.6094" rx="2.5" ry="2.5" style="stroke:#181818;stroke-width:0.5;" width="124" x="686" y="513"/><text fill="#000000" font-family="sans-serif" font-size="14" lengthAdjust="spacing" textLength="104" x="696" y="537.5332">AulaRepository2</text></g><!--entity Administrador--><g id="elem_Administrador"><ellipse cx="472" cy="133.5" fill="#F1F1F1" rx="8" ry="8" style="stroke:#181818;stroke-width:0.5;"/><path d="M472,141.5 L472,168.5 M459,149.5 L485,149.5 M472,168.5 L459,183.5 M472,168.5 L485,183.5 " fill="none" style="stroke:#181818;stroke-width:0.5;"/><text fill="#000000" font-family="sans-serif" font-size="14" lengthAdjust="spacing" textLength="87" x="428.5" y="199.5332">Administrador</text></g><!--entity ColAbrir--><g id="elem_ColAbrir"><rect fill="#CDEBA5" height="37.6094" rx="2.5" ry="2.5" style="stroke:#181818;stroke-width:0.5;" width="177" x="270.5" y="7"/><text fill="#000000" font-family="sans-serif" font-size="14" lengthAdjust="spacing" textLength="157" x="280.5" y="31.5332">:Collaboration AbrirAulas</text></g><!--entity ColAbrir2--><g id="elem_ColAbrir2"><rect fill="#CDEBA5" height="37.6094" rx="2.5" ry="2.5" style="stroke:#181818;stroke-width:0.5;" width="177" x="980.5" y="281"/><text fill="#000000" font-family="sans-serif" font-size="14" lengthAdjust="spacing" textLength="157" x="990.5" y="305.5332">:Collaboration AbrirAulas</text></g><!--link ColAbrir to VistaAula--><g id="link_ColAbrir_VistaAula"><path d="M348.34,45.03 C336.8,64.58 320,93 320,93 C320,93 292.1717,120.0473 270.8417,140.7873 " fill="none" id="ColAbrir-to-VistaAula" style="stroke:#181818;stroke-width:1.0;"/><polygon fill="#181818" points="266.54,144.97,275.7811,141.5637,270.1248,141.4844,270.2041,135.8281,266.54,144.97" style="stroke:#181818;stroke-width:1.0;"/><text fill="#000000" font-family="sans-serif" font-size="13" lengthAdjust="spacing" textLength="179" x="331" y="89.4951">crearAula() / editarAula(codigo)</text></g><!--link VistaAula to ColAbrir--><g id="link_VistaAula_ColAbrir"><path d="M246.2,144.97 C244.12,124.23 241,93 241,93 C241,93 241,75 241,75 C241,75 275.6821,60.8904 309.1721,47.2704 " fill="none" id="VistaAula-to-ColAbrir" style="stroke:#181818;stroke-width:1.0;stroke-dasharray:7.0,7.0;"/><polygon fill="#181818" points="314.73,45.01,304.8862,44.6952,310.0984,46.8936,307.9,52.1058,314.73,45.01" style="stroke:#181818;stroke-width:1.0;"/><text fill="#000000" font-family="sans-serif" font-size="13" lengthAdjust="spacing" textLength="69" x="242" y="89.4951">listarAulas()</text></g><!--link VistaAula to FormularioAula--><g id="link_VistaAula_FormularioAula"><path d="M222.81,183.22 C194.97,203.37 154,233 154,233 C154,233 154,251 154,251 C154,251 156.3915,261.4112 159.5015,275.0012 " fill="none" id="VistaAula-to-FormularioAula" style="stroke:#181818;stroke-width:1.0;"/><polygon fill="#181818" points="160.84,280.85,162.7315,271.1845,159.7246,275.976,154.9331,272.9691,160.84,280.85" style="stroke:#181818;stroke-width:1.0;"/><text fill="#000000" font-family="sans-serif" font-size="13" lengthAdjust="spacing" textLength="144" x="155" y="247.4951">mostrarFormulario(aula?)</text></g><!--link Administrador to FormularioAula--><g id="link_Administrador_FormularioAula"><path d="M428.3,187.37 C378.52,212.85 304,251 304,251 C304,251 262.2715,265.4119 222.8215,279.0319 " fill="none" id="Administrador-to-FormularioAula" style="stroke:#181818;stroke-width:1.0;"/><polygon fill="#181818" points="217.15,280.99,226.9626,281.8339,221.8763,279.3583,224.3519,274.2719,217.15,280.99" style="stroke:#181818;stroke-width:1.0;"/><text fill="#000000" font-family="sans-serif" font-size="13" lengthAdjust="spacing" textLength="203" x="337" y="247.4951">rellenarCampos(codigo, capacidad)</text></g><!--link FormularioAula to ControladorAula--><g id="link_FormularioAula_ControladorAula"><path d="M165,319.06 C165,340.28 165,369.3 165,390.64 " fill="none" id="FormularioAula-to-ControladorAula" style="stroke:#181818;stroke-width:1.0;"/><polygon fill="#181818" points="165,396.64,169,387.64,165,391.64,161,387.64,165,396.64" style="stroke:#181818;stroke-width:1.0;"/><text fill="#000000" font-family="sans-serif" font-size="13" lengthAdjust="spacing" textLength="83" x="166" y="363.4951">guardar(datos)</text></g><!--link ControladorAula to Aula--><g id="link_ControladorAula_Aula"><path d="M170.07,435.06 C176.03,456.28 184.2385,485.5233 190.2285,506.8633 " fill="none" id="ControladorAula-to-Aula" style="stroke:#181818;stroke-width:1.0;"/><polygon fill="#181818" points="191.85,512.64,193.2689,502.8939,190.4988,507.826,185.5666,505.0559,191.85,512.64" style="stroke:#181818;stroke-width:1.0;"/><text fill="#000000" font-family="sans-serif" font-size="13" lengthAdjust="spacing" textLength="204" x="183" y="479.4951">new / actualizar(codigo, capacidad)</text></g><!--link ControladorAula to AulaRepository--><g id="link_ControladorAula_AulaRepository"><path d="M138.16,435.15 C118.05,448.74 94,465 94,465 C94,465 89.213,487.5502 85.073,507.1002 " fill="none" id="ControladorAula-to-AulaRepository" style="stroke:#181818;stroke-width:1.0;"/><polygon fill="#181818" points="83.83,512.97,89.6078,504.9939,84.8659,508.0785,81.7813,503.3366,83.83,512.97" style="stroke:#181818;stroke-width:1.0;"/><text fill="#000000" font-family="sans-serif" font-size="13" lengthAdjust="spacing" textLength="75" x="95" y="479.4951">guardar(aula)</text></g><!--link ColAbrir to VistaAula2--><g id="link_ColAbrir_VistaAula2"><path d="M419.03,45.01 C464.43,58.63 519,75 519,75 C519,75 600.1187,116.4967 650.4387,142.2467 " fill="none" id="ColAbrir-to-VistaAula2" style="stroke:#181818;stroke-width:1.0;"/><polygon fill="#181818" points="655.78,144.98,649.5903,137.3192,651.3289,142.7023,645.9459,144.441,655.78,144.98" style="stroke:#181818;stroke-width:1.0;"/><text fill="#000000" font-family="sans-serif" font-size="13" lengthAdjust="spacing" textLength="117" x="552" y="89.4951">eliminarAula(codigo)</text></g><!--link VistaAula2 to ConfirmacionAula--><g id="link_VistaAula2_ConfirmacionAula"><path d="M688.03,183.07 C683.83,208.65 677.1714,249.2092 672.9614,274.8692 " fill="none" id="VistaAula2-to-ConfirmacionAula" style="stroke:#181818;stroke-width:1.0;"/><polygon fill="#181818" points="671.99,280.79,677.3944,272.5564,672.7995,275.856,669.4999,271.2611,671.99,280.79" style="stroke:#181818;stroke-width:1.0;"/><text fill="#000000" font-family="sans-serif" font-size="13" lengthAdjust="spacing" textLength="166" x="680" y="247.4951">confirmarEliminacion(codigo)</text></g><!--link Administrador to ConfirmacionAula--><g id="link_Administrador_ConfirmacionAula"><path d="M515.72,194.74 C554.49,221.11 604.8989,255.3954 637.3889,277.4954 " fill="none" id="Administrador-to-ConfirmacionAula" style="stroke:#181818;stroke-width:1.0;"/><polygon fill="#181818" points="642.35,280.87,637.1581,272.5008,638.2158,278.0579,632.6587,279.1155,642.35,280.87" style="stroke:#181818;stroke-width:1.0;"/><text fill="#000000" font-family="sans-serif" font-size="13" lengthAdjust="spacing" textLength="61" x="594" y="247.4951">confirmar()</text></g><!--link ConfirmacionAula to ControladorAula2--><g id="link_ConfirmacionAula_ControladorAula2"><path d="M669,319.06 C669,340.28 669,369.3 669,390.64 " fill="none" id="ConfirmacionAula-to-ControladorAula2" style="stroke:#181818;stroke-width:1.0;"/><polygon fill="#181818" points="669,396.64,673,387.64,669,391.64,665,387.64,669,396.64" style="stroke:#181818;stroke-width:1.0;"/><text fill="#000000" font-family="sans-serif" font-size="13" lengthAdjust="spacing" textLength="91" x="670" y="363.4951">eliminar(codigo)</text></g><!--link ControladorAula2 to AulaRepository2--><g id="link_ControladorAula2_AulaRepository2"><path d="M647.45,435.15 C631.31,448.74 612,465 612,465 C612,465 612,483 612,483 C612,483 652.7221,497.3731 691.3121,510.9931 " fill="none" id="ControladorAula2-to-AulaRepository2" style="stroke:#181818;stroke-width:1.0;"/><polygon fill="#181818" points="696.97,512.99,689.8144,506.2227,692.255,511.3259,687.1518,513.7666,696.97,512.99" style="stroke:#181818;stroke-width:1.0;"/><text fill="#000000" font-family="sans-serif" font-size="13" lengthAdjust="spacing" textLength="198" x="613" y="479.4951">verificarSinHorariosActivos(codigo)</text></g><!--link ControladorAula2 to AulaRepository2--><g id="link_ControladorAula2_AulaRepository2"><path d="M724.16,435.01 C765.87,448.63 816,465 816,465 C816,465 816,483 816,483 C816,483 797.8616,495.7996 778.6116,509.3896 " fill="none" id="ControladorAula2-to-AulaRepository2-1" style="stroke:#181818;stroke-width:1.0;"/><polygon fill="#181818" points="773.71,512.85,783.3693,510.9271,777.7947,509.9663,778.7555,504.3917,773.71,512.85" style="stroke:#181818;stroke-width:1.0;"/><text fill="#000000" font-family="sans-serif" font-size="13" lengthAdjust="spacing" textLength="91" x="817" y="479.4951">eliminar(codigo)</text></g><!--link VistaAula2 to ColAbrir2--><g id="link_VistaAula2_ColAbrir2"><path d="M734.73,180.5 C805.18,205.48 937.7748,252.4854 1012.5048,278.9754 " fill="none" id="VistaAula2-to-ColAbrir2" style="stroke:#181818;stroke-width:1.0;stroke-dasharray:7.0,7.0;"/><polygon fill="#181818" points="1018.16,280.98,1011.0136,274.2029,1013.4473,279.3095,1008.3408,281.7432,1018.16,280.98" style="stroke:#181818;stroke-width:1.0;"/><text fill="#000000" font-family="sans-serif" font-size="13" lengthAdjust="spacing" textLength="69" x="925" y="247.4951">listarAulas()</text></g><!--SRC=[dPDDRvj048Rl-oj6pWMa9fLG4ZKvf2AkhPvRgVSnkwQZBBje5YToglxtpZes1WEH6ow8dVUThtq8J-HgPAmW_4RjNyYLi4ORZ0fjn98ppROsK7kxZHzAOT5uXbnNv2WqB4vMR8e6NMaDNCo_BHxp6vZTpxsrkFAC3Na7-Og9yut5C0CC8C7TYL8r5azO6fWLR72dI5Bu34PJS_YSmHy5ydIgt6PtY-KT_98EC8ecualFbKIP_9XeTRFIjr-a5zUmjt6GCTKoo-VN2uYX7wRsWMJyxJiYzLUfmtXmUVbmR1BkONB8mcigVQgEucZjzo_-oiULy_4yGNb_JLNlFiQzRAmr3dcEbOonh_W92fGh88qwLIUMcELaEPAct21hv4HZuqEgJWNHj5Swyo932YyRjFGgbf6IK_RZgZibuwpT5LrTFRGaYSp6m1jaITeXorYIvVm7JTc4G9fT4rVIktVd0vMTHLGMkVdmVvHDCPV9Ndhp3q3B3lVS6osokZ_YnPi_XbhxaBVtCYIxY-w7H-ZgDjjM6cY6Y4JVis5QKu7yazntsPP07FAYeUSMzRDJ3LhexAgBN3PWxXy0]--></g></svg>