<?xml version="1.0" encoding="us-ascii" standalone="no"?><svg xmlns="http://www.w3.org/2000/svg" xmlns:xlink="http://www.w3.org/1999/xlink" contentStyleType="text/css" height="674px" preserveAspectRatio="none" style="width:1434px;height:674px;background:#FFFFFF;" version="1.1" viewBox="0 0 1434 674" width="1434px" zoomAndPan="magnify"><defs/><g><!--cluster consultarHorario()--><g id="cluster_consultarHorario()"><path d="M8.5,147.5 L137.5,147.5 A3.75,3.75 0 0 1 140,150 L147,171.1094 L1019.5,171.1094 A2.5,2.5 0 0 1 1022,173.6094 L1022,665 A2.5,2.5 0 0 1 1019.5,667.5 L8.5,667.5 A2.5,2.5 0 0 1 6,665 L6,150 A2.5,2.5 0 0 1 8.5,147.5 " fill="none" style="stroke:#000000;stroke-width:1.5;"/><line style="stroke:#000000;stroke-width:1.5;" x1="6" x2="147" y1="171.1094" y2="171.1094"/><text fill="#000000" font-family="sans-serif" font-size="14" font-weight="bold" lengthAdjust="spacing" textLength="128" x="10" y="164.0332">consultarHorario()</text></g><!--entity VistaHorario--><g id="elem_VistaHorario"><rect fill="#629EF9" height="37.6094" rx="2.5" ry="2.5" style="stroke:#181818;stroke-width:0.5;" width="97" x="486.5" y="183.5"/><text fill="#000000" font-family="sans-serif" font-size="14" lengthAdjust="spacing" textLength="77" x="496.5" y="208.0332">VistaHorario</text></g><!--entity ControladorConsultaHorario--><g id="elem_ControladorConsultaHorario"><rect fill="#B5BD68" height="37.6094" rx="2.5" ry="2.5" style="stroke:#181818;stroke-width:0.5;" width="197" x="183.5" y="299.5"/><text fill="#000000" font-family="sans-serif" font-size="14" lengthAdjust="spacing" textLength="177" x="193.5" y="324.0332">ControladorConsultaHorario</text></g><!--entity HorarioRepository--><g id="elem_HorarioRepository"><rect fill="#F2AC4E" height="37.6094" rx="2.5" ry="2.5" style="stroke:#181818;stroke-width:0.5;" width="134" x="215" y="415.5"/><text fill="#000000" font-family="sans-serif" font-size="14" lengthAdjust="spacing" textLength="114" x="225" y="440.0332">HorarioRepository</text></g><!--entity Horario--><g id="elem_Horario"><rect fill="#F2AC4E" height="37.6094" rx="2.5" ry="2.5" style="stroke:#181818;stroke-width:0.5;" width="66" x="249" y="514.5"/><text fill="#000000" font-family="sans-serif" font-size="14" lengthAdjust="spacing" textLength="46" x="259" y="539.0332">Horario</text></g><!--entity SesionDocente--><g id="elem_SesionDocente"><rect fill="#F2AC4E" height="37.6094" rx="2.5" ry="2.5" style="stroke:#181818;stroke-width:0.5;" width="116" x="224" y="613.5"/><text fill="#000000" font-family="sans-serif" font-size="14" lengthAdjust="spacing" textLength="96" x="234" y="638.0332">SesionDocente</text></g><!--entity Administrador--><g id="elem_Administrador"><ellipse cx="441" cy="14" fill="#F1F1F1" rx="8" ry="8" style="stroke:#181818;stroke-width:0.5;"/><path d="M441,22 L441,49 M428,30 L454,30 M441,49 L428,64 M441,49 L454,64 " fill="none" style="stroke:#181818;stroke-width:0.5;"/><text fill="#000000" font-family="sans-serif" font-size="14" lengthAdjust="spacing" textLength="87" x="397.5" y="80.0332">Administrador</text></g><!--entity SD_in--><g id="elem_SD_in"><rect fill="#CDEBA5" height="37.6094" rx="2.5" ry="2.5" style="stroke:#181818;stroke-width:0.5;" width="144" x="674" y="25.5"/><text fill="#000000" font-family="sans-serif" font-size="14" lengthAdjust="spacing" textLength="124" x="684" y="50.0332">:Sistema Disponible</text></g><!--entity SD_out--><g id="elem_SD_out"><rect fill="#CDEBA5" height="37.6094" rx="2.5" ry="2.5" style="stroke:#181818;stroke-width:0.5;" width="144" x="1038" y="299.5"/><text fill="#000000" font-family="sans-serif" font-size="14" lengthAdjust="spacing" textLength="124" x="1048" y="324.0332">:Sistema Disponible</text></g><!--entity ColGenerar--><g id="elem_ColGenerar"><rect fill="#CDEBA5" height="37.6094" rx="2.5" ry="2.5" style="stroke:#181818;stroke-width:0.5;" width="211" x="1217.5" y="299.5"/><text fill="#000000" font-family="sans-serif" font-size="14" lengthAdjust="spacing" textLength="191" x="1227.5" y="324.0332">:Collaboration GenerarHorario</text></g><!--link SD_in to VistaHorario--><g id="link_SD_in_VistaHorario"><path d="M732.43,63.74 C713.64,88.98 682,131.5 682,131.5 C682,131.5 621.8271,160.1502 578.2771,180.8902 " fill="none" id="SD_in-to-VistaHorario" style="stroke:#181818;stroke-width:1.0;"/><polygon fill="#181818" points="572.86,183.47,582.7055,183.2117,577.3742,181.3202,579.2657,175.9889,572.86,183.47" style="stroke:#181818;stroke-width:1.0;"/><text fill="#000000" font-family="sans-serif" font-size="13" lengthAdjust="spacing" textLength="102" x="695" y="127.9951">consultarHorario()</text></g><!--link VistaHorario to ControladorConsultaHorario--><g id="link_VistaHorario_ControladorConsultaHorario"><path d="M486.23,208.37 C363.95,220.57 54,251.5 54,251.5 C54,251.5 54,269.5 54,269.5 C54,269.5 125.8887,284.6338 190.5787,298.2538 " fill="none" id="VistaHorario-to-ControladorConsultaHorario" style="stroke:#181818;stroke-width:1.0;"/><polygon fill="#181818" points="196.45,299.49,188.4672,293.7216,191.5573,298.4599,186.819,301.55,196.45,299.49" style="stroke:#181818;stroke-width:1.0;"/><text fill="#000000" font-family="sans-serif" font-size="13" lengthAdjust="spacing" textLength="92" x="55" y="265.9951">obtenerHorario()</text></g><!--link VistaHorario to ControladorConsultaHorario--><g id="link_VistaHorario_ControladorConsultaHorario"><path d="M486.39,210.22 C390.89,223.44 188,251.5 188,251.5 C188,251.5 188,269.5 188,269.5 C188,269.5 214.7165,283.1411 241.3865,296.7611 " fill="none" id="VistaHorario-to-ControladorConsultaHorario-1" style="stroke:#181818;stroke-width:1.0;"/><polygon fill="#181818" points="246.73,299.49,240.534,291.8343,242.2771,297.2159,236.8955,298.9591,246.73,299.49" style="stroke:#181818;stroke-width:1.0;"/><text fill="#000000" font-family="sans-serif" font-size="13" lengthAdjust="spacing" textLength="140" x="189" y="265.9951">renderizarMatriz(horario)</text></g><!--link VistaHorario to ControladorConsultaHorario--><g id="link_VistaHorario_ControladorConsultaHorario"><path d="M486.39,217.64 C437.72,231.8 370,251.5 370,251.5 C370,251.5 336.8989,276.3185 310.8489,295.8685 " fill="none" id="VistaHorario-to-ControladorConsultaHorario-2" style="stroke:#181818;stroke-width:1.0;"/><polygon fill="#181818" points="306.05,299.47,315.6493,297.2671,310.0491,296.4688,310.8474,290.8685,306.05,299.47" style="stroke:#181818;stroke-width:1.0;"/><text fill="#000000" font-family="sans-serif" font-size="13" lengthAdjust="spacing" textLength="283" x="371" y="265.9951">filtrarPorAula(codigoAula) : List&lt;SesionDocente&gt;</text></g><!--link VistaHorario to ControladorConsultaHorario--><g id="link_VistaHorario_ControladorConsultaHorario"><path d="M581.53,221.51 C616.71,235.13 659,251.5 659,251.5 C659,251.5 659,269.5 659,269.5 C659,269.5 498.212,289.9723 386.512,304.1923 " fill="none" id="VistaHorario-to-ControladorConsultaHorario-3" style="stroke:#181818;stroke-width:1.0;"/><polygon fill="#181818" points="380.56,304.95,389.9931,307.7814,385.52,304.3186,388.9828,299.8455,380.56,304.95" style="stroke:#181818;stroke-width:1.0;"/><text fill="#000000" font-family="sans-serif" font-size="13" lengthAdjust="spacing" textLength="306" x="660" y="265.9951">filtrarPorProfesor(dniProfesor) : List&lt;SesionDocente&gt;</text></g><!--link ControladorConsultaHorario to HorarioRepository--><g id="link_ControladorConsultaHorario_HorarioRepository"><path d="M282,337.56 C282,358.78 282,387.8 282,409.14 " fill="none" id="ControladorConsultaHorario-to-HorarioRepository" style="stroke:#181818;stroke-width:1.0;"/><polygon fill="#181818" points="282,415.14,286,406.14,282,410.14,278,406.14,282,415.14" style="stroke:#181818;stroke-width:1.0;"/><text fill="#000000" font-family="sans-serif" font-size="13" lengthAdjust="spacing" textLength="202" x="283" y="381.9951">obtenerHorarioPublicado() : Horario</text></g><!--link HorarioRepository to Horario--><g id="link_HorarioRepository_Horario"><path d="M282,453.74 C282,471.09 282,497.02 282,514.34 " fill="none" id="HorarioRepository-Horario" style="stroke:#181818;stroke-width:1.0;"/></g><!--link Horario to SesionDocente--><g id="link_Horario_SesionDocente"><path d="M282,552.74 C282,570.09 282,596.02 282,613.34 " fill="none" id="Horario-SesionDocente" style="stroke:#181818;stroke-width:1.0;"/></g><!--link Administrador to VistaHorario--><g id="link_Administrador_VistaHorario"><path d="M397.32,76.12 C371.58,94.17 344,113.5 344,113.5 C344,113.5 344,131.5 344,131.5 C344,131.5 424.0861,160.8562 480.6761,181.5862 " fill="none" id="Administrador-to-VistaHorario" style="stroke:#181818;stroke-width:1.0;"/><polygon fill="#181818" points="486.31,183.65,479.235,176.7984,481.6151,181.9302,476.4833,184.3102,486.31,183.65" style="stroke:#181818;stroke-width:1.0;"/><text fill="#000000" font-family="sans-serif" font-size="13" lengthAdjust="spacing" textLength="146" x="345" y="127.9951">filtrarPorAula(codigoAula)</text></g><!--link Administrador to VistaHorario--><g id="link_Administrador_VistaHorario"><path d="M472.04,83.87 C484.51,99.3 496,113.5 496,113.5 C496,113.5 513.0699,152.0042 524.4899,177.7842 " fill="none" id="Administrador-to-VistaHorario-1" style="stroke:#181818;stroke-width:1.0;"/><polygon fill="#181818" points="526.92,183.27,526.9321,173.4211,524.8949,178.6985,519.6176,176.6613,526.92,183.27" style="stroke:#181818;stroke-width:1.0;"/><text fill="#000000" font-family="sans-serif" font-size="13" lengthAdjust="spacing" textLength="169" x="504" y="127.9951">filtrarPorProfesor(dniProfesor)</text></g><!--link VistaHorario to SD_out--><g id="link_VistaHorario_SD_out"><path d="M583.77,208.82 C698.33,221.32 975,251.5 975,251.5 C975,251.5 1027.7502,277.2837 1067.7202,296.8337 " fill="none" id="VistaHorario-to-SD_out" style="stroke:#181818;stroke-width:1.0;stroke-dasharray:7.0,7.0;"/><polygon fill="#181818" points="1073.11,299.47,1066.7828,291.9224,1068.6185,297.2731,1063.2678,299.1088,1073.11,299.47" style="stroke:#181818;stroke-width:1.0;"/><text fill="#000000" font-family="sans-serif" font-size="13" lengthAdjust="spacing" textLength="110" x="1012" y="265.9951">completarGestion()</text></g><!--link VistaHorario to ColGenerar--><g id="link_VistaHorario_ColGenerar"><path d="M583.52,207.41 C725.64,218.85 1131,251.5 1131,251.5 C1131,251.5 1208.0161,277.9688 1264.8661,297.5188 " fill="none" id="VistaHorario-to-ColGenerar" style="stroke:#181818;stroke-width:1.0;stroke-dasharray:7.0,7.0;"/><polygon fill="#181818" points="1270.54,299.47,1263.33,292.7606,1265.8118,297.844,1260.7284,300.3258,1270.54,299.47" style="stroke:#181818;stroke-width:1.0;"/><text fill="#000000" font-family="sans-serif" font-size="13" lengthAdjust="spacing" textLength="92" x="1183" y="265.9951">generarHorario()</text></g><!--SRC=[dL9DQnin4BthLmpkPNrm3g49JGW6T-qaXnPC3Rs6sTtnMbZMB2EPu9R-zuxSpSVQte2xbvNqFZHwlB2sla713OGLLlniVGrBT85CU4MSzHHt3K73RfSsnc0PMM1IRQot8OegnGYL4Ntj23xbqzdNoHKCRXUAqWPXQaF3tXQE1e015jCdwurfi5nZJJ0esOUjYoYFB2YMi-40VXlGxvtfzUNDxFu6Vgebjhn3Id5LLDTV86SVXLsQAc-TUmJtbvFyymnQz0Sr7Ao-RFSnhmTTKB3ifroIZsJ-c3CJuMqygSZPEIpqvgZky42Uv3MelLO9xQan-sHXD1ftSe9RE8xOT1X9qf-R6d0HqoLlyW_OoUmeqoEF-RPmjbHzDbJi9TjZtMXq2AQZRjhdlKN8LoJs5yftZFhFLl-WeJ6TJfyASccTWZ9dcMmTPYLNjkQqF3VGVYC5lwdLNUU9uxDccmilAR1abRSlw_yVyAHRtvITIoukncstzntSD8wqWmyKKfaFEvZ8RsLMGTqfkzB_0W00]--></g></svg>