<?xml version="1.0" encoding="us-ascii" standalone="no"?><svg xmlns="http://www.w3.org/2000/svg" xmlns:xlink="http://www.w3.org/1999/xlink" contentStyleType="text/css" height="574px" preserveAspectRatio="none" style="width:1191px;height:574px;background:#FFFFFF;" version="1.1" viewBox="0 0 1191 574" width="1191px" zoomAndPan="magnify"><defs/><g><!--cluster crearAsignatura() / editarAsignatura()--><g id="cluster_crearAsignatura() / editarAsignatura()"><path d="M8.5,109 L269.5,109 A3.75,3.75 0 0 1 272,111.5 L279,132.6094 L507.5,132.6094 A2.5,2.5 0 0 1 510,135.1094 L510,564.5 A2.5,2.5 0 0 1 507.5,567 L8.5,567 A2.5,2.5 0 0 1 6,564.5 L6,111.5 A2.5,2.5 0 0 1 8.5,109 " fill="none" style="stroke:#000000;stroke-width:1.5;"/><line style="stroke:#000000;stroke-width:1.5;" x1="6" x2="279" y1="132.6094" y2="132.6094"/><text fill="#000000" font-family="sans-serif" font-size="14" font-weight="bold" lengthAdjust="spacing" textLength="260" x="10" y="125.5332">crearAsignatura() / editarAsignatura()</text></g><!--cluster eliminarAsignatura()--><g id="cluster_eliminarAsignatura()"><path d="M668.5,109 L810.5,109 A3.75,3.75 0 0 1 813,111.5 L820,132.6094 L949.5,132.6094 A2.5,2.5 0 0 1 952,135.1094 L952,564.5 A2.5,2.5 0 0 1 949.5,567 L668.5,567 A2.5,2.5 0 0 1 666,564.5 L666,111.5 A2.5,2.5 0 0 1 668.5,109 " fill="none" style="stroke:#000000;stroke-width:1.5;"/><line style="stroke:#000000;stroke-width:1.5;" x1="666" x2="820" y1="132.6094" y2="132.6094"/><text fill="#000000" font-family="sans-serif" font-size="14" font-weight="bold" lengthAdjust="spacing" textLength="141" x="670" y="125.5332">eliminarAsignatura()</text></g><!--entity VistaAsignatura--><g id="elem_VistaAsignatura"><rect fill="#629EF9" height="37.6094" rx="2.5" ry="2.5" style="stroke:#181818;stroke-width:0.5;" width="119" x="134.5" y="145"/><text fill="#000000" font-family="sans-serif" font-size="14" lengthAdjust="spacing" textLength="99" x="144.5" y="169.5332">VistaAsignatura</text></g><!--entity FormularioAsignatura--><g id="elem_FormularioAsignatura"><rect fill="#629EF9" height="37.6094" rx="2.5" ry="2.5" style="stroke:#181818;stroke-width:0.5;" width="156" x="79" y="281"/><text fill="#000000" font-family="sans-serif" font-size="14" lengthAdjust="spacing" textLength="136" x="89" y="305.5332">FormularioAsignatura</text></g><!--entity ControladorAsignatura--><g id="elem_ControladorAsignatura"><rect fill="#B5BD68" height="37.6094" rx="2.5" ry="2.5" style="stroke:#181818;stroke-width:0.5;" width="163" x="75.5" y="397"/><text fill="#000000" font-family="sans-serif" font-size="14" lengthAdjust="spacing" textLength="143" x="85.5" y="421.5332">ControladorAsignatura</text></g><!--entity AsignaturaRepository--><g id="elem_AsignaturaRepository"><rect fill="#F2AC4E" height="37.6094" rx="2.5" ry="2.5" style="stroke:#181818;stroke-width:0.5;" width="156" x="22" y="513"/><text fill="#000000" font-family="sans-serif" font-size="14" lengthAdjust="spacing" textLength="136" x="32" y="537.5332">AsignaturaRepository</text></g><!--entity Asignatura--><g id="elem_Asignatura"><rect fill="#F2AC4E" height="37.6094" rx="2.5" ry="2.5" style="stroke:#181818;stroke-width:0.5;" width="88" x="213" y="513"/><text fill="#000000" font-family="sans-serif" font-size="14" lengthAdjust="spacing" textLength="68" x="223" y="537.5332">Asignatura</text></g><!--entity VistaAsignatura2--><g id="elem_VistaAsignatura2"><rect fill="#629EF9" height="37.6094" rx="2.5" ry="2.5" style="stroke:#181818;stroke-width:0.5;" width="127" x="682.5" y="145"/><text fill="#000000" font-family="sans-serif" font-size="14" lengthAdjust="spacing" textLength="107" x="692.5" y="169.5332">VistaAsignatura2</text></g><!--entity ConfirmacionAsignatura--><g id="elem_ConfirmacionAsignatura"><rect fill="#629EF9" height="37.6094" rx="2.5" ry="2.5" style="stroke:#181818;stroke-width:0.5;" width="171" x="682.5" y="281"/><text fill="#000000" font-family="sans-serif" font-size="14" lengthAdjust="spacing" textLength="151" x="692.5" y="305.5332">ConfirmacionAsignatura</text></g><!--entity ControladorAsignatura2--><g id="elem_ControladorAsignatura2"><rect fill="#B5BD68" height="37.6094" rx="2.5" ry="2.5" style="stroke:#181818;stroke-width:0.5;" width="171" x="682.5" y="397"/><text fill="#000000" font-family="sans-serif" font-size="14" lengthAdjust="spacing" textLength="151" x="692.5" y="421.5332">ControladorAsignatura2</text></g><!--entity AsignaturaRepository2--><g id="elem_AsignaturaRepository2"><rect fill="#F2AC4E" height="37.6094" rx="2.5" ry="2.5" style="stroke:#181818;stroke-width:0.5;" width="164" x="686" y="513"/><text fill="#000000" font-family="sans-serif" font-size="14" lengthAdjust="spacing" textLength="144" x="696" y="537.5332">AsignaturaRepository2</text></g><!--entity Administrador--><g id="elem_Administrador"><ellipse cx="587" cy="133.5" fill="#F1F1F1" rx="8" ry="8" style="stroke:#181818;stroke-width:0.5;"/><path d="M587,141.5 L587,168.5 M574,149.5 L600,149.5 M587,168.5 L574,183.5 M587,168.5 L600,183.5 " fill="none" style="stroke:#181818;stroke-width:0.5;"/><text fill="#000000" font-family="sans-serif" font-size="14" lengthAdjust="spacing" textLength="87" x="543.5" y="199.5332">Administrador</text></g><!--entity ColAbrir--><g id="elem_ColAbrir"><rect fill="#CDEBA5" height="37.6094" rx="2.5" ry="2.5" style="stroke:#181818;stroke-width:0.5;" width="217" x="232.5" y="7"/><text fill="#000000" font-family="sans-serif" font-size="14" lengthAdjust="spacing" textLength="197" x="242.5" y="31.5332">:Collaboration AbrirAsignaturas</text></g><!--entity ColAbrir2--><g id="elem_ColAbrir2"><rect fill="#CDEBA5" height="37.6094" rx="2.5" ry="2.5" style="stroke:#181818;stroke-width:0.5;" width="217" x="968.5" y="281"/><text fill="#000000" font-family="sans-serif" font-size="14" lengthAdjust="spacing" textLength="197" x="978.5" y="305.5332">:Collaboration AbrirAsignaturas</text></g><!--link ColAbrir to VistaAsignatura--><g id="link_ColAbrir_VistaAsignatura"><path d="M330.34,45.03 C318.8,64.58 302,93 302,93 C302,93 258.845,120.9667 226.845,141.7067 " fill="none" id="ColAbrir-to-VistaAsignatura" style="stroke:#181818;stroke-width:1.0;"/><polygon fill="#181818" points="221.81,144.97,231.538,143.4317,226.0058,142.2506,227.1869,136.7184,221.81,144.97" style="stroke:#181818;stroke-width:1.0;"/><text fill="#000000" font-family="sans-serif" font-size="13" lengthAdjust="spacing" textLength="251" x="313" y="89.4951">crearAsignatura() / editarAsignatura(codigo)</text></g><!--link VistaAsignatura to ColAbrir--><g id="link_VistaAsignatura_ColAbrir"><path d="M192.2,144.97 C190.12,124.23 187,93 187,93 C187,93 187,75 187,75 C187,75 233.7918,60.4153 277.4918,46.7953 " fill="none" id="VistaAsignatura-to-ColAbrir" style="stroke:#181818;stroke-width:1.0;stroke-dasharray:7.0,7.0;"/><polygon fill="#181818" points="283.22,45.01,273.4374,43.8692,278.4465,46.4978,275.8179,51.5068,283.22,45.01" style="stroke:#181818;stroke-width:1.0;"/><text fill="#000000" font-family="sans-serif" font-size="13" lengthAdjust="spacing" textLength="105" x="188" y="89.4951">listarAsignaturas()</text></g><!--link VistaAsignatura to FormularioAsignatura--><g id="link_VistaAsignatura_FormularioAsignatura"><path d="M160.03,183.04 C122.11,203.19 66,233 66,233 C66,233 66,251 66,251 C66,251 91.7226,264.5715 117.5526,278.1915 " fill="none" id="VistaAsignatura-to-FormularioAsignatura" style="stroke:#181818;stroke-width:1.0;"/><polygon fill="#181818" points="122.86,280.99,116.7646,273.2539,118.4372,278.6579,113.0333,280.3304,122.86,280.99" style="stroke:#181818;stroke-width:1.0;"/><text fill="#000000" font-family="sans-serif" font-size="13" lengthAdjust="spacing" textLength="180" x="67" y="247.4951">mostrarFormulario(asignatura?)</text></g><!--link Administrador to FormularioAsignatura--><g id="link_Administrador_FormularioAsignatura"><path d="M543.1,186.66 C525.81,195.2 510,203 510,203 C510,203 383,233 383,233 C383,233 291.4292,259.7373 224.5192,279.2873 " fill="none" id="Administrador-to-FormularioAsignatura" style="stroke:#181818;stroke-width:1.0;"/><polygon fill="#181818" points="218.76,280.97,228.5206,282.2854,223.5593,279.5677,226.277,274.6064,218.76,280.97" style="stroke:#181818;stroke-width:1.0;"/><text fill="#000000" font-family="sans-serif" font-size="13" lengthAdjust="spacing" textLength="281" x="384" y="247.4951">rellenarCampos(codigo, nombre, creditos, curso)</text></g><!--link FormularioAsignatura to ControladorAsignatura--><g id="link_FormularioAsignatura_ControladorAsignatura"><path d="M157,319.06 C157,340.28 157,369.3 157,390.64 " fill="none" id="FormularioAsignatura-to-ControladorAsignatura" style="stroke:#181818;stroke-width:1.0;"/><polygon fill="#181818" points="157,396.64,161,387.64,157,391.64,153,387.64,157,396.64" style="stroke:#181818;stroke-width:1.0;"/><text fill="#000000" font-family="sans-serif" font-size="13" lengthAdjust="spacing" textLength="83" x="158" y="363.4951">guardar(datos)</text></g><!--link ControladorAsignatura to Asignatura--><g id="link_ControladorAsignatura_Asignatura"><path d="M172.85,435.06 C191.46,456.28 218.2121,486.7906 236.9421,508.1306 " fill="none" id="ControladorAsignatura-to-Asignatura" style="stroke:#181818;stroke-width:1.0;"/><polygon fill="#181818" points="240.9,512.64,237.9694,503.2372,237.6017,508.8821,231.9569,508.5145,240.9,512.64" style="stroke:#181818;stroke-width:1.0;"/><text fill="#000000" font-family="sans-serif" font-size="13" lengthAdjust="spacing" textLength="282" x="213" y="479.4951">new / actualizar(codigo, nombre, creditos, curso)</text></g><!--link ControladorAsignatura to AsignaturaRepository--><g id="link_ControladorAsignatura_AsignaturaRepository"><path d="M118.35,435.01 C89.13,448.63 54,465 54,465 C54,465 54,483 54,483 C54,483 65.4275,494.9291 78.4575,508.5191 " fill="none" id="ControladorAsignatura-to-AsignaturaRepository" style="stroke:#181818;stroke-width:1.0;"/><polygon fill="#181818" points="82.61,512.85,79.2686,503.5853,79.1496,509.2409,73.494,509.1219,82.61,512.85" style="stroke:#181818;stroke-width:1.0;"/><text fill="#000000" font-family="sans-serif" font-size="13" lengthAdjust="spacing" textLength="111" x="55" y="479.4951">guardar(asignatura)</text></g><!--link ColAbrir to VistaAsignatura2--><g id="link_ColAbrir_VistaAsignatura2"><path d="M428.05,45.01 C493.88,58.63 573,75 573,75 C573,75 648,101 648,101 C648,101 683.3893,123.3925 712.3193,141.6925 " fill="none" id="ColAbrir-to-VistaAsignatura2" style="stroke:#181818;stroke-width:1.0;"/><polygon fill="#181818" points="717.39,144.9,711.9223,136.7083,713.1644,142.2271,707.6456,143.4692,717.39,144.9" style="stroke:#181818;stroke-width:1.0;"/><text fill="#000000" font-family="sans-serif" font-size="13" lengthAdjust="spacing" textLength="153" x="624" y="89.4951">eliminarAsignatura(codigo)</text></g><!--link VistaAsignatura2 to ConfirmacionAsignatura--><g id="link_VistaAsignatura2_ConfirmacionAsignatura"><path d="M748.97,183.07 C753.17,208.65 759.8286,249.2092 764.0386,274.8692 " fill="none" id="VistaAsignatura2-to-ConfirmacionAsignatura" style="stroke:#181818;stroke-width:1.0;"/><polygon fill="#181818" points="765.01,280.79,767.5001,271.2611,764.2005,275.856,759.6056,272.5564,765.01,280.79" style="stroke:#181818;stroke-width:1.0;"/><text fill="#000000" font-family="sans-serif" font-size="13" lengthAdjust="spacing" textLength="217" x="760" y="247.4951">confirmarEliminacion(codigo, nombre)</text></g><!--link Administrador to ConfirmacionAsignatura--><g id="link_Administrador_ConfirmacionAsignatura"><path d="M630.71,202.97 C657.23,226.01 686,251 686,251 C686,251 708.6017,264.2293 731.8217,277.8193 " fill="none" id="Administrador-to-ConfirmacionAsignatura" style="stroke:#181818;stroke-width:1.0;"/><polygon fill="#181818" points="737,280.85,731.253,272.8517,732.6847,278.3244,727.2121,279.7561,737,280.85" style="stroke:#181818;stroke-width:1.0;"/><text fill="#000000" font-family="sans-serif" font-size="13" lengthAdjust="spacing" textLength="61" x="687" y="247.4951">confirmar()</text></g><!--link ConfirmacionAsignatura to ControladorAsignatura2--><g id="link_ConfirmacionAsignatura_ControladorAsignatura2"><path d="M768,319.06 C768,340.28 768,369.3 768,390.64 " fill="none" id="ConfirmacionAsignatura-to-ControladorAsignatura2" style="stroke:#181818;stroke-width:1.0;"/><polygon fill="#181818" points="768,396.64,772,387.64,768,391.64,764,387.64,768,396.64" style="stroke:#181818;stroke-width:1.0;"/><text fill="#000000" font-family="sans-serif" font-size="13" lengthAdjust="spacing" textLength="91" x="769" y="363.4951">eliminar(codigo)</text></g><!--link ControladorAsignatura2 to AsignaturaRepository2--><g id="link_ControladorAsignatura2_AsignaturaRepository2"><path d="M768,435.06 C768,456.28 768,485.3 768,506.64 " fill="none" id="ControladorAsignatura2-to-AsignaturaRepository2" style="stroke:#181818;stroke-width:1.0;"/><polygon fill="#181818" points="768,512.64,772,503.64,768,507.64,764,503.64,768,512.64" style="stroke:#181818;stroke-width:1.0;"/><text fill="#000000" font-family="sans-serif" font-size="13" lengthAdjust="spacing" textLength="91" x="769" y="479.4951">eliminar(codigo)</text></g><!--link VistaAsignatura2 to ColAbrir2--><g id="link_VistaAsignatura2_ColAbrir2"><path d="M809.69,183.04 C880.79,203.19 986,233 986,233 C986,233 1020.3339,257.896 1047.2739,277.446 " fill="none" id="VistaAsignatura2-to-ColAbrir2" style="stroke:#181818;stroke-width:1.0;stroke-dasharray:7.0,7.0;"/><polygon fill="#181818" points="1052.13,280.97,1047.1952,272.4466,1048.0833,278.0333,1042.4966,278.9214,1052.13,280.97" style="stroke:#181818;stroke-width:1.0;"/><text fill="#000000" font-family="sans-serif" font-size="13" lengthAdjust="spacing" textLength="105" x="1011" y="247.4951">listarAsignaturas()</text></g><!--SRC=[fLJBJkim4DtxAqPbaqWy9Ek2BYn0eRGVm8Bz9371mh6ZSI9K4Fz-nrneqjQcFB9AF6UEPywSYN_KjaF25lm3rkv9smRkqNWb_3fYj5NzgbFGERCA7q9WrJk2ecwrrRudpYH1gkhHDaR1mVncSLsSmknYxep1qX7ssbaeIj9KUDrOx0T2FmFqm92tSo4wh1wnKJ2hIE44b-Lm0ghM_URX35u4y3EvzqoUBvRdSCSruGXDe9QEsi4WQPU6bgTbVVQNQxGzEHFQJ6ENifZ_MS08k5MTyvg5Mks5YbSXFeI0ewFBxHRW0huaIkLgtRXSRAS7obY_pDkwC40QenckmrUvs9ZnPpoaZ54MQOujj_rUoI5OrvQa3aFvNApp_3QGvnAZD84_AZPVq0n8DL9M8zFa8WuB11jPLZsnKEpN0Or-vlIzXNs5U1pjfB1Hjzq171zVhftEAIQ4fwkGvHF_AwDPz1-wNIPWtDQzfXOhtiIV6Lv-m_4oEFgNVmJv-Kv8rZ6YL685v8Ut8YA4xNeFqE8_Om1iMIMs2_lviZT3nK19hqyRMxUJGAPi6UNOaMJgIfcmvJy0]--></g></svg>