<?xml version="1.0" encoding="us-ascii" standalone="no"?><svg xmlns="http://www.w3.org/2000/svg" xmlns:xlink="http://www.w3.org/1999/xlink" contentStyleType="text/css" height="575px" preserveAspectRatio="none" style="width:1423px;height:575px;background:#FFFFFF;" version="1.1" viewBox="0 0 1423 575" width="1423px" zoomAndPan="magnify"><defs/><g><!--cluster generarHorario()--><g id="cluster_generarHorario()"><path d="M8.5,147.5 L127.5,147.5 A3.75,3.75 0 0 1 130,150 L137,171.1094 L718.5,171.1094 A2.5,2.5 0 0 1 721,173.6094 L721,566 A2.5,2.5 0 0 1 718.5,568.5 L8.5,568.5 A2.5,2.5 0 0 1 6,566 L6,150 A2.5,2.5 0 0 1 8.5,147.5 " fill="none" style="stroke:#000000;stroke-width:1.5;"/><line style="stroke:#000000;stroke-width:1.5;" x1="6" x2="137" y1="171.1094" y2="171.1094"/><text fill="#000000" font-family="sans-serif" font-size="14" font-weight="bold" lengthAdjust="spacing" textLength="118" x="10" y="164.0332">generarHorario()</text></g><!--entity VistaHorario--><g id="elem_VistaHorario"><rect fill="#629EF9" height="37.6094" rx="2.5" ry="2.5" style="stroke:#181818;stroke-width:0.5;" width="97" x="607.5" y="183.5"/><text fill="#000000" font-family="sans-serif" font-size="14" lengthAdjust="spacing" textLength="77" x="617.5" y="208.0332">VistaHorario</text></g><!--entity ControladorHorario--><g id="elem_ControladorHorario"><rect fill="#B5BD68" height="37.6094" rx="2.5" ry="2.5" style="stroke:#181818;stroke-width:0.5;" width="141" x="380.5" y="299.5"/><text fill="#000000" font-family="sans-serif" font-size="14" lengthAdjust="spacing" textLength="121" x="390.5" y="324.0332">ControladorHorario</text></g><!--entity HorarioRepository--><g id="elem_HorarioRepository"><rect fill="#F2AC4E" height="37.6094" rx="2.5" ry="2.5" style="stroke:#181818;stroke-width:0.5;" width="134" x="179" y="415.5"/><text fill="#000000" font-family="sans-serif" font-size="14" lengthAdjust="spacing" textLength="114" x="189" y="440.0332">HorarioRepository</text></g><!--entity Horario--><g id="elem_Horario"><rect fill="#F2AC4E" height="37.6094" rx="2.5" ry="2.5" style="stroke:#181818;stroke-width:0.5;" width="66" x="594" y="415.5"/><text fill="#000000" font-family="sans-serif" font-size="14" lengthAdjust="spacing" textLength="46" x="604" y="440.0332">Horario</text></g><!--entity Asignatura--><g id="elem_Asignatura"><rect fill="#F2AC4E" height="37.6094" rx="2.5" ry="2.5" style="stroke:#181818;stroke-width:0.5;" width="88" x="202" y="514.5"/><text fill="#000000" font-family="sans-serif" font-size="14" lengthAdjust="spacing" textLength="68" x="212" y="539.0332">Asignatura</text></g><!--entity Administrador--><g id="elem_Administrador"><ellipse cx="581" cy="14" fill="#F1F1F1" rx="8" ry="8" style="stroke:#181818;stroke-width:0.5;"/><path d="M581,22 L581,49 M568,30 L594,30 M581,49 L568,64 M581,49 L594,64 " fill="none" style="stroke:#181818;stroke-width:0.5;"/><text fill="#000000" font-family="sans-serif" font-size="14" lengthAdjust="spacing" textLength="87" x="537.5" y="80.0332">Administrador</text></g><!--entity SD_in--><g id="elem_SD_in"><rect fill="#CDEBA5" height="37.6094" rx="2.5" ry="2.5" style="stroke:#181818;stroke-width:0.5;" width="144" x="660" y="25.5"/><text fill="#000000" font-family="sans-serif" font-size="14" lengthAdjust="spacing" textLength="124" x="670" y="50.0332">:Sistema Disponible</text></g><!--entity ColPosicionar--><g id="elem_ColPosicionar"><rect fill="#CDEBA5" height="37.6094" rx="2.5" ry="2.5" style="stroke:#181818;stroke-width:0.5;" width="246" x="737" y="299.5"/><text fill="#000000" font-family="sans-serif" font-size="14" lengthAdjust="spacing" textLength="226" x="747" y="324.0332">:Collaboration PosicionarAsignatura</text></g><!--entity ColConsultar--><g id="elem_ColConsultar"><rect fill="#CDEBA5" height="37.6094" rx="2.5" ry="2.5" style="stroke:#181818;stroke-width:0.5;" width="219" x="1018.5" y="299.5"/><text fill="#000000" font-family="sans-serif" font-size="14" lengthAdjust="spacing" textLength="199" x="1028.5" y="324.0332">:Collaboration ConsultarHorario</text></g><!--entity SD_out--><g id="elem_SD_out"><rect fill="#CDEBA5" height="37.6094" rx="2.5" ry="2.5" style="stroke:#181818;stroke-width:0.5;" width="144" x="1273" y="299.5"/><text fill="#000000" font-family="sans-serif" font-size="14" lengthAdjust="spacing" textLength="124" x="1283" y="324.0332">:Sistema Disponible</text></g><!--link SD_in to VistaHorario--><g id="link_SD_in_VistaHorario"><path d="M723.73,63.74 C712.28,88.98 693,131.5 693,131.5 C693,131.5 679.2933,157.4252 668.3333,178.1652 " fill="none" id="SD_in-to-VistaHorario" style="stroke:#181818;stroke-width:1.0;"/><polygon fill="#181818" points="665.53,183.47,673.2716,177.3816,667.8661,179.0493,666.1984,173.6439,665.53,183.47" style="stroke:#181818;stroke-width:1.0;"/><text fill="#000000" font-family="sans-serif" font-size="13" lengthAdjust="spacing" textLength="92" x="701" y="127.9951">generarHorario()</text></g><!--link VistaHorario to ControladorHorario--><g id="link_VistaHorario_ControladorHorario"><path d="M623.52,221.56 C585.24,242.85 527.2635,275.0836 488.9135,296.4136 " fill="none" id="VistaHorario-to-ControladorHorario" style="stroke:#181818;stroke-width:1.0;"/><polygon fill="#181818" points="483.67,299.33,493.4796,298.4511,488.0396,296.8997,489.591,291.4597,483.67,299.33" style="stroke:#181818;stroke-width:1.0;"/><text fill="#000000" font-family="sans-serif" font-size="13" lengthAdjust="spacing" textLength="108" x="566" y="265.9951">iniciarGeneracion()</text></g><!--link ControladorHorario to HorarioRepository--><g id="link_ControladorHorario_HorarioRepository"><path d="M380.48,328.03 C266.4,341.82 54,367.5 54,367.5 C54,367.5 54,385.5 54,385.5 C54,385.5 117.6591,401.415 173.0291,415.255 " fill="none" id="ControladorHorario-to-HorarioRepository" style="stroke:#181818;stroke-width:1.0;"/><polygon fill="#181818" points="178.85,416.71,171.0886,410.6469,173.9992,415.4975,169.1486,418.4082,178.85,416.71" style="stroke:#181818;stroke-width:1.0;"/><text fill="#000000" font-family="sans-serif" font-size="13" lengthAdjust="spacing" textLength="304" x="55" y="381.9951">obtenerAsignaturasPlanificables() : List&lt;Asignatura&gt;</text></g><!--link ControladorHorario to HorarioRepository--><g id="link_ControladorHorario_HorarioRepository"><path d="M427.23,337.53 C401.47,357.08 364,385.5 364,385.5 C364,385.5 329.3179,399.6096 295.8279,413.2296 " fill="none" id="ControladorHorario-to-HorarioRepository-1" style="stroke:#181818;stroke-width:1.0;"/><polygon fill="#181818" points="290.27,415.49,300.1138,415.8048,294.9016,413.6064,297.1,408.3942,290.27,415.49" style="stroke:#181818;stroke-width:1.0;"/><text fill="#000000" font-family="sans-serif" font-size="13" lengthAdjust="spacing" textLength="182" x="388" y="381.9951">obtenerHorarioActual() : Horario</text></g><!--link HorarioRepository to Asignatura--><g id="link_HorarioRepository_Asignatura"><path d="M246,453.74 C246,471.09 246,497.02 246,514.34 " fill="none" id="HorarioRepository-Asignatura" style="stroke:#181818;stroke-width:1.0;"/></g><!--link ControladorHorario to Horario--><g id="link_ControladorHorario_Horario"><path d="M502.4,337.51 C541.28,351.13 588,367.5 588,367.5 C588,367.5 601.75,390.753 613.29,410.303 " fill="none" id="ControladorHorario-to-Horario" style="stroke:#181818;stroke-width:1.0;"/><polygon fill="#181818" points="616.34,415.47,615.2097,405.6862,613.7984,411.1642,608.3204,409.7528,616.34,415.47" style="stroke:#181818;stroke-width:1.0;"/><text fill="#000000" font-family="sans-serif" font-size="13" lengthAdjust="spacing" textLength="76" x="599" y="381.9951">new Horario()</text></g><!--link Administrador to VistaHorario--><g id="link_Administrador_VistaHorario"><path d="M585,83.72 C587.4,106.69 590,131.5 590,131.5 C590,131.5 615.3345,158.364 634.8845,179.104 " fill="none" id="Administrador-to-VistaHorario" style="stroke:#181818;stroke-width:1.0;"/><polygon fill="#181818" points="639,183.47,635.7374,174.1772,635.5704,179.8316,629.916,179.6646,639,183.47" style="stroke:#181818;stroke-width:1.0;"/><text fill="#000000" font-family="sans-serif" font-size="13" lengthAdjust="spacing" textLength="97" x="591" y="127.9951">visualizarMatriz()</text></g><!--link VistaHorario to ColPosicionar--><g id="link_VistaHorario_ColPosicionar"><path d="M688.32,221.56 C726.41,242.85 784.0823,275.0731 822.2523,296.4031 " fill="none" id="VistaHorario-to-ColPosicionar" style="stroke:#181818;stroke-width:1.0;stroke-dasharray:7.0,7.0;"/><polygon fill="#181818" points="827.49,299.33,821.5847,291.4479,823.1253,296.8909,817.6822,298.4314,827.49,299.33" style="stroke:#181818;stroke-width:1.0;"/><text fill="#000000" font-family="sans-serif" font-size="13" lengthAdjust="spacing" textLength="129" x="771" y="265.9951">posicionarAsignatura()</text></g><!--link VistaHorario to ColConsultar--><g id="link_VistaHorario_ColConsultar"><path d="M704.78,212.75 C778.3,226.7 909,251.5 909,251.5 C909,251.5 997.5754,278.1879 1062.4154,297.7379 " fill="none" id="VistaHorario-to-ColConsultar" style="stroke:#181818;stroke-width:1.0;stroke-dasharray:7.0,7.0;"/><polygon fill="#181818" points="1068.16,299.47,1060.6979,293.0422,1063.3729,298.0266,1058.3885,300.7016,1068.16,299.47" style="stroke:#181818;stroke-width:1.0;"/><text fill="#000000" font-family="sans-serif" font-size="13" lengthAdjust="spacing" textLength="102" x="968" y="265.9951">consultarHorario()</text></g><!--link VistaHorario to SD_out--><g id="link_VistaHorario_SD_out"><path d="M704.52,209.01 C815.63,221.61 1079,251.5 1079,251.5 C1079,251.5 1188.0765,278.5654 1266.8465,298.1054 " fill="none" id="VistaHorario-to-SD_out" style="stroke:#181818;stroke-width:1.0;stroke-dasharray:7.0,7.0;"/><polygon fill="#181818" points="1272.67,299.55,1264.8978,293.5008,1267.8171,298.3462,1262.9717,301.2654,1272.67,299.55" style="stroke:#181818;stroke-width:1.0;"/><text fill="#000000" font-family="sans-serif" font-size="13" lengthAdjust="spacing" textLength="110" x="1151" y="265.9951">completarGestion()</text></g><!--SRC=[bLF1Ji904BtlLqpg1Gvu86A4698Ag0TDY2HUpRIiTUAos-mk6Z3-kxDGAIs5w1wQDk-zsPbvh-wTT8uM5-3US6u-IMVmYif9uNQ88YtzAfUG6xKA7q9Wwes5UBuWJSvRLbfXPUfHPqh2sMWykObx40rcZCe5mfXSRZGbIaQ03cRZ5z92v9Y-OoOXogIM5kszuGUPLZk2Bm5yzafUTlkJspuySq4iU7LAqalcbrSmCjfReq9FHuYttNXqCO42VPAvSSJph4xpZg2neqoZNreKtw9n2IEZ52PSn9FHCENBKdv1MoetIs5QYVsX4C_fbihlrXQ5_ef2E-pFhjJFrYMpz49it89EPrZPFWoWRfkeu45mw0NBE3CfeRtRgCEuh6mW1ls1HImtYG_ASdjkgb3JAwN8axXMcpaFtCXroHYAmqATphvrf-_dYbf-GZde_zije3ZrIrIR7dzZLVcBcjRyGOurj4RxYDxIck-lRlhyV5XD3uloXfZL7Ifqkx00wz9Qgfeqss3y9YLe5hcIFbZg_DRF7m00]--></g></svg>