<?xml version="1.0" encoding="us-ascii" standalone="no"?><svg xmlns="http://www.w3.org/2000/svg" xmlns:xlink="http://www.w3.org/1999/xlink" contentStyleType="text/css" height="575px" preserveAspectRatio="none" style="width:1412px;height:575px;background:#FFFFFF;" version="1.1" viewBox="0 0 1412 575" width="1412px" zoomAndPan="magnify"><defs/><g><!--cluster abrirAsignaturas()--><g id="cluster_abrirAsignaturas()"><path d="M8.5,147.5 L135.5,147.5 A3.75,3.75 0 0 1 138,150 L145,171.1094 L474.5,171.1094 A2.5,2.5 0 0 1 477,173.6094 L477,566 A2.5,2.5 0 0 1 474.5,568.5 L8.5,568.5 A2.5,2.5 0 0 1 6,566 L6,150 A2.5,2.5 0 0 1 8.5,147.5 " fill="none" style="stroke:#000000;stroke-width:1.5;"/><line style="stroke:#000000;stroke-width:1.5;" x1="6" x2="145" y1="171.1094" y2="171.1094"/><text fill="#000000" font-family="sans-serif" font-size="14" font-weight="bold" lengthAdjust="spacing" textLength="126" x="10" y="164.0332">abrirAsignaturas()</text></g><!--entity VistaAsignatura--><g id="elem_VistaAsignatura"><rect fill="#629EF9" height="37.6094" rx="2.5" ry="2.5" style="stroke:#181818;stroke-width:0.5;" width="119" x="341.5" y="183.5"/><text fill="#000000" font-family="sans-serif" font-size="14" lengthAdjust="spacing" textLength="99" x="351.5" y="208.0332">VistaAsignatura</text></g><!--entity ControladorAsignatura--><g id="elem_ControladorAsignatura"><rect fill="#B5BD68" height="37.6094" rx="2.5" ry="2.5" style="stroke:#181818;stroke-width:0.5;" width="163" x="72.5" y="299.5"/><text fill="#000000" font-family="sans-serif" font-size="14" lengthAdjust="spacing" textLength="143" x="82.5" y="324.0332">ControladorAsignatura</text></g><!--entity AsignaturaRepository--><g id="elem_AsignaturaRepository"><rect fill="#F2AC4E" height="37.6094" rx="2.5" ry="2.5" style="stroke:#181818;stroke-width:0.5;" width="156" x="76" y="415.5"/><text fill="#000000" font-family="sans-serif" font-size="14" lengthAdjust="spacing" textLength="136" x="86" y="440.0332">AsignaturaRepository</text></g><!--entity Asignatura--><g id="elem_Asignatura"><rect fill="#F2AC4E" height="37.6094" rx="2.5" ry="2.5" style="stroke:#181818;stroke-width:0.5;" width="88" x="110" y="514.5"/><text fill="#000000" font-family="sans-serif" font-size="14" lengthAdjust="spacing" textLength="68" x="120" y="539.0332">Asignatura</text></g><!--entity Administrador--><g id="elem_Administrador"><ellipse cx="326" cy="14" fill="#F1F1F1" rx="8" ry="8" style="stroke:#181818;stroke-width:0.5;"/><path d="M326,22 L326,49 M313,30 L339,30 M326,49 L313,64 M326,49 L339,64 " fill="none" style="stroke:#181818;stroke-width:0.5;"/><text fill="#000000" font-family="sans-serif" font-size="14" lengthAdjust="spacing" textLength="87" x="282.5" y="80.0332">Administrador</text></g><!--entity SD_in--><g id="elem_SD_in"><rect fill="#CDEBA5" height="37.6094" rx="2.5" ry="2.5" style="stroke:#181818;stroke-width:0.5;" width="144" x="405" y="25.5"/><text fill="#000000" font-family="sans-serif" font-size="14" lengthAdjust="spacing" textLength="124" x="415" y="50.0332">:Sistema Disponible</text></g><!--entity SD_out--><g id="elem_SD_out"><rect fill="#CDEBA5" height="37.6094" rx="2.5" ry="2.5" style="stroke:#181818;stroke-width:0.5;" width="144" x="493" y="299.5"/><text fill="#000000" font-family="sans-serif" font-size="14" lengthAdjust="spacing" textLength="124" x="503" y="324.0332">:Sistema Disponible</text></g><!--entity ColCrear--><g id="elem_ColCrear"><rect fill="#CDEBA5" height="37.6094" rx="2.5" ry="2.5" style="stroke:#181818;stroke-width:0.5;" width="216" x="672" y="299.5"/><text fill="#000000" font-family="sans-serif" font-size="14" lengthAdjust="spacing" textLength="196" x="682" y="324.0332">:Collaboration CrearAsignatura</text></g><!--entity ColEditar--><g id="elem_ColEditar"><rect fill="#CDEBA5" height="37.6094" rx="2.5" ry="2.5" style="stroke:#181818;stroke-width:0.5;" width="217" x="923.5" y="299.5"/><text fill="#000000" font-family="sans-serif" font-size="14" lengthAdjust="spacing" textLength="197" x="933.5" y="324.0332">:Collaboration EditarAsignatura</text></g><!--entity ColEliminar--><g id="elem_ColEliminar"><rect fill="#CDEBA5" height="37.6094" rx="2.5" ry="2.5" style="stroke:#181818;stroke-width:0.5;" width="230" x="1176" y="299.5"/><text fill="#000000" font-family="sans-serif" font-size="14" lengthAdjust="spacing" textLength="210" x="1186" y="324.0332">:Collaboration EliminarAsignatura</text></g><!--link SD_in to VistaAsignatura--><g id="link_SD_in_VistaAsignatura"><path d="M468.73,63.74 C457.28,88.98 438,131.5 438,131.5 C438,131.5 424.2933,157.4252 413.3333,178.1652 " fill="none" id="SD_in-to-VistaAsignatura" style="stroke:#181818;stroke-width:1.0;"/><polygon fill="#181818" points="410.53,183.47,418.2716,177.3816,412.8661,179.0493,411.1984,173.6439,410.53,183.47" style="stroke:#181818;stroke-width:1.0;"/><text fill="#000000" font-family="sans-serif" font-size="13" lengthAdjust="spacing" textLength="102" x="446" y="127.9951">abrirAsignaturas()</text></g><!--link VistaAsignatura to ControladorAsignatura--><g id="link_VistaAsignatura_ControladorAsignatura"><path d="M341.35,211.75 C242.14,225.48 54,251.5 54,251.5 C54,251.5 54,269.5 54,269.5 C54,269.5 82.6907,283.274 111.0707,296.894 " fill="none" id="VistaAsignatura-to-ControladorAsignatura" style="stroke:#181818;stroke-width:1.0;"/><polygon fill="#181818" points="116.48,299.49,110.0967,291.9898,111.9722,297.3267,106.6353,299.2022,116.48,299.49" style="stroke:#181818;stroke-width:1.0;"/><text fill="#000000" font-family="sans-serif" font-size="13" lengthAdjust="spacing" textLength="105" x="55" y="265.9951">listarAsignaturas()</text></g><!--link VistaAsignatura to ControladorAsignatura--><g id="link_VistaAsignatura_ControladorAsignatura"><path d="M341.26,218.36 C284.57,232.46 208,251.5 208,251.5 C208,251.5 188.5372,275.2745 172.5572,294.8245 " fill="none" id="VistaAsignatura-to-ControladorAsignatura-1" style="stroke:#181818;stroke-width:1.0;"/><polygon fill="#181818" points="168.76,299.47,177.5529,295.0332,171.9244,295.5987,171.3588,289.9702,168.76,299.47" style="stroke:#181818;stroke-width:1.0;"/><text fill="#000000" font-family="sans-serif" font-size="13" lengthAdjust="spacing" textLength="255" x="209" y="265.9951">filtrarAsignaturas(criterio) : List&lt;Asignatura&gt;</text></g><!--link ControladorAsignatura to AsignaturaRepository--><g id="link_ControladorAsignatura_AsignaturaRepository"><path d="M154,337.56 C154,358.78 154,387.8 154,409.14 " fill="none" id="ControladorAsignatura-to-AsignaturaRepository" style="stroke:#181818;stroke-width:1.0;"/><polygon fill="#181818" points="154,415.14,158,406.14,154,410.14,150,406.14,154,415.14" style="stroke:#181818;stroke-width:1.0;"/><text fill="#000000" font-family="sans-serif" font-size="13" lengthAdjust="spacing" textLength="197" x="155" y="381.9951">obtenerTodas() : List&lt;Asignatura&gt;</text></g><!--link AsignaturaRepository to Asignatura--><g id="link_AsignaturaRepository_Asignatura"><path d="M154,453.74 C154,471.09 154,497.02 154,514.34 " fill="none" id="AsignaturaRepository-Asignatura" style="stroke:#181818;stroke-width:1.0;"/></g><!--link Administrador to VistaAsignatura--><g id="link_Administrador_VistaAsignatura"><path d="M339.78,83.72 C348.06,106.69 357,131.5 357,131.5 C357,131.5 373.4364,157.6506 386.4764,178.3906 " fill="none" id="Administrador-to-VistaAsignatura" style="stroke:#181818;stroke-width:1.0;"/><polygon fill="#181818" points="389.67,183.47,388.2658,173.7218,387.0086,179.2371,381.4933,177.9799,389.67,183.47" style="stroke:#181818;stroke-width:1.0;"/><text fill="#000000" font-family="sans-serif" font-size="13" lengthAdjust="spacing" textLength="75" x="358" y="127.9951">filtrar(criterio)</text></g><!--link VistaAsignatura to SD_out--><g id="link_VistaAsignatura_SD_out"><path d="M426.99,221.56 C457.6,242.85 503.2536,274.575 533.9336,295.905 " fill="none" id="VistaAsignatura-to-SD_out" style="stroke:#181818;stroke-width:1.0;stroke-dasharray:7.0,7.0;"/><polygon fill="#181818" points="538.86,299.33,533.7538,290.9082,534.7547,296.4758,529.1871,297.4767,538.86,299.33" style="stroke:#181818;stroke-width:1.0;"/><text fill="#000000" font-family="sans-serif" font-size="13" lengthAdjust="spacing" textLength="110" x="493" y="265.9951">completarGestion()</text></g><!--link VistaAsignatura to ColCrear--><g id="link_VistaAsignatura_ColCrear"><path d="M460.62,217.06 C523.01,231.26 612,251.5 612,251.5 C612,251.5 678.7658,277.7252 728.5058,297.2752 " fill="none" id="VistaAsignatura-to-ColCrear" style="stroke:#181818;stroke-width:1.0;stroke-dasharray:7.0,7.0;"/><polygon fill="#181818" points="734.09,299.47,727.177,292.455,729.4365,297.641,724.2506,299.9005,734.09,299.47" style="stroke:#181818;stroke-width:1.0;"/><text fill="#000000" font-family="sans-serif" font-size="13" lengthAdjust="spacing" textLength="99" x="658" y="265.9951">crearAsignatura()</text></g><!--link VistaAsignatura to ColEditar--><g id="link_VistaAsignatura_ColEditar"><path d="M460.86,211.37 C564.41,224.99 766,251.5 766,251.5 C766,251.5 874.7368,278.4744 953.4868,298.0244 " fill="none" id="VistaAsignatura-to-ColEditar" style="stroke:#181818;stroke-width:1.0;stroke-dasharray:7.0,7.0;"/><polygon fill="#181818" points="959.31,299.47,951.5389,293.4194,954.4573,298.2653,949.6114,301.1837,959.31,299.47" style="stroke:#181818;stroke-width:1.0;"/><text fill="#000000" font-family="sans-serif" font-size="13" lengthAdjust="spacing" textLength="102" x="838" y="265.9951">editarAsignatura()</text></g><!--link VistaAsignatura to ColEliminar--><g id="link_VistaAsignatura_ColEliminar"><path d="M460.69,208.73 C602.72,221.17 949,251.5 949,251.5 C949,251.5 1090.3988,278.7826 1191.6588,298.3326 " fill="none" id="VistaAsignatura-to-ColEliminar" style="stroke:#181818;stroke-width:1.0;stroke-dasharray:7.0,7.0;"/><polygon fill="#181818" points="1197.55,299.47,1189.4715,293.8364,1192.6407,298.5222,1187.9549,301.6914,1197.55,299.47" style="stroke:#181818;stroke-width:1.0;"/><text fill="#000000" font-family="sans-serif" font-size="13" lengthAdjust="spacing" textLength="115" x="1041" y="265.9951">eliminarAsignatura()</text></g><!--SRC=[bP8nRy8m48Lt_ufJkj0X3AYWWYgaD8GkdKhLjReaXfumTcGRLQZgVwyDAOHWMiWMt_kUV7xFB4bMg745vWDBzKbo0NCKXZEpdmYIt6ug3fKI6__361PMQKZA5KaoLZjICyqBYt8XEDoaa-mnwKCqchafNo5Co5HAKYvu16XWDdadoLY5nH8N72BCDUd4q4AYNMiqdTi8lXYuhs4ww0spwH3Ud2KUj6rLti_BmJsaIbgjXB_OUUsqbwHt6Hm4BxnIXjngct-bx9jTkR5Qso2HAY4mLnejAGcfvjYuyXPsYktn1NXMaWtnk_DB30IvK8CMzOInRNmGn-Ds6322qoXPM-J1O3uE5rxRuiDQxn9Apfcet7B9zQigFUyEdfthmq4yPa4mZflv7fNxpB9p4cwkEuKcopMfwtQjwUQoUwFGfK_CkzrnNImdBzIg4jmztXCtFid0mtlzRvSySLoryy2kF8xWhNRzWTHbyT19enps0m00]--></g></svg>