<?xml version="1.0" encoding="us-ascii" standalone="no"?><svg xmlns="http://www.w3.org/2000/svg" xmlns:xlink="http://www.w3.org/1999/xlink" contentStyleType="text/css" height="575px" preserveAspectRatio="none" style="width:797px;height:575px;background:#FFFFFF;" version="1.1" viewBox="0 0 797 575" width="797px" zoomAndPan="magnify"><defs/><g><!--cluster asignarAulaAsignatura()--><g id="cluster_asignarAulaAsignatura()"><path d="M8.5,147.5 L176.5,147.5 A3.75,3.75 0 0 1 179,150 L186,171.1094 L514.5,171.1094 A2.5,2.5 0 0 1 517,173.6094 L517,566 A2.5,2.5 0 0 1 514.5,568.5 L8.5,568.5 A2.5,2.5 0 0 1 6,566 L6,150 A2.5,2.5 0 0 1 8.5,147.5 " fill="none" style="stroke:#000000;stroke-width:1.5;"/><line style="stroke:#000000;stroke-width:1.5;" x1="6" x2="186" y1="171.1094" y2="171.1094"/><text fill="#000000" font-family="sans-serif" font-size="14" font-weight="bold" lengthAdjust="spacing" textLength="167" x="10" y="164.0332">asignarAulaAsignatura()</text></g><!--entity VistaAsignaciones--><g id="elem_VistaAsignaciones"><rect fill="#629EF9" height="37.6094" rx="2.5" ry="2.5" style="stroke:#181818;stroke-width:0.5;" width="135" x="121.5" y="183.5"/><text fill="#000000" font-family="sans-serif" font-size="14" lengthAdjust="spacing" textLength="115" x="131.5" y="208.0332">VistaAsignaciones</text></g><!--entity ControladorAsignaciones--><g id="elem_ControladorAsignaciones"><rect fill="#B5BD68" height="37.6094" rx="2.5" ry="2.5" style="stroke:#181818;stroke-width:0.5;" width="179" x="99.5" y="299.5"/><text fill="#000000" font-family="sans-serif" font-size="14" lengthAdjust="spacing" textLength="159" x="109.5" y="324.0332">ControladorAsignaciones</text></g><!--entity AulaRepository--><g id="elem_AulaRepository"><rect fill="#F2AC4E" height="37.6094" rx="2.5" ry="2.5" style="stroke:#181818;stroke-width:0.5;" width="116" x="22" y="415.5"/><text fill="#000000" font-family="sans-serif" font-size="14" lengthAdjust="spacing" textLength="96" x="32" y="440.0332">AulaRepository</text></g><!--entity AsignaturaRepository--><g id="elem_AsignaturaRepository"><rect fill="#F2AC4E" height="37.6094" rx="2.5" ry="2.5" style="stroke:#181818;stroke-width:0.5;" width="156" x="173" y="415.5"/><text fill="#000000" font-family="sans-serif" font-size="14" lengthAdjust="spacing" textLength="136" x="183" y="440.0332">AsignaturaRepository</text></g><!--entity Aula--><g id="elem_Aula"><rect fill="#F2AC4E" height="37.6094" rx="2.5" ry="2.5" style="stroke:#181818;stroke-width:0.5;" width="48" x="56" y="514.5"/><text fill="#000000" font-family="sans-serif" font-size="14" lengthAdjust="spacing" textLength="28" x="66" y="539.0332">Aula</text></g><!--entity Asignatura--><g id="elem_Asignatura"><rect fill="#F2AC4E" height="37.6094" rx="2.5" ry="2.5" style="stroke:#181818;stroke-width:0.5;" width="88" x="281" y="514.5"/><text fill="#000000" font-family="sans-serif" font-size="14" lengthAdjust="spacing" textLength="68" x="291" y="539.0332">Asignatura</text></g><!--entity Administrador--><g id="elem_Administrador"><ellipse cx="85" cy="14" fill="#F1F1F1" rx="8" ry="8" style="stroke:#181818;stroke-width:0.5;"/><path d="M85,22 L85,49 M72,30 L98,30 M85,49 L72,64 M85,49 L98,64 " fill="none" style="stroke:#181818;stroke-width:0.5;"/><text fill="#000000" font-family="sans-serif" font-size="14" lengthAdjust="spacing" textLength="87" x="41.5" y="80.0332">Administrador</text></g><!--entity ColGestion--><g id="elem_ColGestion"><rect fill="#CDEBA5" height="37.6094" rx="2.5" ry="2.5" style="stroke:#181818;stroke-width:0.5;" width="258" x="164" y="25.5"/><text fill="#000000" font-family="sans-serif" font-size="14" lengthAdjust="spacing" textLength="238" x="174" y="50.0332">:Collaboration GestionarAsignaciones</text></g><!--entity ColGestion2--><g id="elem_ColGestion2"><rect fill="#CDEBA5" height="37.6094" rx="2.5" ry="2.5" style="stroke:#181818;stroke-width:0.5;" width="258" x="533" y="299.5"/><text fill="#000000" font-family="sans-serif" font-size="14" lengthAdjust="spacing" textLength="238" x="543" y="324.0332">:Collaboration GestionarAsignaciones</text></g><!--link ColGestion to VistaAsignaciones--><g id="link_ColGestion_VistaAsignaciones"><path d="M284.73,63.74 C273.28,88.98 254,131.5 254,131.5 C254,131.5 229.0829,158.3334 209.8229,179.0734 " fill="none" id="ColGestion-to-VistaAsignaciones" style="stroke:#181818;stroke-width:1.0;"/><polygon fill="#181818" points="205.74,183.47,214.7954,179.597,209.1424,179.8062,208.9332,174.1532,205.74,183.47" style="stroke:#181818;stroke-width:1.0;"/><text fill="#000000" font-family="sans-serif" font-size="13" lengthAdjust="spacing" textLength="176" x="263" y="127.9951">asignarAula(codigoAsignatura)</text></g><!--link VistaAsignaciones to ControladorAsignaciones--><g id="link_VistaAsignaciones_ControladorAsignaciones"><path d="M140.6,221.51 C103.99,235.13 60,251.5 60,251.5 C60,251.5 60,269.5 60,269.5 C60,269.5 98.3666,283.7779 134.9766,297.3979 " fill="none" id="VistaAsignaciones-to-ControladorAsignaciones" style="stroke:#181818;stroke-width:1.0;"/><polygon fill="#181818" points="140.6,299.49,133.5596,292.6029,135.9138,297.7466,130.7701,300.1008,140.6,299.49" style="stroke:#181818;stroke-width:1.0;"/><text fill="#000000" font-family="sans-serif" font-size="13" lengthAdjust="spacing" textLength="84" x="61" y="265.9951">obtenerAulas()</text></g><!--link VistaAsignaciones to ControladorAsignaciones--><g id="link_VistaAsignaciones_ControladorAsignaciones"><path d="M189,221.56 C189,242.78 189,271.8 189,293.14 " fill="none" id="VistaAsignaciones-to-ControladorAsignaciones-1" style="stroke:#181818;stroke-width:1.0;"/><polygon fill="#181818" points="189,299.14,193,290.14,189,294.14,185,290.14,189,299.14" style="stroke:#181818;stroke-width:1.0;"/><text fill="#000000" font-family="sans-serif" font-size="13" lengthAdjust="spacing" textLength="310" x="190" y="265.9951">asignarAulaAsignatura(codigoAsignatura, codigoAula)</text></g><!--link ControladorAsignaciones to AulaRepository--><g id="link_ControladorAsignaciones_AulaRepository"><path d="M140.6,337.51 C103.99,351.13 60,367.5 60,367.5 C60,367.5 60,385.5 60,385.5 C60,385.5 64.4732,396.2212 70.1332,409.8112 " fill="none" id="ControladorAsignaciones-to-AulaRepository" style="stroke:#181818;stroke-width:1.0;"/><polygon fill="#181818" points="72.44,415.35,72.6723,405.5039,70.5176,410.7343,65.2872,408.5796,72.44,415.35" style="stroke:#181818;stroke-width:1.0;"/><text fill="#000000" font-family="sans-serif" font-size="13" lengthAdjust="spacing" textLength="161" x="61" y="381.9951">obtenerTodas() : List&lt;Aula&gt;</text></g><!--link AulaRepository to Aula--><g id="link_AulaRepository_Aula"><path d="M80,453.74 C80,471.09 80,497.02 80,514.34 " fill="none" id="AulaRepository-Aula" style="stroke:#181818;stroke-width:1.0;"/></g><!--link Administrador to VistaAsignaciones--><g id="link_Administrador_VistaAsignaciones"><path d="M82.18,83.87 C81.04,99.3 80,113.5 80,113.5 C80,113.5 80,131.5 80,131.5 C80,131.5 123.5812,159.4881 155.8812,180.2281 " fill="none" id="Administrador-to-VistaAsignaciones" style="stroke:#181818;stroke-width:1.0;"/><polygon fill="#181818" points="160.93,183.47,155.518,175.2413,156.7227,180.7685,151.1956,181.9731,160.93,183.47" style="stroke:#181818;stroke-width:1.0;"/><text fill="#000000" font-family="sans-serif" font-size="13" lengthAdjust="spacing" textLength="164" x="81" y="127.9951">seleccionarAula(codigoAula)</text></g><!--link ControladorAsignaciones to Asignatura--><g id="link_ControladorAsignaciones_Asignatura"><path d="M252.41,337.51 C300.36,351.13 358,367.5 358,367.5 C358,367.5 358,385.5 358,385.5 C358,385.5 347,453.5 347,453.5 C347,453.5 338.2097,485.06 331.7097,508.4 " fill="none" id="ControladorAsignaciones-to-Asignatura" style="stroke:#181818;stroke-width:1.0;"/><polygon fill="#181818" points="330.1,514.18,336.3679,506.5831,331.4414,509.3633,328.6612,504.4368,330.1,514.18" style="stroke:#181818;stroke-width:1.0;"/><text fill="#000000" font-family="sans-serif" font-size="13" lengthAdjust="spacing" textLength="100" x="354" y="439.9951">asignarAula(aula)</text></g><!--link ControladorAsignaciones to AsignaturaRepository--><g id="link_ControladorAsignaciones_AsignaturaRepository"><path d="M204.88,337.65 C216.77,351.24 231,367.5 231,367.5 C231,367.5 237.8711,390.1775 243.7911,409.7275 " fill="none" id="ControladorAsignaciones-to-AsignaturaRepository" style="stroke:#181818;stroke-width:1.0;"/><polygon fill="#181818" points="245.53,415.47,246.75,405.697,244.0809,410.6846,239.0933,408.0155,245.53,415.47" style="stroke:#181818;stroke-width:1.0;"/><text fill="#000000" font-family="sans-serif" font-size="13" lengthAdjust="spacing" textLength="111" x="238" y="381.9951">guardar(asignatura)</text></g><!--link AsignaturaRepository to Asignatura--><g id="link_AsignaturaRepository_Asignatura"><path d="M264.92,453.74 C278.15,471.09 297.93,497.02 311.14,514.34 " fill="none" id="AsignaturaRepository-Asignatura" style="stroke:#181818;stroke-width:1.0;"/></g><!--link VistaAsignaciones to ColGestion2--><g id="link_VistaAsignaciones_ColGestion2"><path d="M256.86,213.68 C350.8,227.77 509,251.5 509,251.5 C509,251.5 569.3811,277.5425 614.6811,297.0925 " fill="none" id="VistaAsignaciones-to-ColGestion2" style="stroke:#181818;stroke-width:1.0;stroke-dasharray:7.0,7.0;"/><polygon fill="#181818" points="620.19,299.47,613.5117,292.2312,615.5993,297.4888,610.3417,299.5764,620.19,299.47" style="stroke:#181818;stroke-width:1.0;"/><text fill="#000000" font-family="sans-serif" font-size="13" lengthAdjust="spacing" textLength="139" x="551" y="265.9951">asignacionCompletada()</text></g><!--SRC=[hLF1Ri8m3BtxAwpkKgIL0nfee0cfws2NdQPfTpVDkeYGL4dGXARz-nAOsb8e26cv9AdVUxPVNBiIgY93QxIVLEWleKhy86avs3eYXU9kMt6ijDo62m0nfmscnLeeOPtnJ0E6CqUgb1nligV5Oph6Q9PfAIdNXfpG2f-v3JkPr8fI4VDdRYCaYnxt5mIeYAsev1ZH3cNIZQGzmMqCnOC8lm7zQkMRZAQBvHJVVItKrkxYyd5UJEvzDkMCbg7gS-ZbACtk5XZol_9AM-5xtlQ1wW8lGxtUHHNuWNyoT0JGN319viSsuGnRNiTC5wBKJIq3E6O4dHuRlPhE7LTyfsRZ0VG1WyYXkmttJHU1wp-y-EGF0JQ73ZX9zcOUp65lYvPBpjZUhbQR_dXzWwT7islSBRPpd7MXvdJUWgwW7jXORiWKP69gFUD9Q32n6RjZ8uR3UNkQwlf2EDFhId97XVyjuHS0]--></g></svg>