<svg xmlns="http://www.w3.org/2000/svg" xmlns:xlink="http://www.w3.org/1999/xlink" contentStyleType="text/css" data-diagram-type="DESCRIPTION" height="322px" preserveAspectRatio="none" style="width:643px;height:322px;background:#FFFFFF;" version="1.1" viewBox="0 0 643 322" width="643px" zoomAndPan="magnify"><defs/><g><!--cluster Sistema--><g class="cluster" data-entity="Sistema" data-source-line="6" data-uid="ent0003" id="cluster_Sistema"><rect fill="none" height="309" rx="2.5" ry="2.5" style="stroke:#181818;stroke-width:1;" width="529.65" x="107.5" y="7"/><text fill="#000000" font-family="sans-serif" font-size="14" font-weight="bold" lengthAdjust="spacing" textLength="63.4375" x="340.6063" y="21.9951">Sistema</text></g><!--entity CU1--><g class="entity" data-entity="CU1" data-source-line="7" data-uid="ent0004" id="entity_CU1"><ellipse cx="199.175" cy="85.0036" fill="#F1F1F1" rx="58.385" ry="14.5236" style="stroke:#181818;stroke-width:0.5;"/><text fill="#000000" font-family="sans-serif" font-size="14" lengthAdjust="spacing" textLength="78.3262" x="160.0119" y="89.6521">Ver Grados</text></g><!--entity CU2--><g class="entity" data-entity="CU2" data-source-line="8" data-uid="ent0005" id="entity_CU2"><ellipse cx="510.5034" cy="57.0036" fill="#F1F1F1" rx="59.5934" ry="14.5236" style="stroke:#181818;stroke-width:0.5;"/><text fill="#000000" font-family="sans-serif" font-size="14" lengthAdjust="spacing" textLength="80.0352" x="470.4858" y="61.6521">Ver Horario</text></g><!--entity CU3--><g class="entity" data-entity="CU3" data-source-line="9" data-uid="ent0006" id="entity_CU3"><ellipse cx="510.4956" cy="279.0011" fill="#F1F1F1" rx="90.7556" ry="20.5511" style="stroke:#181818;stroke-width:0.5;"/><text fill="#000000" font-family="sans-serif" font-size="14" lengthAdjust="spacing" textLength="155.4492" x="432.771" y="283.6496">Gestionar Asignaturas</text></g><!--entity CU4--><g class="entity" data-entity="CU4" data-source-line="10" data-uid="ent0007" id="entity_CU4"><ellipse cx="510.4984" cy="198.9997" fill="#F1F1F1" rx="110.6484" ry="24.5297" style="stroke:#181818;stroke-width:0.5;"/><text fill="#000000" font-family="sans-serif" font-size="14" lengthAdjust="spacing" textLength="199.2813" x="410.8578" y="203.6481">Detectar y Alertar Conflictos</text></g><!--entity CU5--><g class="entity" data-entity="CU5" data-source-line="11" data-uid="ent0008" id="entity_CU5"><ellipse cx="199.1745" cy="175.0049" fill="#F1F1F1" rx="75.6745" ry="17.5349" style="stroke:#181818;stroke-width:0.5;"/><text fill="#000000" font-family="sans-serif" font-size="14" lengthAdjust="spacing" textLength="120.3604" x="138.9943" y="179.6533">Modificar Horario</text></g><!--entity CU6--><g class="entity" data-entity="CU6" data-source-line="12" data-uid="ent0009" id="entity_CU6"><ellipse cx="510.4966" cy="123.0013" fill="#F1F1F1" rx="72.8066" ry="16.9613" style="stroke:#181818;stroke-width:0.5;"/><text fill="#000000" font-family="sans-serif" font-size="14" lengthAdjust="spacing" textLength="113.3672" x="453.813" y="127.6497">Guardar Horario</text></g><!--entity Usuario--><g class="entity" data-entity="Usuario" data-source-line="4" data-uid="ent0002" id="entity_Usuario"><ellipse cx="33" cy="108.85" fill="#F1F1F1" rx="16" ry="16" style="stroke:#181818;stroke-width:0.5;"/><path d="M33,128.85 C37,128.85 40,128.85 44,124.85 C52,124.85 60,132.85 60,140.85 L60,144.85 C60,148.85 56,152.85 52,152.85 L14,152.85 C10,152.85 6,148.85 6,144.85 L6,140.85 C6,132.85 14,124.85 22,124.85 C26,128.85 29,128.85 33,128.85" fill="#F1F1F1" style="stroke:#181818;stroke-width:0.5;"/><text fill="#000000" font-family="sans-serif" font-size="14" lengthAdjust="spacing" textLength="53.2041" x="6.3979" y="166.3451">Usuario</text></g><!--link Usuario to CU1--><g class="link" data-entity-1="Usuario" data-entity-2="CU1" data-source-line="15" data-uid="lnk10" id="link_Usuario_CU1"><path d="M60.74,123.51 C87.46,116.02 123.0327,106.0594 153.3927,97.5494" fill="none" id="Usuario-to-CU1" style="stroke:#181818;stroke-width:1;"/><polygon fill="#181818" points="159.17,95.93,149.4244,94.5076,154.3556,97.2795,151.5836,102.2107,159.17,95.93" style="stroke:#181818;stroke-width:1;"/></g><!--link Usuario to CU5--><g class="link" data-entity-1="Usuario" data-entity-2="CU5" data-source-line="16" data-uid="lnk11" id="link_Usuario_CU5"><path d="M60.74,138.17 C84.37,144.5 113.6446,152.3465 142.4446,160.0665" fill="none" id="Usuario-to-CU5" style="stroke:#181818;stroke-width:1;"/><polygon fill="#181818" points="148.24,161.62,140.5826,155.4262,143.4105,160.3254,138.5112,163.1534,148.24,161.62" style="stroke:#181818;stroke-width:1;"/></g><!--link CU1 to CU2--><g class="link" data-entity-1="CU1" data-entity-2="CU2" data-source-line="18" data-uid="lnk12" id="link_CU1_CU2"><path d="M254.76,80.06 C310.78,74.99 391.5245,67.6815 447.9145,62.5715" fill="none" id="CU1-to-CU2" style="stroke:#181818;stroke-width:1;stroke-dasharray:7.0,7.0;"/><polygon fill="#181818" points="453.89,62.03,444.5657,58.8586,448.9104,62.4812,445.2877,66.8259,453.89,62.03" style="stroke:#181818;stroke-width:1;"/><text fill="#000000" font-family="sans-serif" font-size="13" lengthAdjust="spacing" textLength="63.0068" x="305.85" y="67.0669">«include»</text></g><!--link CU5 to CU3--><g class="link" data-entity-1="CU5" data-entity-2="CU3" data-source-line="19" data-uid="lnk13" id="link_CU5_CU3"><path d="M235.16,190.87 C255.31,199.72 281.26,210.61 304.85,219 C352.99,236.11 402.9112,250.6322 444.0412,261.8422" fill="none" id="CU5-to-CU3" style="stroke:#181818;stroke-width:1;stroke-dasharray:7.0,7.0;"/><polygon fill="#181818" points="449.83,263.42,442.1986,257.1941,445.006,262.1052,440.0949,264.9126,449.83,263.42" style="stroke:#181818;stroke-width:1;"/><text fill="#000000" font-family="sans-serif" font-size="13" lengthAdjust="spacing" textLength="63.0068" x="305.85" y="215.0669">«include»</text></g><!--link CU5 to CU6--><g class="link" data-entity-1="CU5" data-entity-2="CU6" data-source-line="20" data-uid="lnk14" id="link_CU5_CU6"><path d="M261.29,164.73 C316.13,155.51 390.2031,143.0551 444.4331,133.9351" fill="none" id="CU5-to-CU6" style="stroke:#181818;stroke-width:1;stroke-dasharray:7.0,7.0;"/><polygon fill="#181818" points="450.35,132.94,440.8113,130.488,445.4192,133.7692,442.138,138.3772,450.35,132.94" style="stroke:#181818;stroke-width:1;"/><text fill="#000000" font-family="sans-serif" font-size="13" lengthAdjust="spacing" textLength="63.0068" x="305.85" y="144.0669">«include»</text></g><!--link CU5 to CU4--><g class="link" data-entity-1="CU5" data-entity-2="CU4" data-source-line="21" data-uid="lnk15" id="link_CU5_CU4"><path d="M264.01,184.41 C277.48,186.15 291.61,187.79 304.85,189 C335.93,191.83 363.7569,193.6122 394.7869,195.1022" fill="none" id="CU5-to-CU4" style="stroke:#181818;stroke-width:1;stroke-dasharray:7.0,7.0;"/><polygon fill="#181818" points="400.78,195.39,391.9822,190.9629,395.7858,195.1502,391.5985,198.9537,400.78,195.39" style="stroke:#181818;stroke-width:1;"/><text fill="#000000" font-family="sans-serif" font-size="13" lengthAdjust="spacing" textLength="61.1851" x="306.85" y="185.0669">«extend»</text></g><!--SRC=[TL1DQyCm3BthLuZSM-X7UXWbK3BeBZkLx2vY9HLrx24xR6Nilyy9wI0jzKdI- -0zXukuJrBgaEhezHIlbf6-EFYEmN8JCNfKQSyHZIZNKRm36BcOLQ4d5PyX1PncW854haqs9mcHEy8VmFJwm3K5nko35OzAneTHM5QhH_pDwxzpMQtdX2E78GOf7eAqZcAlTFFQpAcl78SuYbSyMDPXAhrhhAG2DybsBddtHXgfwJv4VXSYrJKFf1ty0anVWOj5CRQRxpb0Ek9oEInhVC7zNbnjUyD5aP1yGZPFaTrJP3iY_1tPcQBu0m00]--></g></svg>