<svg xmlns="http://www.w3.org/2000/svg" xmlns:xlink="http://www.w3.org/1999/xlink" contentStyleType="text/css" data-diagram-type="DESCRIPTION" height="520px" preserveAspectRatio="none" style="width:1747px;height:520px;background:#FFFFFF;" version="1.1" viewBox="0 0 1747 520" width="1747px" zoomAndPan="magnify"><?plantuml 1.2026.4beta2?><defs/><g><!--cluster Sistema Constructor de Horario--><g class="cluster" data-qualified-name="Sistema Constructor de Horario" data-source-line="7" id="ent0003"><rect fill="none" height="376.27" rx="2.5" ry="2.5" style="stroke:#181818;stroke-width:1;" width="1726" x="7" y="129.8"/><text fill="#000000" font-family="sans-serif" font-size="14" font-weight="700" lengthAdjust="spacing" textLength="249.8535" x="745.0732" y="144.7951">Sistema Constructor de Horario</text></g><!--cluster Asignaturas--><g class="cluster" data-qualified-name="Sistema Constructor de Horario.Asignaturas" data-source-line="9" id="ent0004"><rect fill="none" height="309.27" rx="2.5" ry="2.5" style="stroke:#181818;stroke-width:1;" width="586" x="31" y="172.8"/><text fill="#000000" font-family="sans-serif" font-size="14" font-weight="700" lengthAdjust="spacing" textLength="94.7461" x="276.627" y="187.7951">Asignaturas</text></g><!--cluster Profesores--><g class="cluster" data-qualified-name="Sistema Constructor de Horario.Profesores" data-source-line="23" id="ent0015"><rect fill="none" height="308.5" rx="2.5" ry="2.5" style="stroke:#181818;stroke-width:1;" width="540" x="641" y="173.57"/><text fill="#000000" font-family="sans-serif" font-size="14" font-weight="700" lengthAdjust="spacing" textLength="85.0527" x="868.4736" y="188.5651">Profesores</text></g><!--cluster Grados--><g class="cluster" data-qualified-name="Sistema Constructor de Horario.Grados" data-source-line="37" id="ent0026"><rect fill="none" height="306.61" rx="2.5" ry="2.5" style="stroke:#181818;stroke-width:1;" width="504" x="1205" y="175.46"/><text fill="#000000" font-family="sans-serif" font-size="14" font-weight="700" lengthAdjust="spacing" textLength="55.8154" x="1429.0923" y="190.4551">Grados</text></g><!--entity abr_asig--><g class="entity" data-qualified-name="Sistema Constructor de Horario.Asignaturas.abr_asig" data-source-line="10" id="ent0005"><ellipse cx="414.9968" cy="225.8794" fill="#F1F1F1" rx="78.3968" ry="18.0794" style="stroke:#181818;stroke-width:0.5;"/><text fill="#000000" font-family="sans-serif" font-size="14" lengthAdjust="spacing" textLength="126.8818" x="351.5559" y="230.5278">abrirAsignaturas()</text></g><!--entity cr_asig--><g class="entity" data-qualified-name="Sistema Constructor de Horario.Asignaturas.cr_asig" data-source-line="11" id="ent0006"><ellipse cx="124.002" cy="340.4944" fill="#F1F1F1" rx="76.822" ry="17.7644" style="stroke:#181818;stroke-width:0.5;"/><text fill="#000000" font-family="sans-serif" font-size="14" lengthAdjust="spacing" textLength="123.1221" x="62.441" y="345.1428">crearAsignatura()</text></g><!--entity edt_asig--><g class="entity" data-qualified-name="Sistema Constructor de Horario.Asignaturas.edt_asig" data-source-line="12" id="ent0007"><ellipse cx="315.0002" cy="340.488" fill="#F1F1F1" rx="78.8402" ry="18.168" style="stroke:#181818;stroke-width:0.5;"/><text fill="#000000" font-family="sans-serif" font-size="14" lengthAdjust="spacing" textLength="127.9346" x="251.0329" y="345.1365">editarAsignatura()</text></g><!--entity elm_asig--><g class="entity" data-qualified-name="Sistema Constructor de Horario.Asignaturas.elm_asig" data-source-line="13" id="ent0008"><ellipse cx="515.0022" cy="340.4924" fill="#F1F1F1" rx="85.6622" ry="19.5324" style="stroke:#181818;stroke-width:0.5;"/><text fill="#000000" font-family="sans-serif" font-size="14" lengthAdjust="spacing" textLength="143.8486" x="443.0778" y="345.1409">eliminarAsignatura()</text></g><!--entity guardar_asig--><g class="entity" data-qualified-name="Sistema Constructor de Horario.Asignaturas.guardar_asig" data-source-line="14" id="ent0009"><ellipse cx="196.9989" cy="451.5536" fill="#F1F1F1" rx="49.8389" ry="14.5236" style="stroke:#181818;stroke-width:0.5;"/><text fill="#000000" font-family="sans-serif" font-size="14" lengthAdjust="spacing" textLength="66.2402" x="163.8788" y="456.2021">guardar()</text></g><!--entity abr_prof--><g class="entity" data-qualified-name="Sistema Constructor de Horario.Profesores.abr_prof" data-source-line="24" id="ent0016"><ellipse cx="903.0036" cy="225.8787" fill="#F1F1F1" rx="74.5436" ry="17.3087" style="stroke:#181818;stroke-width:0.5;"/><text fill="#000000" font-family="sans-serif" font-size="14" lengthAdjust="spacing" textLength="117.6191" x="844.1941" y="230.5272">abrirProfesores()</text></g><!--entity cr_prof--><g class="entity" data-qualified-name="Sistema Constructor de Horario.Profesores.cr_prof" data-source-line="25" id="ent0017"><ellipse cx="727.0016" cy="340.4903" fill="#F1F1F1" rx="69.5516" ry="16.3103" style="stroke:#181818;stroke-width:0.5;"/><text fill="#000000" font-family="sans-serif" font-size="14" lengthAdjust="spacing" textLength="105.2461" x="674.3785" y="345.1388">crearProfesor()</text></g><!--entity edt_prof--><g class="entity" data-qualified-name="Sistema Constructor de Horario.Profesores.edt_prof" data-source-line="26" id="ent0018"><ellipse cx="903.0001" cy="340.494" fill="#F1F1F1" rx="71.4701" ry="16.694" style="stroke:#181818;stroke-width:0.5;"/><text fill="#000000" font-family="sans-serif" font-size="14" lengthAdjust="spacing" textLength="110.0586" x="847.9708" y="345.1424">editarProfesor()</text></g><!--entity elm_prof--><g class="entity" data-qualified-name="Sistema Constructor de Horario.Profesores.elm_prof" data-source-line="27" id="ent0019"><ellipse cx="1087.0047" cy="340.4929" fill="#F1F1F1" rx="78.0147" ry="18.0029" style="stroke:#181818;stroke-width:0.5;"/><text fill="#000000" font-family="sans-serif" font-size="14" lengthAdjust="spacing" textLength="125.9727" x="1024.0184" y="345.1414">eliminarProfesor()</text></g><!--entity guardar_prof--><g class="entity" data-qualified-name="Sistema Constructor de Horario.Profesores.guardar_prof" data-source-line="28" id="ent0020"><ellipse cx="796.9989" cy="451.5536" fill="#F1F1F1" rx="49.8389" ry="14.5236" style="stroke:#181818;stroke-width:0.5;"/><text fill="#000000" font-family="sans-serif" font-size="14" lengthAdjust="spacing" textLength="66.2402" x="763.8788" y="456.2021">guardar()</text></g><!--entity abr_grados--><g class="entity" data-qualified-name="Sistema Constructor de Horario.Grados.abr_grados" data-source-line="38" id="ent0027"><ellipse cx="1337.9952" cy="225.879" fill="#F1F1F1" rx="65.0952" ry="15.419" style="stroke:#181818;stroke-width:0.5;"/><text fill="#000000" font-family="sans-serif" font-size="14" lengthAdjust="spacing" textLength="93.7207" x="1291.1349" y="230.5275">abrirGrados()</text></g><!--entity cr_grados--><g class="entity" data-qualified-name="Sistema Constructor de Horario.Grados.cr_grados" data-source-line="39" id="ent0028"><ellipse cx="1284.9991" cy="340.4878" fill="#F1F1F1" rx="63.6891" ry="15.1378" style="stroke:#181818;stroke-width:0.5;"/><text fill="#000000" font-family="sans-serif" font-size="14" lengthAdjust="spacing" textLength="89.9609" x="1240.0186" y="345.1363">crearGrado()</text></g><!--entity edt_grados--><g class="entity" data-qualified-name="Sistema Constructor de Horario.Grados.edt_grados" data-source-line="40" id="ent0029"><ellipse cx="1449.0034" cy="340.4887" fill="#F1F1F1" rx="65.4934" ry="15.4987" style="stroke:#181818;stroke-width:0.5;"/><text fill="#000000" font-family="sans-serif" font-size="14" lengthAdjust="spacing" textLength="94.7734" x="1401.6167" y="345.1371">editarGrado()</text></g><!--entity elm_grados--><g class="entity" data-qualified-name="Sistema Constructor de Horario.Grados.elm_grados" data-source-line="41" id="ent0030"><ellipse cx="1621.003" cy="340.4946" fill="#F1F1F1" rx="71.723" ry="16.7446" style="stroke:#181818;stroke-width:0.5;"/><text fill="#000000" font-family="sans-serif" font-size="14" lengthAdjust="spacing" textLength="110.6875" x="1565.6593" y="345.143">eliminarGrado()</text></g><!--entity guardar_grado--><g class="entity" data-qualified-name="Sistema Constructor de Horario.Grados.guardar_grado" data-source-line="42" id="ent0031"><ellipse cx="1351.9989" cy="451.5536" fill="#F1F1F1" rx="49.8389" ry="14.5236" style="stroke:#181818;stroke-width:0.5;"/><text fill="#000000" font-family="sans-serif" font-size="14" lengthAdjust="spacing" textLength="66.2402" x="1318.8788" y="456.2021">guardar()</text></g><!--entity admin--><g class="entity" data-qualified-name="admin" data-source-line="5" id="ent0002"><ellipse cx="903" cy="22" fill="#F1F1F1" rx="16" ry="16" style="stroke:#181818;stroke-width:0.5;"/><path d="M903,42 C907,42 910,42 914,38 C922,38 930,46 930,54 L930,58 C930,62 926,66 922,66 L884,66 C880,66 876,62 876,58 L876,54 C876,46 884,38 892,38 C896,42 899,42 903,42" fill="#F1F1F1" style="stroke:#181818;stroke-width:0.5;"/><text fill="#000000" font-family="sans-serif" font-size="14" lengthAdjust="spacing" textLength="99.0801" x="853.46" y="79.4951">Administrador</text></g><!--link abr_asig to cr_asig--><g class="link" data-entity-1="ent0005" data-entity-2="ent0006" data-link-type="dependency" data-source-line="16" id="lnk10"><path d="M373.62,241.57 C348.25,250.68 315.15,262.75 286,273.96 C242.53,290.68 198.4958,308.6199 165.7558,322.1399" fill="none" id="abr_asig-to-cr_asig" style="stroke:#181818;stroke-width:1;stroke-dasharray:7,7;"/><polygon fill="#181818" points="160.21,324.43,170.0554,324.692,164.8315,322.5216,167.0019,317.2977,160.21,324.43" style="stroke:#181818;stroke-width:1;"/><text fill="#000000" font-family="sans-serif" font-size="13" lengthAdjust="spacing" textLength="63.0068" x="287" y="287.0269">&#171;include&#187;</text></g><!--link abr_asig to edt_asig--><g class="link" data-entity-1="ent0005" data-entity-2="ent0007" data-link-type="dependency" data-source-line="17" id="lnk11"><path d="M399.81,243.98 C381.02,265.15 353.1738,296.5034 334.3138,317.7434" fill="none" id="abr_asig-to-edt_asig" style="stroke:#181818;stroke-width:1;stroke-dasharray:7,7;"/><polygon fill="#181818" points="330.33,322.23,339.2968,318.1561,333.6499,318.4912,333.3147,312.8443,330.33,322.23" style="stroke:#181818;stroke-width:1;"/><text fill="#000000" font-family="sans-serif" font-size="13" lengthAdjust="spacing" textLength="63.0068" x="371" y="287.0269">&#171;include&#187;</text></g><!--link abr_asig to elm_asig--><g class="link" data-entity-1="ent0005" data-entity-2="ent0008" data-link-type="dependency" data-source-line="18" id="lnk12"><path d="M430.19,243.98 C448.66,264.78 475.7158,295.2538 494.6858,316.6138" fill="none" id="abr_asig-to-elm_asig" style="stroke:#181818;stroke-width:1;stroke-dasharray:7,7;"/><polygon fill="#181818" points="498.67,321.1,495.6845,311.7146,495.3498,317.3615,489.7029,317.0269,498.67,321.1" style="stroke:#181818;stroke-width:1;"/><text fill="#000000" font-family="sans-serif" font-size="13" lengthAdjust="spacing" textLength="63.0068" x="471" y="287.0269">&#171;include&#187;</text></g><!--link cr_asig to guardar_asig--><g class="link" data-entity-1="ent0006" data-entity-2="ent0009" data-link-type="dependency" data-source-line="19" id="lnk13"><path d="M135.41,358.53 C149.92,380.22 171.3602,412.2554 184.6402,432.0754" fill="none" id="cr_asig-to-guardar_asig" style="stroke:#181818;stroke-width:1;stroke-dasharray:7,7;"/><polygon fill="#181818" points="187.98,437.06,186.2933,427.3566,185.1968,432.9062,179.6473,431.8097,187.98,437.06" style="stroke:#181818;stroke-width:1;"/><text fill="#000000" font-family="sans-serif" font-size="13" lengthAdjust="spacing" textLength="63.0068" x="169" y="403.0869">&#171;include&#187;</text></g><!--link edt_asig to guardar_asig--><g class="link" data-entity-1="ent0007" data-entity-2="ent0009" data-link-type="dependency" data-source-line="20" id="lnk14"><path d="M296.56,358.53 C272.97,380.34 237.0064,413.5677 215.6364,433.3177" fill="none" id="edt_asig-to-guardar_asig" style="stroke:#181818;stroke-width:1;stroke-dasharray:7,7;"/><polygon fill="#181818" points="211.23,437.39,220.5544,434.2191,214.902,433.9964,215.1247,428.3439,211.23,437.39" style="stroke:#181818;stroke-width:1;"/><text fill="#000000" font-family="sans-serif" font-size="13" lengthAdjust="spacing" textLength="63.0068" x="260" y="403.0869">&#171;include&#187;</text></g><!--link abr_prof to cr_prof--><g class="link" data-entity-1="ent0016" data-entity-2="ent0017" data-link-type="dependency" data-source-line="30" id="lnk21"><path d="M878.53,242.54 C844.52,264.29 788.4847,300.1574 755.1947,321.4474" fill="none" id="abr_prof-to-cr_prof" style="stroke:#181818;stroke-width:1;stroke-dasharray:7,7;"/><polygon fill="#181818" points="750.14,324.68,759.8771,323.2008,754.3523,321.9861,755.567,316.4612,750.14,324.68" style="stroke:#181818;stroke-width:1;"/><text fill="#000000" font-family="sans-serif" font-size="13" lengthAdjust="spacing" textLength="63.0068" x="826" y="287.0269">&#171;include&#187;</text></g><!--link abr_prof to edt_prof--><g class="link" data-entity-1="ent0016" data-entity-2="ent0018" data-link-type="dependency" data-source-line="31" id="lnk22"><path d="M903,243.49 C903,265.03 903,296.33 903,317.54" fill="none" id="abr_prof-to-edt_prof" style="stroke:#181818;stroke-width:1;stroke-dasharray:7,7;"/><polygon fill="#181818" points="903,323.54,907,314.54,903,318.54,899,314.54,903,323.54" style="stroke:#181818;stroke-width:1;"/><text fill="#000000" font-family="sans-serif" font-size="13" lengthAdjust="spacing" textLength="63.0068" x="904" y="287.0269">&#171;include&#187;</text></g><!--link abr_prof to elm_prof--><g class="link" data-entity-1="ent0016" data-entity-2="ent0019" data-link-type="dependency" data-source-line="32" id="lnk23"><path d="M928.58,242.54 C963.34,263.81 1020.0624,298.5279 1055.3224,320.1079" fill="none" id="abr_prof-to-elm_prof" style="stroke:#181818;stroke-width:1;stroke-dasharray:7,7;"/><polygon fill="#181818" points="1060.44,323.24,1054.8517,315.1301,1056.1753,320.6299,1050.6755,321.9536,1060.44,323.24" style="stroke:#181818;stroke-width:1;"/><text fill="#000000" font-family="sans-serif" font-size="13" lengthAdjust="spacing" textLength="63.0068" x="1007" y="287.0269">&#171;include&#187;</text></g><!--link cr_prof to guardar_prof--><g class="link" data-entity-1="ent0017" data-entity-2="ent0020" data-link-type="dependency" data-source-line="33" id="lnk24"><path d="M737.03,357.12 C750.79,378.55 772.0602,411.6799 785.0702,431.9599" fill="none" id="cr_prof-to-guardar_prof" style="stroke:#181818;stroke-width:1;stroke-dasharray:7,7;"/><polygon fill="#181818" points="788.31,437.01,786.8171,427.2749,785.6102,432.8015,780.0836,431.5946,788.31,437.01" style="stroke:#181818;stroke-width:1;"/><text fill="#000000" font-family="sans-serif" font-size="13" lengthAdjust="spacing" textLength="63.0068" x="769" y="403.0869">&#171;include&#187;</text></g><!--link edt_prof to guardar_prof--><g class="link" data-entity-1="ent0018" data-entity-2="ent0020" data-link-type="dependency" data-source-line="34" id="lnk25"><path d="M888.36,357.25 C875.89,370.61 857.43,390.23 841,407.02 C830.93,417.32 823.6365,424.5617 814.8865,433.1317" fill="none" id="edt_prof-to-guardar_prof" style="stroke:#181818;stroke-width:1;stroke-dasharray:7,7;"/><polygon fill="#181818" points="810.6,437.33,819.8286,433.8902,814.1721,433.8314,814.2309,428.1748,810.6,437.33" style="stroke:#181818;stroke-width:1;"/><text fill="#000000" font-family="sans-serif" font-size="13" lengthAdjust="spacing" textLength="63.0068" x="857" y="403.0869">&#171;include&#187;</text></g><!--link abr_grados to cr_grados--><g class="link" data-entity-1="ent0027" data-entity-2="ent0028" data-link-type="dependency" data-source-line="44" id="lnk32"><path d="M1331.07,241.6 C1320.86,263.3 1304.4353,298.1913 1294.3153,319.6913" fill="none" id="abr_grados-to-cr_grados" style="stroke:#181818;stroke-width:1;stroke-dasharray:7,7;"/><polygon fill="#181818" points="1291.76,325.12,1299.212,318.6805,1293.8894,320.5961,1291.9738,315.2735,1291.76,325.12" style="stroke:#181818;stroke-width:1;"/><text fill="#000000" font-family="sans-serif" font-size="13" lengthAdjust="spacing" textLength="63.0068" x="1315" y="287.0269">&#171;include&#187;</text></g><!--link abr_grados to edt_grados--><g class="link" data-entity-1="ent0027" data-entity-2="ent0029" data-link-type="dependency" data-source-line="45" id="lnk33"><path d="M1353.19,241.12 C1362.96,250.36 1375.87,262.74 1387,273.96 C1404.1,291.19 1419.1396,307.1811 1431.5696,320.5811" fill="none" id="abr_grados-to-edt_grados" style="stroke:#181818;stroke-width:1;stroke-dasharray:7,7;"/><polygon fill="#181818" points="1435.65,324.98,1432.4619,315.6614,1432.2496,321.3143,1426.5968,321.102,1435.65,324.98" style="stroke:#181818;stroke-width:1;"/><text fill="#000000" font-family="sans-serif" font-size="13" lengthAdjust="spacing" textLength="63.0068" x="1403" y="287.0269">&#171;include&#187;</text></g><!--link abr_grados to elm_grados--><g class="link" data-entity-1="ent0027" data-entity-2="ent0030" data-link-type="dependency" data-source-line="46" id="lnk34"><path d="M1375.84,238.86 C1403.54,247.87 1441.9,260.88 1475,273.96 C1515.57,289.99 1555.8658,308.4451 1585.1558,322.2951" fill="none" id="abr_grados-to-elm_grados" style="stroke:#181818;stroke-width:1;stroke-dasharray:7,7;"/><polygon fill="#181818" points="1590.58,324.86,1584.1537,317.3966,1586.0599,322.7226,1580.7339,324.6288,1590.58,324.86" style="stroke:#181818;stroke-width:1;"/><text fill="#000000" font-family="sans-serif" font-size="13" lengthAdjust="spacing" textLength="63.0068" x="1516" y="287.0269">&#171;include&#187;</text></g><!--link cr_grados to guardar_grado--><g class="link" data-entity-1="ent0028" data-entity-2="ent0031" data-link-type="dependency" data-source-line="47" id="lnk35"><path d="M1293.76,355.75 C1306.74,376.88 1327.7784,411.1282 1340.5184,431.8582" fill="none" id="cr_grados-to-guardar_grado" style="stroke:#181818;stroke-width:1;stroke-dasharray:7,7;"/><polygon fill="#181818" points="1343.66,436.97,1342.3555,427.2079,1341.042,432.7102,1335.5398,431.3967,1343.66,436.97" style="stroke:#181818;stroke-width:1;"/><text fill="#000000" font-family="sans-serif" font-size="13" lengthAdjust="spacing" textLength="63.0068" x="1325" y="403.0869">&#171;include&#187;</text></g><!--link edt_grados to guardar_grado--><g class="link" data-entity-1="ent0029" data-entity-2="ent0031" data-link-type="dependency" data-source-line="48" id="lnk36"><path d="M1437.57,356.12 C1426.88,369.61 1410.31,390.06 1395,407.02 C1385.61,417.43 1378.7474,424.4724 1370.1574,432.9224" fill="none" id="edt_grados-to-guardar_grado" style="stroke:#181818;stroke-width:1;stroke-dasharray:7,7;"/><polygon fill="#181818" points="1365.88,437.13,1375.1011,433.6701,1369.4445,433.6236,1369.4909,427.967,1365.88,437.13" style="stroke:#181818;stroke-width:1;"/><text fill="#000000" font-family="sans-serif" font-size="13" lengthAdjust="spacing" textLength="63.0068" x="1409" y="403.0869">&#171;include&#187;</text></g><!--link admin to abr_asig--><g class="link" data-entity-1="ent0002" data-entity-2="ent0005" data-link-type="dependency" data-source-line="53" id="lnk37"><path d="M853.06,57.48 C799.82,71.15 713.4,94.86 641,121.8 C569.66,148.35 494.6321,184.5978 451.5721,206.2178" fill="none" id="admin-to-abr_asig" style="stroke:#181818;stroke-width:1;"/><polygon fill="#181818" points="446.21,208.91,456.0479,208.4463,450.6784,206.6665,452.4583,201.2969,446.21,208.91" style="stroke:#181818;stroke-width:1;"/></g><!--link admin to abr_prof--><g class="link" data-entity-1="ent0002" data-entity-2="ent0016" data-link-type="dependency" data-source-line="54" id="lnk38"><path d="M903,83.27 C903,122.01 903,174.22 903,202.41" fill="none" id="admin-to-abr_prof" style="stroke:#181818;stroke-width:1;"/><polygon fill="#181818" points="903,208.41,907,199.41,903,203.41,899,199.41,903,208.41" style="stroke:#181818;stroke-width:1;"/></g><!--link admin to abr_grados--><g class="link" data-entity-1="ent0002" data-entity-2="ent0027" data-link-type="dependency" data-source-line="55" id="lnk39"><path d="M952.82,54 C1009.73,65.21 1104.83,87.33 1181,121.8 C1235.66,146.54 1288.1336,185.2612 1315.9836,207.1612" fill="none" id="admin-to-abr_grados" style="stroke:#181818;stroke-width:1;"/><polygon fill="#181818" points="1320.7,210.87,1316.0979,202.1625,1316.7696,207.7793,1311.1528,208.4511,1320.7,210.87" style="stroke:#181818;stroke-width:1;"/></g><?plantuml-src bPLDReCm44RtFiM8LRj83b15I5KNxR9I3b1DZ4EjW8d6Hb5LvUurne0XDgAimFF6_ipZHr-akY9X3SXDGqVpKmd0cz1DBPWUYrVa5on5NoR13Qgo2W7zZKLpawg4CrPQCEQcW-orgAMIsf0jKmQe0RiHniP983lQkgWHtXfbmTOr5W8-6aAIJGQ_Z84zV0OxfvQbGjCIwgu8_cYruAXj7KyaAO2Udlk5J_I5TlInWPF0eC7pF8MBGfe8BmgJQgYatNEifQeJBMMBL21vpb_DsV5as1Ziz_cG6bxWS92ALsqXyZoE3e4tiJvfWkK16ePDuEFA6_ZxmludDMVxU99OaJynWVkh7Kou7_Z9V1pkpI_eRZC9t7jVDjXx6M-8Mv-nCprTPR3kpjCcHtI8kudrITFMHpGCks9zAx-q_jvzG5QCz_N0Tka64huTFSbEiRtk4EwsaAIzxHblRs2AZyjsTDnsFz7Wsr-bBGRu57iZFyPEcm_mMVOL-VzekJFx133thu2T_REeNJvzm1-7tIloEDml-0S0?></g></svg>