<svg xmlns="http://www.w3.org/2000/svg" xmlns:xlink="http://www.w3.org/1999/xlink" contentStyleType="text/css" data-diagram-type="STATE" height="853px" preserveAspectRatio="none" style="width:454px;height:853px;background:#FFFFFF;" version="1.1" viewBox="0 0 454 853" width="454px" zoomAndPan="magnify"><?plantuml 1.2026.3beta6?><defs/><g><g class="start_entity" data-qualified-name=".start." data-source-line="1" id="ent0002"><ellipse cx="222.54" cy="16" fill="#222222" rx="10" ry="10" style="stroke:#222222;stroke-width:1;"/></g><g class="entity" data-qualified-name="Creada" id="ent0003"><rect fill="#F1F1F1" height="50" rx="12.5" ry="12.5" style="stroke:#181818;stroke-width:0.5;" width="70.1895" x="187.44" y="87"/><line style="stroke:#181818;stroke-width:0.5;" x1="187.44" x2="257.6295" y1="113.2969" y2="113.2969"/><text fill="#000000" font-family="sans-serif" font-size="14" lengthAdjust="spacing" textLength="50.1895" x="197.44" y="104.9951">Creada</text></g><g class="entity" data-qualified-name="EnRevision" id="ent0005"><rect fill="#F1F1F1" height="50" rx="12.5" ry="12.5" style="stroke:#181818;stroke-width:0.5;" width="96.8564" x="174.11" y="214"/><line style="stroke:#181818;stroke-width:0.5;" x1="174.11" x2="270.9664" y1="240.2969" y2="240.2969"/><text fill="#000000" font-family="sans-serif" font-size="14" lengthAdjust="spacing" textLength="76.8564" x="184.11" y="231.9951">EnRevision</text></g><g class="entity" data-qualified-name="Validacion" id="ent0007"><rect fill="#F1F1F1" height="50" rx="12.5" ry="12.5" style="stroke:#181818;stroke-width:0.5;" width="92.4268" x="176.33" y="325"/><line style="stroke:#181818;stroke-width:0.5;" x1="176.33" x2="268.7568" y1="351.2969" y2="351.2969"/><text fill="#000000" font-family="sans-serif" font-size="14" lengthAdjust="spacing" textLength="72.4268" x="186.33" y="342.9951">Validacion</text></g><g class="entity" data-qualified-name="EnProceso" id="ent0009"><rect fill="#F1F1F1" height="50" rx="12.5" ry="12.5" style="stroke:#181818;stroke-width:0.5;" width="92.6523" x="109.21" y="452"/><line style="stroke:#181818;stroke-width:0.5;" x1="109.21" x2="201.8623" y1="478.2969" y2="478.2969"/><text fill="#000000" font-family="sans-serif" font-size="14" lengthAdjust="spacing" textLength="72.6523" x="119.21" y="469.9951">EnProceso</text></g><g class="entity" data-qualified-name="Rechazada" id="ent0011"><rect fill="#F1F1F1" height="50" rx="12.5" ry="12.5" style="stroke:#181818;stroke-width:0.5;" width="96.8838" x="138.1" y="706"/><line style="stroke:#181818;stroke-width:0.5;" x1="138.1" x2="234.9838" y1="732.2969" y2="732.2969"/><text fill="#000000" font-family="sans-serif" font-size="14" lengthAdjust="spacing" textLength="76.8838" x="148.1" y="723.9951">Rechazada</text></g><g class="entity" data-qualified-name="Resolucion" id="ent0013"><rect fill="#F1F1F1" height="50" rx="12.5" ry="12.5" style="stroke:#181818;stroke-width:0.5;" width="95.9883" x="107.55" y="579"/><line style="stroke:#181818;stroke-width:0.5;" x1="107.55" x2="203.5383" y1="605.2969" y2="605.2969"/><text fill="#000000" font-family="sans-serif" font-size="14" lengthAdjust="spacing" textLength="75.9883" x="117.55" y="596.9951">Resolucion</text></g><g class="entity" data-qualified-name="Resuelta" id="ent0015"><rect fill="#F1F1F1" height="50" rx="12.5" ry="12.5" style="stroke:#181818;stroke-width:0.5;" width="81.0791" x="7" y="706"/><line style="stroke:#181818;stroke-width:0.5;" x1="7" x2="88.0791" y1="732.2969" y2="732.2969"/><text fill="#000000" font-family="sans-serif" font-size="14" lengthAdjust="spacing" textLength="61.0791" x="17" y="723.9951">Resuelta</text></g><g class="end_entity" data-qualified-name=".end." data-source-line="15" id="ent0018"><ellipse cx="108.54" cy="828" fill="none" rx="11" ry="11" style="stroke:#222222;stroke-width:1;"/><ellipse cx="108.54" cy="828" fill="#222222" rx="6" ry="6" style="stroke:#222222;stroke-width:1;"/></g><!--link *start* to Creada--><g class="link" data-entity-1="ent0002" data-entity-2="ent0003" data-link-type="dependency" data-source-line="1" id="lnk4"><path d="M222.54,26.36 C222.54,40.29 222.54,60.95 222.54,80.65" fill="none" id="*start*-to-Creada" style="stroke:#181818;stroke-width:1;"/><polygon fill="#181818" points="222.54,86.65,226.54,77.65,222.54,81.65,218.54,77.65,222.54,86.65" style="stroke:#181818;stroke-width:1;"/></g><!--link Creada to EnRevision--><g class="link" data-entity-1="ent0003" data-entity-2="ent0005" data-link-type="dependency" data-source-line="3" id="lnk6"><path d="M222.54,137.4 C222.54,159.42 222.54,185.66 222.54,207.66" fill="none" id="Creada-to-EnRevision" style="stroke:#181818;stroke-width:1;"/><polygon fill="#181818" points="222.54,213.66,226.54,204.66,222.54,208.66,218.54,204.66,222.54,213.66" style="stroke:#181818;stroke-width:1;"/><text fill="#000000" font-family="sans-serif" font-size="13" lengthAdjust="spacing" textLength="55.7324" x="223.54" y="180.0669">registrar</text></g><!--link EnRevision to Validacion--><g class="link" data-entity-1="ent0005" data-entity-2="ent0007" data-link-type="dependency" data-source-line="5" id="lnk8"><path d="M222.54,264.46 C222.54,282.41 222.54,300.69 222.54,318.62" fill="none" id="EnRevision-to-Validacion" style="stroke:#181818;stroke-width:1;"/><polygon fill="#181818" points="222.54,324.62,226.54,315.62,222.54,319.62,218.54,315.62,222.54,324.62" style="stroke:#181818;stroke-width:1;"/></g><!--link Validacion to EnProceso--><g class="link" data-entity-1="ent0007" data-entity-2="ent0009" data-link-type="dependency" data-source-line="7" id="lnk10"><path d="M178.27,375.42 C167.95,383.41 158.29,393.29 152.54,405 C145.46,419.39 145.2854,431.5752 147.8654,445.8852" fill="none" id="Validacion-to-EnProceso" style="stroke:#181818;stroke-width:1;"/><polygon fill="#181818" points="148.93,451.79,151.2696,442.2231,148.0428,446.8693,143.3966,443.6425,148.93,451.79" style="stroke:#181818;stroke-width:1;"/><text fill="#000000" font-family="sans-serif" font-size="13" lengthAdjust="spacing" textLength="109.0591" x="153.54" y="418.0669">valida incidencia</text></g><!--link Validacion to Rechazada--><g class="link" data-entity-1="ent0007" data-entity-2="ent0011" data-link-type="dependency" data-source-line="8" id="lnk12"><path d="M248.86,375.28 C256.38,383.85 263.59,394.1 267.54,405 C279.72,438.63 439.44,338.58 261.54,676 C255.25,687.92 249.8728,694.3015 238.9528,702.2415" fill="none" id="Validacion-to-Rechazada" style="stroke:#181818;stroke-width:1;"/><polygon fill="#181818" points="234.1,705.77,243.7315,703.7124,238.144,702.8296,239.0269,697.242,234.1,705.77" style="stroke:#181818;stroke-width:1;"/><text fill="#000000" font-family="sans-serif" font-size="13" lengthAdjust="spacing" textLength="73.271" x="327.54" y="545.0669">no procede</text></g><!--link EnProceso to Resolucion--><g class="link" data-entity-1="ent0009" data-entity-2="ent0013" data-link-type="dependency" data-source-line="10" id="lnk14"><path d="M155.54,502.4 C155.54,524.42 155.54,550.66 155.54,572.66" fill="none" id="EnProceso-to-Resolucion" style="stroke:#181818;stroke-width:1;"/><polygon fill="#181818" points="155.54,578.66,159.54,569.66,155.54,573.66,151.54,569.66,155.54,578.66" style="stroke:#181818;stroke-width:1;"/></g><!--link Resolucion to Resuelta--><g class="link" data-entity-1="ent0013" data-entity-2="ent0015" data-link-type="dependency" data-source-line="12" id="lnk16"><path d="M107.12,616.61 C84.91,624.62 60.65,637.78 47.54,659 C39.05,672.74 38.3456,685.0786 40.5656,699.6386" fill="none" id="Resolucion-to-Resuelta" style="stroke:#181818;stroke-width:1;"/><polygon fill="#181818" points="41.47,705.57,44.0677,696.0699,40.7163,700.6271,36.1591,697.2757,41.47,705.57" style="stroke:#181818;stroke-width:1;"/><text fill="#000000" font-family="sans-serif" font-size="13" lengthAdjust="spacing" textLength="112.436" x="48.54" y="672.0669">solucion aplicada</text></g><!--link Resolucion to Rechazada--><g class="link" data-entity-1="ent0013" data-entity-2="ent0011" data-link-type="dependency" data-source-line="13" id="lnk17"><path d="M161.59,629.4 C167.05,651.42 173.6072,677.836 179.0572,699.836" fill="none" id="Resolucion-to-Rechazada" style="stroke:#181818;stroke-width:1;"/><polygon fill="#181818" points="180.5,705.66,182.2185,695.9622,179.2977,700.8067,174.4532,697.8859,180.5,705.66" style="stroke:#181818;stroke-width:1;"/><text fill="#000000" font-family="sans-serif" font-size="13" lengthAdjust="spacing" textLength="78.7427" x="174.54" y="672.0669">no aplicable</text></g><!--link Resuelta to *end*--><g class="link" data-entity-1="ent0015" data-entity-2="ent0018" data-link-type="dependency" data-source-line="15" id="lnk19"><path d="M63.25,756.46 C76.24,776.7 90.7077,799.2315 99.6477,813.1515" fill="none" id="Resuelta-to-*end*" style="stroke:#181818;stroke-width:1;"/><polygon fill="#181818" points="102.89,818.2,101.3921,808.4657,100.188,813.9929,94.6608,812.7888,102.89,818.2" style="stroke:#181818;stroke-width:1;"/></g><!--link Rechazada to *end*--><g class="link" data-entity-1="ent0011" data-entity-2="ent0018" data-link-type="dependency" data-source-line="16" id="lnk20"><path d="M166.45,756.46 C149.48,777.14 130.0081,800.8534 118.8381,814.4534" fill="none" id="Rechazada-to-*end*" style="stroke:#181818;stroke-width:1;"/><polygon fill="#181818" points="115.03,819.09,123.8333,814.6739,118.2035,815.2262,117.6512,809.5963,115.03,819.09" style="stroke:#181818;stroke-width:1;"/></g><?plantuml-src POyn3eCm34Ltdo8p4XT0YANgNZ5qGGokOnLBKO8IwD3J5nFQqh8aolVB-qbNzAOi6tEAZ1O1yhv6Pz_oGv84RoeJ-IvfYXW1ThbYLtHYaVHOrpG48MuQW5sSPPSOY5DON8zrPCIJM5uM_8TRfW6V-exA-616lMbPcz-IJANWvaFnBjwecTsaga-EenFIxnxOdzwCtHolqcnHh2jw-A9RyW80?></g></svg>