<svg xmlns="http://www.w3.org/2000/svg" xmlns:xlink="http://www.w3.org/1999/xlink" contentStyleType="text/css" data-diagram-type="STATE" height="904px" preserveAspectRatio="none" style="width:478px;height:904px;background:#FFFFFF;" version="1.1" viewBox="0 0 478 904" width="478px" zoomAndPan="magnify"><defs/><g><g id="EnEdicion"><rect fill="#F1F1F1" height="50" rx="12.5" ry="12.5" style="stroke:#181818;stroke-width:0.5;" width="88.3662" x="125.68" y="87"/><line style="stroke:#181818;stroke-width:0.5;" x1="125.68" x2="214.0462" y1="113.2969" y2="113.2969"/><text fill="#000000" font-family="sans-serif" font-size="14" lengthAdjust="spacing" textLength="68.3662" x="135.68" y="104.9951">EnEdicion</text></g><g id="Validando"><rect fill="#F1F1F1" height="50" rx="12.5" ry="12.5" style="stroke:#181818;stroke-width:0.5;" width="89.7266" x="7" y="214"/><line style="stroke:#181818;stroke-width:0.5;" x1="7" x2="96.7266" y1="240.2969" y2="240.2969"/><text fill="#000000" font-family="sans-serif" font-size="14" lengthAdjust="spacing" textLength="69.7266" x="17" y="231.9951">Validando</text></g><g id="Validado"><rect fill="#F1F1F1" height="50" rx="12.5" ry="12.5" style="stroke:#181818;stroke-width:0.5;" width="80.8535" x="167.44" y="426"/><line style="stroke:#181818;stroke-width:0.5;" x1="167.44" x2="248.2935" y1="452.2969" y2="452.2969"/><text fill="#000000" font-family="sans-serif" font-size="14" lengthAdjust="spacing" textLength="60.8535" x="177.44" y="443.9951">Validado</text></g><g id="Publicado"><rect fill="#F1F1F1" height="50" rx="12.5" ry="12.5" style="stroke:#181818;stroke-width:0.5;" width="87.71" x="179.01" y="553"/><line style="stroke:#181818;stroke-width:0.5;" x1="179.01" x2="266.72" y1="579.2969" y2="579.2969"/><text fill="#000000" font-family="sans-serif" font-size="14" lengthAdjust="spacing" textLength="67.71" x="189.01" y="570.9951">Publicado</text></g><g id="Finalizado"><rect fill="#F1F1F1" height="50" rx="12.5" ry="12.5" style="stroke:#181818;stroke-width:0.5;" width="90.5537" x="240.59" y="765"/><line style="stroke:#181818;stroke-width:0.5;" x1="240.59" x2="331.1437" y1="791.2969" y2="791.2969"/><text fill="#000000" font-family="sans-serif" font-size="14" lengthAdjust="spacing" textLength="70.5537" x="250.59" y="782.9951">Finalizado</text></g><g class="entity" data-entity="choice1" data-uid="ent0007" id="entity_choice1"><polygon fill="#F1F1F1" points="169.86,325,181.86,337,169.86,349,157.86,337,169.86,325" style="stroke:#181818;stroke-width:0.5;"/></g><g class="entity" data-entity="choice2" data-uid="ent0008" id="entity_choice2"><polygon fill="#F1F1F1" points="285.86,664,297.86,676,285.86,688,273.86,676,285.86,664" style="stroke:#181818;stroke-width:0.5;"/></g><ellipse cx="169.86" cy="16" fill="#222222" rx="10" ry="10" style="stroke:#222222;stroke-width:1;"/><ellipse cx="285.86" cy="887" fill="none" rx="11" ry="11" style="stroke:#222222;stroke-width:1;"/><ellipse cx="285.86" cy="887" fill="#222222" rx="6" ry="6" style="stroke:#222222;stroke-width:1;"/><!--link *start* to EnEdicion--><g class="link" data-entity-1="*start*" data-entity-2="EnEdicion" data-source-line="9" data-uid="lnk3" id="link_*start*_EnEdicion"><path d="M169.86,26.36 C169.86,40.29 169.86,60.95 169.86,80.65" fill="none" id="*start*-to-EnEdicion" style="stroke:#181818;stroke-width:1;"/><polygon fill="#181818" points="169.86,86.65,173.86,77.65,169.86,81.65,165.86,77.65,169.86,86.65" style="stroke:#181818;stroke-width:1;"/></g><!--link EnEdicion to Validando--><g class="link" data-entity-1="EnEdicion" data-entity-2="Validando" data-source-line="11" data-uid="lnk4" id="link_EnEdicion_Validando"><path d="M125.2,119.87 C97.27,126.72 63.36,140.29 45.86,167 C36.91,180.66 37.2448,193.3124 41.1548,207.9824" fill="none" id="EnEdicion-to-Validando" style="stroke:#181818;stroke-width:1;"/><polygon fill="#181818" points="42.7,213.78,44.2472,204.0534,41.4123,208.9487,36.5171,206.1137,42.7,213.78" style="stroke:#181818;stroke-width:1;"/><text fill="#000000" font-family="sans-serif" font-size="13" lengthAdjust="spacing" textLength="96.1924" x="46.86" y="180.0669">Validar horario</text></g><!--link Validando to choice1--><g class="link" data-entity-1="Validando" data-entity-2="choice1" data-source-line="12" data-uid="lnk5" id="link_Validando_choice1"><path d="M81.94,264.47 C109.53,286.92 143.6646,314.6948 158.8046,327.0048" fill="none" id="Validando-to-choice1" style="stroke:#181818;stroke-width:1;"/><polygon fill="#181818" points="163.46,330.79,159.0004,322.0087,159.5805,327.6357,153.9535,328.2158,163.46,330.79" style="stroke:#181818;stroke-width:1;"/></g><!--link choice1 to EnEdicion--><g class="link" data-entity-1="choice1" data-entity-2="EnEdicion" data-source-line="13" data-uid="lnk6" id="link_choice1_EnEdicion"><path d="M169.86,324.4 C169.86,289.52 169.86,191.04 169.86,143.29" fill="none" id="choice1-to-EnEdicion" style="stroke:#181818;stroke-width:1;"/><polygon fill="#181818" points="169.86,137.29,165.86,146.29,169.86,142.29,173.86,146.29,169.86,137.29" style="stroke:#181818;stroke-width:1;"/><text fill="#000000" font-family="sans-serif" font-size="13" lengthAdjust="spacing" textLength="110.5254" x="170.86" y="243.5669">Error encontrado</text></g><!--link choice1 to Validado--><g class="link" data-entity-1="choice1" data-entity-2="Validado" data-source-line="14" data-uid="lnk7" id="link_choice1_Validado"><path d="M172.72,346.42 C178.38,363.1 189.2827,395.238 197.7727,420.268" fill="none" id="choice1-to-Validado" style="stroke:#181818;stroke-width:1;"/><polygon fill="#181818" points="199.7,425.95,200.5971,416.1421,198.0939,421.215,193.021,418.7118,199.7,425.95" style="stroke:#181818;stroke-width:1;"/><text fill="#000000" font-family="sans-serif" font-size="13" lengthAdjust="spacing" textLength="86.3472" x="189.86" y="392.0669">Sin conflictos</text></g><!--link Validado to Publicado--><g class="link" data-entity-1="Validado" data-entity-2="Publicado" data-source-line="16" data-uid="lnk8" id="link_Validado_Publicado"><path d="M204.4,476.46 C203.06,490.22 202.37,507.66 204.86,523 C206.48,532.95 207.6518,537.8861 210.9018,547.0361" fill="none" id="Validado-to-Publicado" style="stroke:#181818;stroke-width:1;"/><polygon fill="#181818" points="212.91,552.69,213.6669,542.8703,211.2365,547.9784,206.1284,545.5479,212.91,552.69" style="stroke:#181818;stroke-width:1;"/><text fill="#000000" font-family="sans-serif" font-size="13" lengthAdjust="spacing" textLength="102.5591" x="205.86" y="519.0669">Publicar horario</text></g><!--link Publicado to choice2--><g class="link" data-entity-1="Publicado" data-entity-2="choice2" data-source-line="17" data-uid="lnk9" id="link_Publicado_choice2"><path d="M238.92,603.47 C253.07,625.03 269.4368,649.9745 278.1368,663.2245" fill="none" id="Publicado-to-choice2" style="stroke:#181818;stroke-width:1;"/><polygon fill="#181818" points="281.43,668.24,279.8339,658.5213,278.6857,664.0604,273.1466,662.9122,281.43,668.24" style="stroke:#181818;stroke-width:1;"/></g><!--link choice2 to EnEdicion--><g class="link" data-entity-1="choice2" data-entity-2="EnEdicion" data-source-line="19" data-uid="lnk10" id="link_choice2_EnEdicion"><path d="M291.48,669.03 C304.35,654.72 334.86,616.8 334.86,579 C334.86,238 334.86,238 334.86,238 C334.86,177.44 269.0523,144.4058 220.1823,127.5558" fill="none" id="choice2-to-EnEdicion" style="stroke:#181818;stroke-width:1;"/><polygon fill="#181818" points="214.51,125.6,221.7146,132.3152,219.2369,127.2298,224.3223,124.7521,214.51,125.6" style="stroke:#181818;stroke-width:1;"/><text fill="#000000" font-family="sans-serif" font-size="13" lengthAdjust="spacing" textLength="134.1831" x="335.86" y="392.0669">Modificar / Reactivar</text></g><!--link choice2 to Finalizado--><g class="link" data-entity-1="choice2" data-entity-2="Finalizado" data-source-line="20" data-uid="lnk11" id="link_choice2_Finalizado"><path d="M285.86,688.56 C285.86,706.45 285.86,735.21 285.86,758.77" fill="none" id="choice2-to-Finalizado" style="stroke:#181818;stroke-width:1;"/><polygon fill="#181818" points="285.86,764.77,289.86,755.77,285.86,759.77,281.86,755.77,285.86,764.77" style="stroke:#181818;stroke-width:1;"/><text fill="#000000" font-family="sans-serif" font-size="13" lengthAdjust="spacing" textLength="104.1523" x="286.86" y="731.0669">Cierre definitivo</text></g><!--link Finalizado to *end*--><g class="link" data-entity-1="Finalizado" data-entity-2="*end*" data-source-line="22" data-uid="lnk13" id="link_Finalizado_*end*"><path d="M285.86,815.46 C285.86,835.04 285.86,855.49 285.86,869.8" fill="none" id="Finalizado-to-*end*" style="stroke:#181818;stroke-width:1;"/><polygon fill="#181818" points="285.86,875.8,289.86,866.8,285.86,870.8,281.86,866.8,285.86,875.8" style="stroke:#181818;stroke-width:1;"/></g><!--SRC=[NP112y8m38Nl-HKv2qFqA6CNcJT15Bo8XzfsB20DPDM3lzviRktcBUdxchoNBfheiGwr8qiSe1lwgtcICy7nea_jwVLuaitzWO82d_nWMoRhDrYMlwgg5i9sBi1jTSUYg6Oc89M3aDpWRgm5MnOZn92rdXptmhH_CLP_ro8iw8Fb4AMtEmUdaCfTAA0oZQQCt04agUTIUWN7Ell9OlQp1PXo_niwigDc6B36ipSsqjl8WiwtLNnFNiIZymq5KfO1PdgFwp6_]--></g></svg>