<svg xmlns="http://www.w3.org/2000/svg" xmlns:xlink="http://www.w3.org/1999/xlink" contentStyleType="text/css" data-diagram-type="STATE" height="894px" preserveAspectRatio="none" style="width:491px;height:894px;background:#1B1B1B;" version="1.1" viewBox="0 0 491 894" width="491px" zoomAndPan="magnify"><?plantuml 1.2026.3beta4?><defs/><g><rect fill="#1B1B1B" height="894" style="stroke:none;stroke-width:1;" width="491" x="0" y="0"/><rect fill="#313139" height="40" rx="12.5" ry="12.5" style="stroke:#E7E7E7;stroke-width:0.5;" width="60.1758" x="146.98" y="87"/><text fill="#FFFFFF" font-family="sans-serif" font-size="14" lengthAdjust="spacing" textLength="50.1758" x="151.98" y="111.8467">Creado</text><rect fill="#313139" height="40" rx="12.5" ry="12.5" style="stroke:#E7E7E7;stroke-width:0.5;" width="78.3662" x="137.89" y="204"/><text fill="#FFFFFF" font-family="sans-serif" font-size="14" lengthAdjust="spacing" textLength="68.3662" x="142.89" y="228.8467">EnEdicion</text><rect fill="#313139" height="40" rx="12.5" ry="12.5" style="stroke:#E7E7E7;stroke-width:0.5;" width="100.1455" x="7" y="321"/><text fill="#FFFFFF" font-family="sans-serif" font-size="14" lengthAdjust="spacing" textLength="90.1455" x="12" y="345.8467">EnValidacion</text><rect fill="#313139" height="40" rx="12.5" ry="12.5" style="stroke:#E7E7E7;stroke-width:0.5;" width="70.8535" x="105.65" y="523"/><text fill="#FFFFFF" font-family="sans-serif" font-size="14" lengthAdjust="spacing" textLength="60.8535" x="110.65" y="547.8467">Validado</text><rect fill="#313139" height="40" rx="12.5" ry="12.5" style="stroke:#E7E7E7;stroke-width:0.5;" width="77.71" x="102.22" y="640"/><text fill="#FFFFFF" font-family="sans-serif" font-size="14" lengthAdjust="spacing" textLength="67.71" x="107.22" y="664.8467">Publicado</text><rect fill="#313139" height="40" rx="12.5" ry="12.5" style="stroke:#E7E7E7;stroke-width:0.5;" width="85.9678" x="270.09" y="757"/><text fill="#FFFFFF" font-family="sans-serif" font-size="14" lengthAdjust="spacing" textLength="75.9678" x="275.09" y="781.8467">Modificado</text><rect fill="#313139" height="40" rx="12.5" ry="12.5" style="stroke:#E7E7E7;stroke-width:0.5;" width="65.9316" x="84.11" y="757"/><text fill="#FFFFFF" font-family="sans-serif" font-size="14" lengthAdjust="spacing" textLength="55.9316" x="89.11" y="781.8467">Cerrado</text><g class="entity" data-qualified-name="decision1" id="ent0009"><polygon fill="#313139" points="141.07,422,153.07,434,141.07,446,129.07,434,141.07,422" style="stroke:#E7E7E7;stroke-width:0.5;"/></g><g class="start_entity" data-qualified-name=".start." data-source-line="12" id="ent0002"><ellipse cx="177.07" cy="16" fill="#DDDDDD" rx="10" ry="10" style="stroke:#DDDDDD;stroke-width:1;"/></g><g class="end_entity" data-qualified-name=".end." data-source-line="31" id="ent0013"><ellipse cx="117.07" cy="869" fill="none" rx="11" ry="11" style="stroke:#DDDDDD;stroke-width:1;"/><ellipse cx="117.07" cy="869" fill="#DDDDDD" rx="6" ry="6" style="stroke:#DDDDDD;stroke-width:1;"/></g><!--link *start* to Creado--><g class="link" data-entity-1="ent0002" data-entity-2="ent0002" data-link-type="dependency" data-source-line="12" id="lnk3"><path d="M177.07,26.19 C177.07,40.4 177.07,62.02 177.07,80.74" fill="none" id="*start*-to-Creado" style="stroke:#E7E7E7;stroke-width:1;"/><polygon fill="#E7E7E7" points="177.07,86.74,181.07,77.74,177.07,81.74,173.07,77.74,177.07,86.74" style="stroke:#E7E7E7;stroke-width:1;"/></g><!--link Creado to EnEdicion--><g class="link" data-entity-1="ent0002" data-entity-2="ent0003" data-link-type="dependency" data-source-line="14" id="lnk4"><path d="M177.07,127.25 C177.07,148.48 177.07,176.44 177.07,197.69" fill="none" id="Creado-to-EnEdicion" style="stroke:#E7E7E7;stroke-width:1;"/><polygon fill="#E7E7E7" points="177.07,203.69,181.07,194.69,177.07,198.69,173.07,194.69,177.07,203.69" style="stroke:#E7E7E7;stroke-width:1;"/><text fill="#FFFFFF" font-family="sans-serif" font-size="13" lengthAdjust="spacing" textLength="81.7515" x="178.07" y="170.0669">crearHorario</text></g><!--link EnEdicion to EnValidacion--><g class="link" data-entity-1="ent0003" data-entity-2="ent0004" data-link-type="dependency" data-source-line="16" id="lnk5"><path d="M137.48,229.72 C109.86,235.3 74.89,247.48 57.07,274 C47.94,287.6 47.8751,300.7083 50.5951,314.8283" fill="none" id="EnEdicion-to-EnValidacion" style="stroke:#E7E7E7;stroke-width:1;"/><polygon fill="#E7E7E7" points="51.73,320.72,53.9554,311.1259,50.7842,315.8103,46.0998,312.6391,51.73,320.72" style="stroke:#E7E7E7;stroke-width:1;"/><text fill="#FFFFFF" font-family="sans-serif" font-size="13" lengthAdjust="spacing" textLength="92.3965" x="58.07" y="287.0669">validarHorario</text></g><!--link EnValidacion to decision1--><g class="link" data-entity-1="ent0004" data-entity-2="ent0009" data-link-type="dependency" data-source-line="18" id="lnk6"><path d="M74.89,361.3 C94.15,382.17 119.6402,409.7813 131.6502,422.7913" fill="none" id="EnValidacion-to-decision1" style="stroke:#E7E7E7;stroke-width:1;"/><polygon fill="#E7E7E7" points="135.72,427.2,132.5544,417.8737,132.3285,423.5261,126.6761,423.3002,135.72,427.2" style="stroke:#E7E7E7;stroke-width:1;"/></g><!--link decision1 to EnEdicion--><g class="link" data-entity-1="ent0009" data-entity-2="ent0003" data-link-type="dependency" data-source-line="20" id="lnk7"><path d="M142.74,423.35 C148.3,391.22 165.2473,293.3522 172.7273,250.1122" fill="none" id="decision1-to-EnEdicion" style="stroke:#E7E7E7;stroke-width:1;"/><polygon fill="#E7E7E7" points="173.75,244.2,168.2744,252.3865,172.8977,249.1268,176.1574,253.7501,173.75,244.2" style="stroke:#E7E7E7;stroke-width:1;"/><text fill="#FFFFFF" font-family="sans-serif" font-size="13" lengthAdjust="spacing" textLength="148.9224" x="162.07" y="345.5669">[conflictos detectados]</text></g><!--link decision1 to Validado--><g class="link" data-entity-1="ent0009" data-entity-2="ent0005" data-link-type="dependency" data-source-line="21" id="lnk8"><path d="M141.07,446.45 C141.07,464.67 141.07,494.48 141.07,516.71" fill="none" id="decision1-to-Validado" style="stroke:#E7E7E7;stroke-width:1;"/><polygon fill="#E7E7E7" points="141.07,522.71,145.07,513.71,141.07,517.71,137.07,513.71,141.07,522.71" style="stroke:#E7E7E7;stroke-width:1;"/><text fill="#FFFFFF" font-family="sans-serif" font-size="13" lengthAdjust="spacing" textLength="95.0117" x="142.07" y="489.0669">[sin conflictos]</text></g><!--link Validado to Publicado--><g class="link" data-entity-1="ent0005" data-entity-2="ent0006" data-link-type="dependency" data-source-line="23" id="lnk9"><path d="M141.07,563.25 C141.07,584.48 141.07,612.44 141.07,633.69" fill="none" id="Validado-to-Publicado" style="stroke:#E7E7E7;stroke-width:1;"/><polygon fill="#E7E7E7" points="141.07,639.69,145.07,630.69,141.07,634.69,137.07,630.69,141.07,639.69" style="stroke:#E7E7E7;stroke-width:1;"/><text fill="#FFFFFF" font-family="sans-serif" font-size="13" lengthAdjust="spacing" textLength="100.3755" x="142.07" y="606.0669">publicarHorario</text></g><!--link Publicado to Modificado--><g class="link" data-entity-1="ent0006" data-entity-2="ent0007" data-link-type="dependency" data-source-line="25" id="lnk10"><path d="M169.86,680.25 C201.61,701.48 247.4118,732.1056 279.2018,753.3556" fill="none" id="Publicado-to-Modificado" style="stroke:#E7E7E7;stroke-width:1;"/><polygon fill="#E7E7E7" points="284.19,756.69,278.9306,748.363,280.0332,753.9114,274.4848,755.0139,284.19,756.69" style="stroke:#E7E7E7;stroke-width:1;"/><text fill="#FFFFFF" font-family="sans-serif" font-size="13" lengthAdjust="spacing" textLength="109.0781" x="239.07" y="723.0669">modificarHorario</text></g><!--link Modificado to EnEdicion--><g class="link" data-entity-1="ent0007" data-entity-2="ent0003" data-link-type="dependency" data-source-line="27" id="lnk11"><path d="M333.44,756.93 C341.65,748.4 350.68,737.83 357.07,727 C372.87,700.25 380.07,692.06 380.07,661 C380.07,340 380.07,340 380.07,340 C380.07,265.67 281.6978,239.7383 222.6278,230.4883" fill="none" id="Modificado-to-EnEdicion" style="stroke:#E7E7E7;stroke-width:1;"/><polygon fill="#E7E7E7" points="216.7,229.56,224.9728,234.9042,221.6398,230.3335,226.2105,227.0005,216.7,229.56" style="stroke:#E7E7E7;stroke-width:1;"/><text fill="#FFFFFF" font-family="sans-serif" font-size="13" lengthAdjust="spacing" textLength="94.5674" x="381.07" y="489.0669">editarCambios</text></g><!--link Publicado to Cerrado--><g class="link" data-entity-1="ent0006" data-entity-2="ent0008" data-link-type="dependency" data-source-line="29" id="lnk12"><path d="M127.63,680.07 C122.29,688.77 116.78,699.46 114.07,710 C110.13,725.33 110.454,737.3714 112.374,750.6914" fill="none" id="Publicado-to-Cerrado" style="stroke:#E7E7E7;stroke-width:1;"/><polygon fill="#E7E7E7" points="113.23,756.63,115.9051,747.1514,112.5167,751.6811,107.9869,748.2927,113.23,756.63" style="stroke:#E7E7E7;stroke-width:1;"/><text fill="#FFFFFF" font-family="sans-serif" font-size="13" lengthAdjust="spacing" textLength="87.0962" x="115.07" y="723.0669">cerrarHorario</text></g><!--link Cerrado to *end*--><g class="link" data-entity-1="ent0008" data-entity-2="ent0013" data-link-type="dependency" data-source-line="31" id="lnk14"><path d="M117.07,797.09 C117.07,815.66 117.07,837.17 117.07,851.87" fill="none" id="Cerrado-to-*end*" style="stroke:#E7E7E7;stroke-width:1;"/><polygon fill="#E7E7E7" points="117.07,857.87,121.07,848.87,117.07,852.87,113.07,848.87,117.07,857.87" style="stroke:#E7E7E7;stroke-width:1;"/></g><?plantuml-src NP4n2y8m48Nt-nMP1GTNaIv5S16SNAH3l9nuO9kIHC5_xyMskT2fUVU-kxnUdkp8K3-cht4KCV2Os0y0CTb4fWradP_5SJWwnkmk-cfVx6nLcWgbu_A-lnXLdxtZHrreAGHLZf2Z3DkPmm6Vdf6Q1k2swSnssonPOFh-IoMHsHkKSZZvO0CBfCx4QL91FtzHmvMT-H84G3EjBxoX7nxoUyb7QKY4IMB5RjMnR2GtH1wCDdK0nSnaMPQWutJMY6fcLFSeR3yBXIjx7PeS9njQsz_Pn_NO-JNoClD91ov6XkGvVW00?></g></svg>