<svg xmlns="http://www.w3.org/2000/svg" xmlns:xlink="http://www.w3.org/1999/xlink" contentStyleType="text/css" data-diagram-type="STATE" height="430px" preserveAspectRatio="none" style="width:574px;height:430px;background:#FFFFFF;" version="1.1" viewBox="0 0 574 430" width="574px" zoomAndPan="magnify"><?plantuml 1.2026.4beta2?><defs/><g><path d="M19.5,7 L546.5,7 A12.5,12.5 0 0 1 559,19.5 L559,33.2969 L7,33.2969 L7,19.5 A12.5,12.5 0 0 1 19.5,7" fill="#F1F1F1"/><rect fill="none" height="299.2969" rx="12.5" ry="12.5" style="stroke:#181818;stroke-width:0.5;" width="552" x="7" y="7"/><line style="stroke:#181818;stroke-width:0.5;" x1="7" x2="559" y1="33.2969" y2="33.2969"/><text fill="#000000" font-family="sans-serif" font-size="14" lengthAdjust="spacing" textLength="143.8486" x="211.0757" y="24.9951">eliminarAsignatura()</text><g class="entity" data-qualified-name="eliminarAsignatura.s1" id="ent0003"><rect fill="#F1F1F1" height="50" rx="12.5" ry="12.5" style="stroke:#181818;stroke-width:0.5;" width="50" x="19" y="135.2969"/><line style="stroke:#181818;stroke-width:0.5;" x1="19" x2="69" y1="161.5938" y2="161.5938"/><text fill="#000000" font-family="sans-serif" font-size="14" lengthAdjust="spacing" textLength="4.4502" x="41.7749" y="153.292">&#160;</text></g><g class="start_entity" data-qualified-name="eliminarAsignatura..start.eliminarAsignatura" data-source-line="5" id="ent0002"><ellipse cx="44" cy="54.2969" fill="#222222" rx="10" ry="10" style="stroke:#222222;stroke-width:1;"/></g><g class="end_entity" data-qualified-name="eliminarAsignatura..end.eliminarAsignatura" data-source-line="10" id="ent0004"><ellipse cx="44" cy="282.2969" fill="none" rx="11" ry="11" style="stroke:#222222;stroke-width:1;"/><ellipse cx="44" cy="282.2969" fill="#222222" rx="6" ry="6" style="stroke:#222222;stroke-width:1;"/></g><!--link *start*eliminarAsignatura to s1--><g class="link" data-entity-1="ent0002" data-entity-2="ent0003" data-link-type="dependency" data-source-line="5" id="lnk3"><path d="M44,64.5269 C44,80.2369 44,106.6569 44,129.1669" fill="none" id="*start*eliminarAsignatura-to-s1" style="stroke:#181818;stroke-width:1;"/><polygon fill="#181818" points="44,135.1669,48,126.1669,44,130.1669,40,126.1669,44,135.1669" style="stroke:#181818;stroke-width:1;"/><path d="M49,87.2969 L49,112.2969 L535,112.2969 L535,97.2969 L525,87.2969 L49,87.2969" fill="#FEFFDD" style="stroke:#181818;stroke-width:0.5;"/><path d="M525,87.2969 L525,97.2969 L535,97.2969 L525,87.2969" fill="#FEFFDD" style="stroke:#181818;stroke-width:0.5;"/><text fill="#000000" font-family="sans-serif" font-size="13" font-weight="700" lengthAdjust="spacing" textLength="104.8633" x="55" y="104.3638">Administrador</text><text fill="#000000" font-family="sans-serif" font-size="13" lengthAdjust="spacing" textLength="356.8081" x="163.9956" y="104.3638">selecciona una asignatura de la lista y solicita eliminar</text></g><!--link s1 to *end*eliminarAsignatura--><g class="link" data-entity-1="ent0003" data-entity-2="ent0004" data-link-type="dependency" data-source-line="10" id="lnk5"><path d="M44,185.5769 C44,211.7469 44,246.1469 44,264.9769" fill="none" id="s1-to-*end*eliminarAsignatura" style="stroke:#181818;stroke-width:1;"/><polygon fill="#181818" points="44,270.9769,48,261.9769,44,265.9769,40,261.9769,44,270.9769" style="stroke:#181818;stroke-width:1;"/><path d="M49,208.2969 L49,248.2969 L452,248.2969 L452,218.2969 L442,208.2969 L49,208.2969" fill="#FEFFDD" style="stroke:#181818;stroke-width:0.5;"/><path d="M442,208.2969 L442,218.2969 L452,218.2969 L442,208.2969" fill="#FEFFDD" style="stroke:#181818;stroke-width:0.5;"/><text fill="#000000" font-family="sans-serif" font-size="13" font-weight="700" lengthAdjust="spacing" textLength="58.9063" x="55" y="225.3638">Sistema</text><text fill="#000000" font-family="sans-serif" font-size="13" lengthAdjust="spacing" textLength="233.5303" x="118.0386" y="225.3638">solicita confirmaci&#243;n de eliminaci&#243;n</text><text fill="#000000" font-family="sans-serif" font-size="13" font-weight="700" lengthAdjust="spacing" textLength="104.8633" x="55" y="240.4966">Administrador</text><text fill="#000000" font-family="sans-serif" font-size="13" lengthAdjust="spacing" textLength="69.3291" x="163.9956" y="240.4966">confirma y</text><text fill="#000000" font-family="sans-serif" font-size="13" font-weight="700" lengthAdjust="spacing" textLength="58.9063" x="237.457" y="240.4966">Sistema</text><text fill="#000000" font-family="sans-serif" font-size="13" lengthAdjust="spacing" textLength="137.0015" x="300.4956" y="240.4966">elimina la asignatura</text></g><g class="entity" data-qualified-name="ASIGNATURAS_ABIERTA" id="ent0006"><rect fill="#F1F1F1" height="50" rx="12.5" ry="12.5" style="stroke:#181818;stroke-width:0.5;" width="187.4941" x="189.25" y="366.3"/><line style="stroke:#181818;stroke-width:0.5;" x1="189.25" x2="376.7441" y1="392.5969" y2="392.5969"/><text fill="#000000" font-family="sans-serif" font-size="14" lengthAdjust="spacing" textLength="167.4941" x="199.25" y="384.2951">ASIGNATURAS_ABIERTA</text></g><!--link eliminarAsignatura to ASIGNATURAS_ABIERTA--><g class="link" data-entity-1="ent0002" data-entity-2="ent0006" data-link-type="dependency" data-source-line="17" id="lnk7"><path d="M283,306.64 C283,329.54 283,344.61 283,359.87" fill="none" id="eliminarAsignatura-to-ASIGNATURAS_ABIERTA" style="stroke:#181818;stroke-width:1;"/><polygon fill="#181818" points="283,365.87,287,356.87,283,360.87,279,356.87,283,365.87" style="stroke:#181818;stroke-width:1;"/></g><?plantuml-src VL3DIWCn4BxlKmozs0Qwq1SG8eZqqaEtdaHao4OPcamaipsKubFv2BwOax3BAae74f8ly_rCRg1jMrX6afW4v4ZyZXcZh0hUo823XuKF58anMw4tnk6KSRbQ00hyVO1B0reZ4MgNR2fMjoVp3ElrxOHnqhR448YF5IXbZErLbcJ8sATi38WFtZbAZ73IXRDTxo6WqjKGpY0fa2CzJi6gfkU-6iqfP5D3Q9XhAJfLzH6B_wJh4hzIZkZewvEB-MXKxrS6c7YQyQVko2uZp3FzplpHDF_ySablk-t3pXuUzxPxiNVR-_t1VWC0?></g></svg>