<svg xmlns="http://www.w3.org/2000/svg" xmlns:xlink="http://www.w3.org/1999/xlink" contentStyleType="text/css" data-diagram-type="CLASS" height="863px" preserveAspectRatio="none" style="width:434px;height:863px;background:#FFFFFF;" version="1.1" viewBox="0 0 434 863" width="434px" zoomAndPan="magnify"><defs/><g><!--cluster Sistema--><g class="cluster" data-entity="Sistema" data-source-line="1" data-uid="ent0002" id="cluster_Sistema"><rect fill="none" height="739" rx="2.5" ry="2.5" style="stroke:#181818;stroke-width:1;" width="421" x="7" y="118"/><text fill="#000000" font-family="sans-serif" font-size="14" font-weight="bold" lengthAdjust="spacing" textLength="63.4375" x="185.7813" y="132.9951">Sistema</text></g><!--class Profesor--><g class="entity" data-entity="Profesor" data-source-line="3" data-uid="ent0003" id="entity_Profesor"><rect fill="#F1F1F1" height="48" rx="2.5" ry="2.5" style="stroke:#181818;stroke-width:0.5;" width="89.9209" x="77.04" y="356"/><ellipse cx="92.04" cy="372" fill="#ADD1B2" rx="11" ry="11" style="stroke:#181818;stroke-width:1;"/><path d="M95.0088,377.6406 Q94.4306,377.9375 93.79,378.0781 Q93.1494,378.2344 92.4463,378.2344 Q89.9463,378.2344 88.6181,376.5938 Q87.3056,374.9375 87.3056,371.8125 Q87.3056,368.6875 88.6181,367.0313 Q89.9463,365.375 92.4463,365.375 Q93.1494,365.375 93.79,365.5313 Q94.4463,365.6875 95.0088,365.9844 L95.0088,368.7031 Q94.3838,368.125 93.79,367.8594 Q93.1963,367.5781 92.5713,367.5781 Q91.2275,367.5781 90.54,368.6563 Q89.8525,369.7188 89.8525,371.8125 Q89.8525,373.9063 90.54,374.9844 Q91.2275,376.0469 92.5713,376.0469 Q93.1963,376.0469 93.79,375.7813 Q94.3838,375.5 95.0088,374.9219 L95.0088,377.6406 Z " fill="#000000"/><text fill="#000000" font-family="sans-serif" font-size="14" lengthAdjust="spacing" textLength="57.9209" x="106.04" y="376.8467">Profesor</text><line style="stroke:#181818;stroke-width:0.5;" x1="78.04" x2="165.9609" y1="388" y2="388"/><line style="stroke:#181818;stroke-width:0.5;" x1="78.04" x2="165.9609" y1="396" y2="396"/></g><!--class Asignatura--><g class="entity" data-entity="Asignatura" data-source-line="6" data-uid="ent0004" id="entity_Asignatura"><rect fill="#F1F1F1" height="48" rx="2.5" ry="2.5" style="stroke:#181818;stroke-width:0.5;" width="107.7969" x="124.1" y="684"/><ellipse cx="139.1" cy="700" fill="#A9DCDF" rx="11" ry="11" style="stroke:#181818;stroke-width:1;"/><path d="M139.2094,695.3438 L138.0531,700.4219 L140.3813,700.4219 L139.2094,695.3438 Z M137.725,693.1094 L140.7094,693.1094 L144.0688,705.5 L141.6156,705.5 L140.85,702.4375 L137.5688,702.4375 L136.8188,705.5 L134.3813,705.5 L137.725,693.1094 Z " fill="#000000"/><text fill="#000000" font-family="sans-serif" font-size="14" font-style="italic" lengthAdjust="spacing" textLength="75.7969" x="153.1" y="704.8467">Asignatura</text><line style="stroke:#181818;stroke-width:0.5;" x1="125.1" x2="230.8969" y1="716" y2="716"/><line style="stroke:#181818;stroke-width:0.5;" x1="125.1" x2="230.8969" y1="724" y2="724"/></g><!--class AsignaturaObligatoria--><g class="entity" data-entity="AsignaturaObligatoria" data-source-line="9" data-uid="ent0005" id="entity_AsignaturaObligatoria"><rect fill="#F1F1F1" height="48" rx="2.5" ry="2.5" style="stroke:#181818;stroke-width:0.5;" width="185.2275" x="23.39" y="793"/><ellipse cx="38.39" cy="809" fill="#ADD1B2" rx="11" ry="11" style="stroke:#181818;stroke-width:1;"/><path d="M41.3588,814.6406 Q40.7806,814.9375 40.14,815.0781 Q39.4994,815.2344 38.7963,815.2344 Q36.2963,815.2344 34.9681,813.5938 Q33.6556,811.9375 33.6556,808.8125 Q33.6556,805.6875 34.9681,804.0313 Q36.2963,802.375 38.7963,802.375 Q39.4994,802.375 40.14,802.5313 Q40.7963,802.6875 41.3588,802.9844 L41.3588,805.7031 Q40.7338,805.125 40.14,804.8594 Q39.5463,804.5781 38.9213,804.5781 Q37.5775,804.5781 36.89,805.6563 Q36.2025,806.7188 36.2025,808.8125 Q36.2025,810.9063 36.89,811.9844 Q37.5775,813.0469 38.9213,813.0469 Q39.5463,813.0469 40.14,812.7813 Q40.7338,812.5 41.3588,811.9219 L41.3588,814.6406 Z " fill="#000000"/><text fill="#000000" font-family="sans-serif" font-size="14" lengthAdjust="spacing" textLength="153.2275" x="52.39" y="813.8467">AsignaturaObligatoria</text><line style="stroke:#181818;stroke-width:0.5;" x1="24.39" x2="207.6175" y1="825" y2="825"/><line style="stroke:#181818;stroke-width:0.5;" x1="24.39" x2="207.6175" y1="833" y2="833"/></g><!--class AsignaturaOptativa--><g class="entity" data-entity="AsignaturaOptativa" data-source-line="12" data-uid="ent0007" id="entity_AsignaturaOptativa"><rect fill="#F1F1F1" height="48" rx="2.5" ry="2.5" style="stroke:#181818;stroke-width:0.5;" width="168.0146" x="243.99" y="793"/><ellipse cx="258.99" cy="809" fill="#ADD1B2" rx="11" ry="11" style="stroke:#181818;stroke-width:1;"/><path d="M261.9588,814.6406 Q261.3806,814.9375 260.74,815.0781 Q260.0994,815.2344 259.3963,815.2344 Q256.8963,815.2344 255.5681,813.5938 Q254.2556,811.9375 254.2556,808.8125 Q254.2556,805.6875 255.5681,804.0313 Q256.8963,802.375 259.3963,802.375 Q260.0994,802.375 260.74,802.5313 Q261.3963,802.6875 261.9588,802.9844 L261.9588,805.7031 Q261.3338,805.125 260.74,804.8594 Q260.1463,804.5781 259.5213,804.5781 Q258.1775,804.5781 257.49,805.6563 Q256.8025,806.7188 256.8025,808.8125 Q256.8025,810.9063 257.49,811.9844 Q258.1775,813.0469 259.5213,813.0469 Q260.1463,813.0469 260.74,812.7813 Q261.3338,812.5 261.9588,811.9219 L261.9588,814.6406 Z " fill="#000000"/><text fill="#000000" font-family="sans-serif" font-size="14" lengthAdjust="spacing" textLength="136.0146" x="272.99" y="813.8467">AsignaturaOptativa</text><line style="stroke:#181818;stroke-width:0.5;" x1="244.99" x2="411.0046" y1="825" y2="825"/><line style="stroke:#181818;stroke-width:0.5;" x1="244.99" x2="411.0046" y1="833" y2="833"/></g><!--class Grado--><g class="entity" data-entity="Grado" data-source-line="15" data-uid="ent0009" id="entity_Grado"><rect fill="#F1F1F1" height="48" rx="2.5" ry="2.5" style="stroke:#181818;stroke-width:0.5;" width="74.6357" x="213.68" y="278"/><ellipse cx="228.68" cy="294" fill="#ADD1B2" rx="11" ry="11" style="stroke:#181818;stroke-width:1;"/><path d="M231.6488,299.6406 Q231.0706,299.9375 230.43,300.0781 Q229.7894,300.2344 229.0863,300.2344 Q226.5863,300.2344 225.2581,298.5938 Q223.9456,296.9375 223.9456,293.8125 Q223.9456,290.6875 225.2581,289.0313 Q226.5863,287.375 229.0863,287.375 Q229.7894,287.375 230.43,287.5313 Q231.0863,287.6875 231.6488,287.9844 L231.6488,290.7031 Q231.0238,290.125 230.43,289.8594 Q229.8363,289.5781 229.2113,289.5781 Q227.8675,289.5781 227.18,290.6563 Q226.4925,291.7188 226.4925,293.8125 Q226.4925,295.9063 227.18,296.9844 Q227.8675,298.0469 229.2113,298.0469 Q229.8363,298.0469 230.43,297.7813 Q231.0238,297.5 231.6488,296.9219 L231.6488,299.6406 Z " fill="#000000"/><text fill="#000000" font-family="sans-serif" font-size="14" lengthAdjust="spacing" textLength="42.6357" x="242.68" y="298.8467">Grado</text><line style="stroke:#181818;stroke-width:0.5;" x1="214.68" x2="287.3157" y1="310" y2="310"/><line style="stroke:#181818;stroke-width:0.5;" x1="214.68" x2="287.3157" y1="318" y2="318"/></g><!--class Curso--><g class="entity" data-entity="Curso" data-source-line="18" data-uid="ent0010" id="entity_Curso"><rect fill="#F1F1F1" height="48" rx="2.5" ry="2.5" style="stroke:#181818;stroke-width:0.5;" width="72.2637" x="239.87" y="434"/><ellipse cx="254.87" cy="450" fill="#ADD1B2" rx="11" ry="11" style="stroke:#181818;stroke-width:1;"/><path d="M257.8388,455.6406 Q257.2606,455.9375 256.62,456.0781 Q255.9794,456.2344 255.2763,456.2344 Q252.7763,456.2344 251.4481,454.5938 Q250.1356,452.9375 250.1356,449.8125 Q250.1356,446.6875 251.4481,445.0313 Q252.7763,443.375 255.2763,443.375 Q255.9794,443.375 256.62,443.5313 Q257.2763,443.6875 257.8388,443.9844 L257.8388,446.7031 Q257.2138,446.125 256.62,445.8594 Q256.0263,445.5781 255.4013,445.5781 Q254.0575,445.5781 253.37,446.6563 Q252.6825,447.7188 252.6825,449.8125 Q252.6825,451.9063 253.37,452.9844 Q254.0575,454.0469 255.4013,454.0469 Q256.0263,454.0469 256.62,453.7813 Q257.2138,453.5 257.8388,452.9219 L257.8388,455.6406 Z " fill="#000000"/><text fill="#000000" font-family="sans-serif" font-size="14" lengthAdjust="spacing" textLength="40.2637" x="268.87" y="454.8467">Curso</text><line style="stroke:#181818;stroke-width:0.5;" x1="240.87" x2="311.1337" y1="466" y2="466"/><line style="stroke:#181818;stroke-width:0.5;" x1="240.87" x2="311.1337" y1="474" y2="474"/></g><!--class Semestre--><g class="entity" data-entity="Semestre" data-source-line="21" data-uid="ent0011" id="entity_Semestre"><rect fill="#F1F1F1" height="48" rx="2.5" ry="2.5" style="stroke:#181818;stroke-width:0.5;" width="98.9033" x="226.55" y="559"/><ellipse cx="241.55" cy="575" fill="#ADD1B2" rx="11" ry="11" style="stroke:#181818;stroke-width:1;"/><path d="M244.5188,580.6406 Q243.9406,580.9375 243.3,581.0781 Q242.6594,581.2344 241.9563,581.2344 Q239.4563,581.2344 238.1281,579.5938 Q236.8156,577.9375 236.8156,574.8125 Q236.8156,571.6875 238.1281,570.0313 Q239.4563,568.375 241.9563,568.375 Q242.6594,568.375 243.3,568.5313 Q243.9563,568.6875 244.5188,568.9844 L244.5188,571.7031 Q243.8938,571.125 243.3,570.8594 Q242.7063,570.5781 242.0813,570.5781 Q240.7375,570.5781 240.05,571.6563 Q239.3625,572.7188 239.3625,574.8125 Q239.3625,576.9063 240.05,577.9844 Q240.7375,579.0469 242.0813,579.0469 Q242.7063,579.0469 243.3,578.7813 Q243.8938,578.5 244.5188,577.9219 L244.5188,580.6406 Z " fill="#000000"/><text fill="#000000" font-family="sans-serif" font-size="14" lengthAdjust="spacing" textLength="66.9033" x="255.55" y="579.8467">Semestre</text><line style="stroke:#181818;stroke-width:0.5;" x1="227.55" x2="324.4533" y1="591" y2="591"/><line style="stroke:#181818;stroke-width:0.5;" x1="227.55" x2="324.4533" y1="599" y2="599"/></g><!--class Horario--><g class="entity" data-entity="Horario" data-source-line="24" data-uid="ent0012" id="entity_Horario"><rect fill="#F1F1F1" height="48" rx="2.5" ry="2.5" style="stroke:#181818;stroke-width:0.5;" width="83.6387" x="209.18" y="153"/><ellipse cx="224.18" cy="169" fill="#ADD1B2" rx="11" ry="11" style="stroke:#181818;stroke-width:1;"/><path d="M227.1488,174.6406 Q226.5706,174.9375 225.93,175.0781 Q225.2894,175.2344 224.5863,175.2344 Q222.0863,175.2344 220.7581,173.5938 Q219.4456,171.9375 219.4456,168.8125 Q219.4456,165.6875 220.7581,164.0313 Q222.0863,162.375 224.5863,162.375 Q225.2894,162.375 225.93,162.5313 Q226.5863,162.6875 227.1488,162.9844 L227.1488,165.7031 Q226.5238,165.125 225.93,164.8594 Q225.3363,164.5781 224.7113,164.5781 Q223.3675,164.5781 222.68,165.6563 Q221.9925,166.7188 221.9925,168.8125 Q221.9925,170.9063 222.68,171.9844 Q223.3675,173.0469 224.7113,173.0469 Q225.3363,173.0469 225.93,172.7813 Q226.5238,172.5 227.1488,171.9219 L227.1488,174.6406 Z " fill="#000000"/><text fill="#000000" font-family="sans-serif" font-size="14" lengthAdjust="spacing" textLength="51.6387" x="238.18" y="173.8467">Horario</text><line style="stroke:#181818;stroke-width:0.5;" x1="210.18" x2="291.8187" y1="185" y2="185"/><line style="stroke:#181818;stroke-width:0.5;" x1="210.18" x2="291.8187" y1="193" y2="193"/></g><!--class Usuario--><g class="entity" data-entity="Usuario" data-source-line="28" data-uid="ent0013" id="entity_Usuario"><rect fill="#F1F1F1" height="48" rx="2.5" ry="2.5" style="stroke:#181818;stroke-width:0.5;" width="85.2041" x="208.4" y="7"/><ellipse cx="223.4" cy="23" fill="#ADD1B2" rx="11" ry="11" style="stroke:#181818;stroke-width:1;"/><path d="M226.3688,28.6406 Q225.7906,28.9375 225.15,29.0781 Q224.5094,29.2344 223.8063,29.2344 Q221.3063,29.2344 219.9781,27.5938 Q218.6656,25.9375 218.6656,22.8125 Q218.6656,19.6875 219.9781,18.0313 Q221.3063,16.375 223.8063,16.375 Q224.5094,16.375 225.15,16.5313 Q225.8063,16.6875 226.3688,16.9844 L226.3688,19.7031 Q225.7438,19.125 225.15,18.8594 Q224.5563,18.5781 223.9313,18.5781 Q222.5875,18.5781 221.9,19.6563 Q221.2125,20.7188 221.2125,22.8125 Q221.2125,24.9063 221.9,25.9844 Q222.5875,27.0469 223.9313,27.0469 Q224.5563,27.0469 225.15,26.7813 Q225.7438,26.5 226.3688,25.9219 L226.3688,28.6406 Z " fill="#000000"/><text fill="#000000" font-family="sans-serif" font-size="14" lengthAdjust="spacing" textLength="53.2041" x="237.4" y="27.8467">Usuario</text><line style="stroke:#181818;stroke-width:0.5;" x1="209.4" x2="292.6041" y1="39" y2="39"/><line style="stroke:#181818;stroke-width:0.5;" x1="209.4" x2="292.6041" y1="47" y2="47"/></g><!--reverse link Asignatura to AsignaturaObligatoria--><g class="link" data-entity-1="Asignatura" data-entity-2="AsignaturaObligatoria" data-uid="lnk6" id="link_Asignatura_AsignaturaObligatoria"><path d="M155.3703,748.0571 C145.0403,765.8971 139.9,774.75 129.57,792.57" fill="none" id="Asignatura-backto-AsignaturaObligatoria" style="stroke:#181818;stroke-width:1;"/><polygon fill="none" points="164.39,732.48,150.178,745.0505,160.5627,751.0636,164.39,732.48" style="stroke:#181818;stroke-width:1;"/></g><!--reverse link Asignatura to AsignaturaOptativa--><g class="link" data-entity-1="Asignatura" data-entity-2="AsignaturaOptativa" data-uid="lnk8" id="link_Asignatura_AsignaturaOptativa"><path d="M225.5739,742.9329 C250.5839,760.7729 270.17,774.75 295.16,792.57" fill="none" id="Asignatura-backto-AsignaturaOptativa" style="stroke:#181818;stroke-width:1;"/><polygon fill="none" points="210.92,732.48,222.0896,747.8175,229.0582,738.0482,210.92,732.48" style="stroke:#181818;stroke-width:1;"/></g><!--link Profesor to Asignatura--><g class="link" data-entity-1="Profesor" data-entity-2="Asignatura" data-source-line="33" data-uid="lnk14" id="link_Profesor_Asignatura"><path codeLine="33" d="M111.3949,415.7929 C103.1649,445.0929 95.29,485.34 104,529 C115.66,587.42 141.1646,640.0985 159.1046,673.2185" fill="none" id="Profesor-Asignatura" style="stroke:#181818;stroke-width:1;"/><polygon fill="#181818" points="114.64,404.24,109.1665,408.9348,111.3949,415.7929,116.8684,411.0981,114.64,404.24" style="stroke:#181818;stroke-width:1;"/><polygon fill="#181818" points="164.82,683.77,165.4795,676.5891,159.1046,673.2185,158.4451,680.3994,164.82,683.77" style="stroke:#181818;stroke-width:1;"/><polygon fill="#000000" points="109.9112,525.4827,111.1526,516.0535,105.3731,517.1246,109.9112,525.4827" style="stroke:#000000;stroke-width:1;"/><text fill="#000000" font-family="sans-serif" font-size="13" lengthAdjust="spacing" textLength="50.9336" x="118" y="525.0669">imparte</text><text fill="#000000" font-family="sans-serif" font-size="13" lengthAdjust="spacing" textLength="6.5" x="106.1756" y="424.0597">*</text><text fill="#000000" font-family="sans-serif" font-size="13" lengthAdjust="spacing" textLength="6.5" x="154.9374" y="673.1189">*</text></g><!--reverse link Grado to Curso--><g class="link" data-entity-1="Grado" data-entity-2="Curso" data-source-line="35" data-uid="lnk15" id="link_Grado_Curso"><path codeLine="35" d="M242.5718,338.0597 C238.2618,358.8297 236.79,378.09 244,404 C246.91,414.46 252.51,424.91 258.22,433.74" fill="none" id="Grado-backto-Curso" style="stroke:#181818;stroke-width:1;"/><polygon fill="#181818" points="245.01,326.31,239.8743,331.3721,242.5718,338.0597,247.7075,332.9976,245.01,326.31" style="stroke:#181818;stroke-width:1;"/><polygon fill="#000000" points="249.807,385.0008,251.2475,375.6,245.4467,376.5487,249.807,385.0008" style="stroke:#000000;stroke-width:1;"/><text fill="#000000" font-family="sans-serif" font-size="13" lengthAdjust="spacing" textLength="56.2847" x="258" y="384.5669">contiene</text><text fill="#000000" font-family="sans-serif" font-size="13" lengthAdjust="spacing" textLength="8.271" x="234.6085" y="346.1468">1</text><text fill="#000000" font-family="sans-serif" font-size="13" lengthAdjust="spacing" textLength="6.5" x="247.2154" y="423.0816">*</text></g><!--link Curso to Semestre--><g class="link" data-entity-1="Curso" data-entity-2="Semestre" data-source-line="36" data-uid="lnk16" id="link_Curso_Semestre"><path codeLine="36" d="M276,494.42 C276,516.31 276,524.8 276,546.66" fill="none" id="Curso-Semestre" style="stroke:#181818;stroke-width:1;"/><polygon fill="#181818" points="276,482.42,272,488.42,276,494.42,280,488.42,276,482.42" style="stroke:#181818;stroke-width:1;"/><polygon fill="none" points="276,558.66,280,552.66,276,546.66,272,552.66,276,558.66" style="stroke:#181818;stroke-width:1;"/><polygon fill="#000000" points="281,525.5664,283.9389,516.5213,278.0611,516.5213,281,525.5664" style="stroke:#000000;stroke-width:1;"/><text fill="#000000" font-family="sans-serif" font-size="13" lengthAdjust="spacing" textLength="32.9443" x="290" y="525.0669">tiene</text><text fill="#000000" font-family="sans-serif" font-size="13" lengthAdjust="spacing" textLength="8.271" x="267.1059" y="501.8838">1</text><text fill="#000000" font-family="sans-serif" font-size="13" lengthAdjust="spacing" textLength="8.271" x="267.0576" y="547.9821">2</text></g><!--reverse link Semestre to Asignatura--><g class="link" data-entity-1="Semestre" data-entity-2="Asignatura" data-source-line="37" data-uid="lnk17" id="link_Semestre_Asignatura"><path codeLine="37" d="M249.8625,616.8055 C232.4225,638.6955 214.01,661.8 196.59,683.66" fill="none" id="Semestre-backto-Asignatura" style="stroke:#181818;stroke-width:1;"/><polygon fill="#181818" points="257.34,607.42,250.4728,609.6202,249.8625,616.8055,256.7297,614.6052,257.34,607.42" style="stroke:#181818;stroke-width:1;"/><polygon fill="#000000" points="233.8841,649.4768,241.8193,644.2344,237.2224,640.5714,233.8841,649.4768" style="stroke:#000000;stroke-width:1;"/><text fill="#000000" font-family="sans-serif" font-size="13" lengthAdjust="spacing" textLength="46.541" x="246" y="650.0669">incluye</text><text fill="#000000" font-family="sans-serif" font-size="13" lengthAdjust="spacing" textLength="8.271" x="244.1308" y="626.8838">1</text><text fill="#000000" font-family="sans-serif" font-size="13" lengthAdjust="spacing" textLength="6.5" x="194.4514" y="672.9821">*</text></g><!--link Horario to Grado--><g class="link" data-entity-1="Horario" data-entity-2="Grado" data-source-line="39" data-uid="lnk18" id="link_Horario_Grado"><path codeLine="39" d="M251,201.42 C251,223.31 251,249.8 251,271.66" fill="none" id="Horario-to-Grado" style="stroke:#181818;stroke-width:1;"/><polygon fill="#181818" points="251,277.66,255,268.66,251,272.66,247,268.66,251,277.66" style="stroke:#181818;stroke-width:1;"/><polygon fill="#000000" points="256,244.5664,258.9389,235.5213,253.0611,235.5213,256,244.5664" style="stroke:#000000;stroke-width:1;"/><text fill="#000000" font-family="sans-serif" font-size="13" lengthAdjust="spacing" textLength="29.5293" x="265" y="244.0669">para</text><text fill="#000000" font-family="sans-serif" font-size="13" lengthAdjust="spacing" textLength="8.271" x="242.1065" y="220.8838">1</text><text fill="#000000" font-family="sans-serif" font-size="13" lengthAdjust="spacing" textLength="8.271" x="242.0585" y="266.9821">1</text></g><!--link Horario to Profesor--><g class="link" data-entity-1="Horario" data-entity-2="Profesor" data-source-line="40" data-uid="lnk19" id="link_Horario_Profesor"><path codeLine="40" d="M209.07,197.55 C194.64,206.05 179.49,217.26 169,231 C140.2,268.71 129.6148,318.577 125.2848,349.777" fill="none" id="Horario-to-Profesor" style="stroke:#181818;stroke-width:1;stroke-dasharray:7.0,7.0;"/><polygon fill="#181818" points="124.46,355.72,129.6592,347.3553,125.1473,350.7675,121.7352,346.2556,124.46,355.72" style="stroke:#181818;stroke-width:1;"/></g><!--link Horario to Curso--><g class="link" data-entity-1="Horario" data-entity-2="Curso" data-source-line="41" data-uid="lnk20" id="link_Horario_Curso"><path codeLine="41" d="M280.49,201.45 C289.12,209.84 297.66,219.98 303,231 C327.44,281.39 315.44,300.1 319,356 C320.36,377.29 326.13,383.89 319,404 C315.16,414.83 311.9609,420.5097 304.6209,429.0497" fill="none" id="Horario-to-Curso" style="stroke:#181818;stroke-width:1;stroke-dasharray:7.0,7.0;"/><polygon fill="#181818" points="300.71,433.6,309.6098,429.3819,303.9691,429.8081,303.5428,424.1673,300.71,433.6" style="stroke:#181818;stroke-width:1;"/></g><!--link Horario to Semestre--><g class="link" data-entity-1="Horario" data-entity-2="Semestre" data-source-line="42" data-uid="lnk21" id="link_Horario_Semestre"><path codeLine="42" d="M287.07,201.31 C297.41,209.57 307.82,219.67 315,231 C326.53,249.21 324.04,256.65 327,278 C342.33,388.51 374.65,426.32 331,529 C326.18,540.35 322.0137,546.3856 313.0437,554.6456" fill="none" id="Horario-to-Semestre" style="stroke:#181818;stroke-width:1;stroke-dasharray:7.0,7.0;"/><polygon fill="#181818" points="308.63,558.71,317.9602,555.5559,312.3081,555.323,312.541,549.671,308.63,558.71" style="stroke:#181818;stroke-width:1;"/></g><!--link Horario to Asignatura--><g class="link" data-entity-1="Horario" data-entity-2="Asignatura" data-source-line="43" data-uid="lnk22" id="link_Horario_Asignatura"><path codeLine="43" d="M226.69,201.47 C205.46,224.58 178,262.01 178,301 C178,301 178,301 178,584 C178,618.81 178,653.16 178,677.88" fill="none" id="Horario-to-Asignatura" style="stroke:#181818;stroke-width:1;"/><polygon fill="#181818" points="178,683.88,182,674.88,178,678.88,174,674.88,178,683.88" style="stroke:#181818;stroke-width:1;"/><text fill="#000000" font-family="sans-serif" font-size="13" lengthAdjust="spacing" textLength="8.271" x="212.1748" y="220.9453">1</text><text fill="#000000" font-family="sans-serif" font-size="13" lengthAdjust="spacing" textLength="6.5" x="171.2957" y="672.8613">*</text></g><!--link Usuario to Horario--><g class="link" data-entity-1="Usuario" data-entity-2="Horario" data-source-line="45" data-uid="lnk23" id="link_Usuario_Horario"><path codeLine="45" d="M251,55.46 C251,82.23 251,119.78 251,146.55" fill="none" id="Usuario-to-Horario" style="stroke:#181818;stroke-width:1;stroke-dasharray:7.0,7.0;"/><polygon fill="#181818" points="251,152.55,255,143.55,251,147.55,247,143.55,251,152.55" style="stroke:#181818;stroke-width:1;"/><polygon fill="#000000" points="256,98.5664,258.9389,89.5213,253.0611,89.5213,256,98.5664" style="stroke:#000000;stroke-width:1;"/><text fill="#000000" font-family="sans-serif" font-size="13" lengthAdjust="spacing" textLength="55.8911" x="265" y="98.0669">gestiona</text></g><!--SRC=[bPB1IiGm48RlUOgX5w7G1JqMB2pBiWhYYiK7cEt64cYJ9PcA8hwxqwJfRhG7pIN9_t-J-HDYPKEesqv2hHp97k5J2E3HTEWSF5dpAfsnh8xYL_3muCXYGnEqTghLI8F55FlfxW-TQf6CLGZodQG-_gFsH4ZgxQ-5Euj7isHi1kiMZLhsacybbxmxOz6gSncRmNXnmsImT0MtFE1v-x3UtEyVjxNV2p6_OPPda1T5xXSN-KjG_GajIQY42CcpQuzwCaGkeJ6QbDGZ5QG9uiLDTivVGgHcwVAqjAzkkk73zurt7DcYgFmSifJ0uP2PYAnMrVmn4j77IfGOuVVnIHGXuakEHP4jeULYPJGt_mO0]--></g></svg>