<svg xmlns="http://www.w3.org/2000/svg" xmlns:xlink="http://www.w3.org/1999/xlink" contentStyleType="text/css" data-diagram-type="STATE" height="927px" preserveAspectRatio="none" style="width:1222px;height:927px;background:#FFFFFF;" version="1.1" viewBox="0 0 1222 927" width="1222px" zoomAndPan="magnify"><?plantuml 1.2026.4beta2?><defs/><g><g class="start_entity" data-qualified-name=".start." data-source-line="11" id="ent0002"><ellipse cx="16" cy="490" fill="#222222" rx="10" ry="10" style="stroke:#222222;stroke-width:1;"/></g><rect fill="#F5F5F5" height="40" rx="12.5" ry="12.5" style="stroke:#444444;stroke-width:0.5;" width="119.0723" x="87" y="470"/><text fill="#000000" font-family="sans-serif" font-size="12" lengthAdjust="spacing" textLength="109.0723" x="92" y="494.1543">SESION_CERRADA</text><rect fill="#F5F5F5" height="40" rx="12.5" ry="12.5" style="stroke:#444444;stroke-width:0.5;" width="140.3418" x="360.07" y="470"/><text fill="#000000" font-family="sans-serif" font-size="12" lengthAdjust="spacing" textLength="130.3418" x="365.07" y="494.1543">SISTEMA_DISPONIBLE</text><rect fill="#F5F5F5" height="40" rx="12.5" ry="12.5" style="stroke:#444444;stroke-width:0.5;" width="154.8027" x="725.11" y="88"/><text fill="#000000" font-family="sans-serif" font-size="12" lengthAdjust="spacing" textLength="144.8027" x="730.11" y="112.1543">ASIGNATURAS_ABIERTO</text><rect fill="#F5F5F5" height="40" rx="12.5" ry="12.5" style="stroke:#444444;stroke-width:0.5;" width="145.9492" x="1062.62" y="68"/><text fill="#000000" font-family="sans-serif" font-size="12" lengthAdjust="spacing" textLength="135.9492" x="1067.62" y="92.1543">ASIGNATURA_ABIERTA</text><rect fill="#F5F5F5" height="40" rx="12.5" ry="12.5" style="stroke:#444444;stroke-width:0.5;" width="148.7793" x="728.13" y="208"/><text fill="#000000" font-family="sans-serif" font-size="12" lengthAdjust="spacing" textLength="138.7793" x="733.13" y="232.1543">PROFESORES_ABIERTO</text><rect fill="#F5F5F5" height="40" rx="12.5" ry="12.5" style="stroke:#444444;stroke-width:0.5;" width="133.5801" x="1068.8" y="191"/><text fill="#000000" font-family="sans-serif" font-size="12" lengthAdjust="spacing" textLength="123.5801" x="1073.8" y="215.1543">PROFESOR_ABIERTO</text><rect fill="#F5F5F5" height="40" rx="12.5" ry="12.5" style="stroke:#444444;stroke-width:0.5;" width="120.8242" x="742.1" y="328"/><text fill="#000000" font-family="sans-serif" font-size="12" lengthAdjust="spacing" textLength="110.8242" x="747.1" y="352.1543">GRADOS_ABIERTO</text><rect fill="#F5F5F5" height="40" rx="12.5" ry="12.5" style="stroke:#444444;stroke-width:0.5;" width="113.207" x="1078.99" y="317"/><text fill="#000000" font-family="sans-serif" font-size="12" lengthAdjust="spacing" textLength="103.207" x="1083.99" y="341.1543">GRADO_ABIERTO</text><rect fill="#F5F5F5" height="40" rx="12.5" ry="12.5" style="stroke:#444444;stroke-width:0.5;" width="108.1797" x="748.43" y="448"/><text fill="#000000" font-family="sans-serif" font-size="12" lengthAdjust="spacing" textLength="98.1797" x="753.43" y="472.1543">AULAS_ABIERTO</text><rect fill="#F5F5F5" height="40" rx="12.5" ry="12.5" style="stroke:#444444;stroke-width:0.5;" width="99.3262" x="1085.93" y="449"/><text fill="#000000" font-family="sans-serif" font-size="12" lengthAdjust="spacing" textLength="89.3262" x="1090.93" y="473.1543">AULA_ABIERTA</text><rect fill="#F5F5F5" height="40" rx="12.5" ry="12.5" style="stroke:#444444;stroke-width:0.5;" width="166.4453" x="719.29" y="613"/><text fill="#000000" font-family="sans-serif" font-size="12" lengthAdjust="spacing" textLength="156.4453" x="724.29" y="637.1543">ASIGNACIONES_ABIERTAS</text><rect fill="#F5F5F5" height="40" rx="12.5" ry="12.5" style="stroke:#444444;stroke-width:0.5;" width="168.2031" x="718.41" y="733"/><text fill="#000000" font-family="sans-serif" font-size="12" lengthAdjust="spacing" textLength="158.2031" x="723.41" y="757.1543">MATRIZ_HORARIO_ACTIVA</text><rect fill="#F5F5F5" height="40" rx="12.5" ry="12.5" style="stroke:#444444;stroke-width:0.5;" width="125.0137" x="740.01" y="821"/><text fill="#000000" font-family="sans-serif" font-size="12" lengthAdjust="spacing" textLength="115.0137" x="745.01" y="845.1543">HORARIO_ABIERTO</text><!--link *start* to SESION_CERRADA--><g class="link" data-entity-1="ent0002" data-entity-2="ent0003" data-link-type="dependency" data-source-line="11" id="lnk4"><path d="M26.24,490 C39.08,490 57.37,490 80.69,490" fill="none" id="*start*-to-SESION_CERRADA" style="stroke:#181818;stroke-width:1;"/><polygon fill="#181818" points="86.69,490,77.69,486,81.69,490,77.69,494,86.69,490" style="stroke:#181818;stroke-width:1;"/></g><!--link SESION_CERRADA to SISTEMA_DISPONIBLE--><g class="link" data-entity-1="ent0003" data-entity-2="ent0005" data-link-type="dependency" data-source-line="13" id="lnk6"><path d="M206.25,490 C250.91,490 306.52,490 353.66,490" fill="none" id="SESION_CERRADA-to-SISTEMA_DISPONIBLE" style="stroke:#181818;stroke-width:1;"/><polygon fill="#181818" points="359.66,490,350.66,486,354.66,490,350.66,494,359.66,490" style="stroke:#181818;stroke-width:1;"/><text fill="#000000" font-family="sans-serif" font-size="13" lengthAdjust="spacing" textLength="92.5044" x="237.07" y="486.0669">iniciarSesion()</text></g><!--link SISTEMA_DISPONIBLE to SESION_CERRADA--><g class="link" data-entity-1="ent0005" data-entity-2="ent0003" data-link-type="dependency" data-source-line="14" id="lnk7"><path d="M359.76,509.81 C349.87,511.96 339.76,513.8 330.07,515 C288.61,520.14 277.46,520.73 236.07,515 C226.26,513.64 221.8274,512.939 211.9274,510.439" fill="none" id="SISTEMA_DISPONIBLE-to-SESION_CERRADA" style="stroke:#181818;stroke-width:1;"/><polygon fill="#181818" points="206.11,508.97,213.8567,515.0518,210.9578,510.1942,215.8154,507.2953,206.11,508.97" style="stroke:#181818;stroke-width:1;"/><text fill="#000000" font-family="sans-serif" font-size="13" lengthAdjust="spacing" textLength="92.1172" x="237.07" y="511.0669">cerrarSesion()</text></g><!--link SISTEMA_DISPONIBLE to ASIGNATURAS_ABIERTO--><g class="link" data-entity-1="ent0005" data-entity-2="ent0008" data-link-type="dependency" data-source-line="20" id="lnk9"><path d="M434.31,469.52 C444.72,402.8 480.85,193.5 530.41,150 C583.12,103.74 658.895,96.555 718.855,99.005" fill="none" id="SISTEMA_DISPONIBLE-to-ASIGNATURAS_ABIERTO" style="stroke:#181818;stroke-width:1;"/><polygon fill="#181818" points="724.85,99.25,716.0208,94.8859,719.8542,99.0459,715.6942,102.8792,724.85,99.25" style="stroke:#181818;stroke-width:1;"/><text fill="#000000" font-family="sans-serif" font-size="13" lengthAdjust="spacing" textLength="117.8188" x="550.91" y="96.0669">abrirAsignaturas()</text></g><!--link ASIGNATURAS_ABIERTO to SISTEMA_DISPONIBLE--><g class="link" data-entity-1="ent0008" data-entity-2="ent0005" data-link-type="dependency" data-source-line="21" id="lnk10"><path d="M748.08,128.3 C737.87,133.13 727.52,138.74 718.41,145 C702.87,155.68 704.95,165.93 688.41,175 C625.35,209.59 584.29,162.35 530.41,210 C451.03,280.21 435.5562,412.1412 432.3962,463.8212" fill="none" id="ASIGNATURAS_ABIERTO-to-SISTEMA_DISPONIBLE" style="stroke:#181818;stroke-width:1;"/><polygon fill="#181818" points="432.03,469.81,436.5718,461.0709,432.3352,464.8193,428.5867,460.5827,432.03,469.81" style="stroke:#181818;stroke-width:1;"/><text fill="#000000" font-family="sans-serif" font-size="13" lengthAdjust="spacing" textLength="125.9248" x="546.91" y="171.0669">completarGestion()</text></g><!--link ASIGNATURAS_ABIERTO to ASIGNATURA_ABIERTA--><g class="link" data-entity-1="ent0008" data-entity-2="ent0011" data-link-type="dependency" data-source-line="23" id="lnk12"><path d="M880.3,103.36 C935.13,100.05 1002.4009,95.9818 1056.2009,92.7318" fill="none" id="ASIGNATURAS_ABIERTO-to-ASIGNATURA_ABIERTA" style="stroke:#181818;stroke-width:1;"/><polygon fill="#181818" points="1062.19,92.37,1052.9652,88.92,1057.1991,92.6715,1053.4476,96.9054,1062.19,92.37" style="stroke:#181818;stroke-width:1;"/><text fill="#000000" font-family="sans-serif" font-size="13" lengthAdjust="spacing" textLength="114.3276" x="917.62" y="91.0669">crearAsignatura()</text></g><!--link ASIGNATURA_ABIERTA to ASIGNATURAS_ABIERTO--><g class="link" data-entity-1="ent0011" data-entity-2="ent0008" data-link-type="dependency" data-source-line="24" id="lnk13"><path d="M1090.14,108.49 C1072.61,115.52 1052.05,122.5 1032.62,126 C982.36,135.06 931.0124,131.4583 886.3024,124.6883" fill="none" id="ASIGNATURA_ABIERTA-to-ASIGNATURAS_ABIERTO" style="stroke:#181818;stroke-width:1;"/><polygon fill="#181818" points="880.37,123.79,888.6697,129.0923,885.3136,124.5386,889.8674,121.1825,880.37,123.79" style="stroke:#181818;stroke-width:1;"/><text fill="#000000" font-family="sans-serif" font-size="13" lengthAdjust="spacing" textLength="61.5088" x="944.12" y="122.0669">guardar()</text></g><!--link ASIGNATURAS_ABIERTO to ASIGNATURAS_ABIERTO--><g class="link" data-entity-1="ent0008" data-entity-2="ent0008" data-link-type="dependency" data-source-line="25" id="lnk14"><path d="M775.17,87.69 C763.48,70.73 772.6,53 802.52,53 C832.43,53 844.9551,65.7898 833.2651,82.7498" fill="none" id="ASIGNATURAS_ABIERTO-to-ASIGNATURAS_ABIERTO" style="stroke:#181818;stroke-width:1;"/><polygon fill="#181818" points="829.86,87.69,838.2611,82.5498,832.6976,83.5732,831.6742,78.0097,829.86,87.69" style="stroke:#181818;stroke-width:1;"/><text fill="#000000" font-family="sans-serif" font-size="13" lengthAdjust="spacing" textLength="133.5737" x="736.02" y="44.0669">eliminarAsignatura()</text></g><!--link ASIGNATURA_ABIERTA to ASIGNATURA_ABIERTA--><g class="link" data-entity-1="ent0011" data-entity-2="ent0011" data-link-type="dependency" data-source-line="26" id="lnk15"><path d="M1110.01,67.69 C1099.08,50.73 1107.61,33 1135.59,33 C1163.57,33 1175.3503,45.6866 1164.4203,62.6466" fill="none" id="ASIGNATURA_ABIERTA-to-ASIGNATURA_ABIERTA" style="stroke:#181818;stroke-width:1;"/><polygon fill="#181818" points="1161.17,67.69,1169.4076,62.2917,1163.8785,63.4872,1162.6831,57.9581,1161.17,67.69" style="stroke:#181818;stroke-width:1;"/><text fill="#000000" font-family="sans-serif" font-size="13" lengthAdjust="spacing" textLength="118.7964" x="1076.59" y="24.0669">editarAsignatura()</text></g><!--link SISTEMA_DISPONIBLE to PROFESORES_ABIERTO--><g class="link" data-entity-1="ent0005" data-entity-2="ent0016" data-link-type="dependency" data-source-line="32" id="lnk17"><path d="M433.94,469.65 C440.94,425.42 464.07,320.49 530.41,270 C560.64,247 652.454,236.7595 721.894,232.0095" fill="none" id="SISTEMA_DISPONIBLE-to-PROFESORES_ABIERTO" style="stroke:#181818;stroke-width:1;"/><polygon fill="#181818" points="727.88,231.6,718.628,228.2235,722.8917,231.9412,719.174,236.2049,727.88,231.6" style="stroke:#181818;stroke-width:1;"/><text fill="#000000" font-family="sans-serif" font-size="13" lengthAdjust="spacing" textLength="109.2178" x="554.91" y="231.0669">abrirProfesores()</text></g><!--link PROFESORES_ABIERTO to SISTEMA_DISPONIBLE--><g class="link" data-entity-1="ent0016" data-entity-2="ent0005" data-link-type="dependency" data-source-line="33" id="lnk18"><path d="M748.08,248.3 C737.87,253.13 727.52,258.74 718.41,265 C702.87,275.68 704.92,285.88 688.41,295 C625.37,329.83 589.09,289.24 530.41,331 C480.72,366.37 452.6806,429.5849 440.1306,463.9049" fill="none" id="PROFESORES_ABIERTO-to-SISTEMA_DISPONIBLE" style="stroke:#181818;stroke-width:1;"/><polygon fill="#181818" points="438.07,469.54,444.9176,462.4611,439.7872,464.8441,437.4042,459.7137,438.07,469.54" style="stroke:#181818;stroke-width:1;"/><text fill="#000000" font-family="sans-serif" font-size="13" lengthAdjust="spacing" textLength="125.9248" x="546.91" y="291.0669">completarGestion()</text></g><!--link PROFESORES_ABIERTO to PROFESOR_ABIERTO--><g class="link" data-entity-1="ent0016" data-entity-2="ent0019" data-link-type="dependency" data-source-line="35" id="lnk20"><path d="M877.4,224.21 C934.67,221.27 1007.3179,217.5383 1062.5179,214.6983" fill="none" id="PROFESORES_ABIERTO-to-PROFESOR_ABIERTO" style="stroke:#181818;stroke-width:1;"/><polygon fill="#181818" points="1068.51,214.39,1059.3164,210.8577,1063.5166,214.6469,1059.7274,218.8471,1068.51,214.39" style="stroke:#181818;stroke-width:1;"/><text fill="#000000" font-family="sans-serif" font-size="13" lengthAdjust="spacing" textLength="97.7285" x="926.12" y="212.0669">crearProfesor()</text></g><!--link PROFESOR_ABIERTO to PROFESORES_ABIERTO--><g class="link" data-entity-1="ent0019" data-entity-2="ent0016" data-link-type="dependency" data-source-line="36" id="lnk21"><path d="M1087.24,231.47 C1070.34,237.77 1050.94,243.86 1032.62,247 C981.08,255.83 928.2256,251.5916 883.1056,244.4216" fill="none" id="PROFESOR_ABIERTO-to-PROFESORES_ABIERTO" style="stroke:#181818;stroke-width:1;"/><polygon fill="#181818" points="877.18,243.48,885.4407,248.8429,882.118,244.2647,886.6962,240.942,877.18,243.48" style="stroke:#181818;stroke-width:1;"/><text fill="#000000" font-family="sans-serif" font-size="13" lengthAdjust="spacing" textLength="61.5088" x="944.12" y="243.0669">guardar()</text></g><!--link PROFESORES_ABIERTO to PROFESORES_ABIERTO--><g class="link" data-entity-1="ent0016" data-entity-2="ent0016" data-link-type="dependency" data-source-line="37" id="lnk22"><path d="M775.17,207.69 C763.48,190.73 772.6,173 802.52,173 C832.43,173 844.9551,185.7898 833.2651,202.7498" fill="none" id="PROFESORES_ABIERTO-to-PROFESORES_ABIERTO" style="stroke:#181818;stroke-width:1;"/><polygon fill="#181818" points="829.86,207.69,838.2611,202.5498,832.6976,203.5732,831.6742,198.0097,829.86,207.69" style="stroke:#181818;stroke-width:1;"/><text fill="#000000" font-family="sans-serif" font-size="13" lengthAdjust="spacing" textLength="116.9746" x="744.52" y="164.0669">eliminarProfesor()</text></g><!--link PROFESOR_ABIERTO to PROFESOR_ABIERTO--><g class="link" data-entity-1="ent0019" data-entity-2="ent0019" data-link-type="dependency" data-source-line="38" id="lnk23"><path d="M1110.01,190.69 C1099.08,173.73 1107.61,156 1135.59,156 C1163.57,156 1175.3503,168.6866 1164.4203,185.6466" fill="none" id="PROFESOR_ABIERTO-to-PROFESOR_ABIERTO" style="stroke:#181818;stroke-width:1;"/><polygon fill="#181818" points="1161.17,190.69,1169.4076,185.2917,1163.8785,186.4872,1162.6831,180.9581,1161.17,190.69" style="stroke:#181818;stroke-width:1;"/><text fill="#000000" font-family="sans-serif" font-size="13" lengthAdjust="spacing" textLength="102.1973" x="1084.59" y="147.0669">editarProfesor()</text></g><!--link SISTEMA_DISPONIBLE to GRADOS_ABIERTO--><g class="link" data-entity-1="ent0005" data-entity-2="ent0024" data-link-type="dependency" data-source-line="44" id="lnk25"><path d="M444.23,469.66 C460.96,445.34 492.46,405.48 530.41,386 C566.25,367.61 667.4968,357.3589 735.8668,352.2289" fill="none" id="SISTEMA_DISPONIBLE-to-GRADOS_ABIERTO" style="stroke:#181818;stroke-width:1;"/><polygon fill="#181818" points="741.85,351.78,732.5759,348.4646,736.864,352.1541,733.1745,356.4422,741.85,351.78" style="stroke:#181818;stroke-width:1;"/><text fill="#000000" font-family="sans-serif" font-size="13" lengthAdjust="spacing" textLength="87.0264" x="565.91" y="352.0669">abrirGrados()</text></g><!--link GRADOS_ABIERTO to SISTEMA_DISPONIBLE--><g class="link" data-entity-1="ent0024" data-entity-2="ent0005" data-link-type="dependency" data-source-line="45" id="lnk26"><path d="M749.31,368.41 C738.78,373.3 728.01,378.9 718.41,385 C703.53,394.47 704.08,402.88 688.41,411 C624.19,444.27 599.24,427.75 530.41,450 C512.93,455.65 499.6783,460.636 483.2083,467.416" fill="none" id="GRADOS_ABIERTO-to-SISTEMA_DISPONIBLE" style="stroke:#181818;stroke-width:1;"/><polygon fill="#181818" points="477.66,469.7,487.5051,469.9729,482.2836,467.7967,484.4598,462.5752,477.66,469.7" style="stroke:#181818;stroke-width:1;"/><text fill="#000000" font-family="sans-serif" font-size="13" lengthAdjust="spacing" textLength="125.9248" x="546.91" y="407.0669">completarGestion()</text></g><!--link GRADOS_ABIERTO to GRADO_ABIERTO--><g class="link" data-entity-1="ent0024" data-entity-2="ent0027" data-link-type="dependency" data-source-line="47" id="lnk28"><path d="M863.09,346.02 C924.24,343.99 1012.6933,341.0494 1072.5333,339.0594" fill="none" id="GRADOS_ABIERTO-to-GRADO_ABIERTO" style="stroke:#181818;stroke-width:1;"/><polygon fill="#181818" points="1078.53,338.86,1069.402,335.1613,1073.5328,339.0262,1069.6679,343.1569,1078.53,338.86" style="stroke:#181818;stroke-width:1;"/><text fill="#000000" font-family="sans-serif" font-size="13" lengthAdjust="spacing" textLength="83.5352" x="933.12" y="336.0669">crearGrado()</text></g><!--link GRADO_ABIERTO to GRADOS_ABIERTO--><g class="link" data-entity-1="ent0027" data-entity-2="ent0024" data-link-type="dependency" data-source-line="48" id="lnk29"><path d="M1080.01,357.48 C1064.88,362.23 1048.3,366.6 1032.62,369 C975.37,377.77 915.3717,370.9516 868.9917,362.4516" fill="none" id="GRADO_ABIERTO-to-GRADOS_ABIERTO" style="stroke:#181818;stroke-width:1;"/><polygon fill="#181818" points="863.09,361.37,871.2215,366.9269,868.0081,362.2713,872.6636,359.0579,863.09,361.37" style="stroke:#181818;stroke-width:1;"/><text fill="#000000" font-family="sans-serif" font-size="13" lengthAdjust="spacing" textLength="61.5088" x="944.12" y="365.0669">guardar()</text></g><!--link GRADOS_ABIERTO to GRADOS_ABIERTO--><g class="link" data-entity-1="ent0024" data-entity-2="ent0024" data-link-type="dependency" data-source-line="49" id="lnk30"><path d="M775.17,327.69 C763.48,310.73 772.6,293 802.52,293 C832.43,293 844.9551,305.7898 833.2651,322.7498" fill="none" id="GRADOS_ABIERTO-to-GRADOS_ABIERTO" style="stroke:#181818;stroke-width:1;"/><polygon fill="#181818" points="829.86,327.69,838.2611,322.5498,832.6976,323.5732,831.6742,318.0097,829.86,327.69" style="stroke:#181818;stroke-width:1;"/><text fill="#000000" font-family="sans-serif" font-size="13" lengthAdjust="spacing" textLength="102.7813" x="751.52" y="284.0669">eliminarGrado()</text></g><!--link GRADO_ABIERTO to GRADO_ABIERTO--><g class="link" data-entity-1="ent0027" data-entity-2="ent0027" data-link-type="dependency" data-source-line="50" id="lnk31"><path d="M1110.01,316.69 C1099.08,299.73 1107.61,282 1135.59,282 C1163.57,282 1175.3503,294.6866 1164.4203,311.6466" fill="none" id="GRADO_ABIERTO-to-GRADO_ABIERTO" style="stroke:#181818;stroke-width:1;"/><polygon fill="#181818" points="1161.17,316.69,1169.4076,311.2917,1163.8785,312.4872,1162.6831,306.9581,1161.17,316.69" style="stroke:#181818;stroke-width:1;"/><text fill="#000000" font-family="sans-serif" font-size="13" lengthAdjust="spacing" textLength="88.0039" x="1091.59" y="273.0669">editarGrado()</text></g><!--link SISTEMA_DISPONIBLE to AULAS_ABIERTO--><g class="link" data-entity-1="ent0005" data-entity-2="ent0032" data-link-type="dependency" data-source-line="56" id="lnk33"><path d="M500.89,485.86 C572.64,481.6 676.9306,475.4066 742.0906,471.5266" fill="none" id="SISTEMA_DISPONIBLE-to-AULAS_ABIERTO" style="stroke:#181818;stroke-width:1;"/><polygon fill="#181818" points="748.08,471.17,738.8582,467.712,743.0888,471.4672,739.3337,475.6979,748.08,471.17" style="stroke:#181818;stroke-width:1;"/><text fill="#000000" font-family="sans-serif" font-size="13" lengthAdjust="spacing" textLength="76.1465" x="571.41" y="471.0669">abrirAulas()</text></g><!--link AULAS_ABIERTO to SISTEMA_DISPONIBLE--><g class="link" data-entity-1="ent0032" data-entity-2="ent0005" data-link-type="dependency" data-source-line="57" id="lnk34"><path d="M756.29,488.48 C735.98,496.6 711.45,504.95 688.41,509 C619.25,521.15 600.32,515.64 530.41,509 C520.82,508.09 516.6797,507.6686 506.8197,506.0386" fill="none" id="AULAS_ABIERTO-to-SISTEMA_DISPONIBLE" style="stroke:#181818;stroke-width:1;"/><polygon fill="#181818" points="500.9,505.06,509.1271,510.4743,505.833,505.8755,510.4319,502.5815,500.9,505.06" style="stroke:#181818;stroke-width:1;"/><text fill="#000000" font-family="sans-serif" font-size="13" lengthAdjust="spacing" textLength="125.9248" x="546.91" y="505.0669">completarGestion()</text></g><!--link AULAS_ABIERTO to AULA_ABIERTA--><g class="link" data-entity-1="ent0032" data-entity-2="ent0035" data-link-type="dependency" data-source-line="59" id="lnk36"><path d="M857.08,468.16 C920.22,468.35 1018.27,468.6523 1079.43,468.8323" fill="none" id="AULAS_ABIERTO-to-AULA_ABIERTA" style="stroke:#181818;stroke-width:1;"/><polygon fill="#181818" points="1085.43,468.85,1076.4418,464.8235,1080.43,468.8353,1076.4183,472.8235,1085.43,468.85" style="stroke:#181818;stroke-width:1;"/><text fill="#000000" font-family="sans-serif" font-size="13" lengthAdjust="spacing" textLength="72.6553" x="938.62" y="464.0669">crearAula()</text></g><!--link AULA_ABIERTA to AULAS_ABIERTO--><g class="link" data-entity-1="ent0035" data-entity-2="ent0032" data-link-type="dependency" data-source-line="60" id="lnk37"><path d="M1085.47,482.98 C1068.83,487.07 1050.05,490.98 1032.62,493 C981.41,498.94 967.87,498.6 916.62,493 C896.93,490.85 881.4844,488.0074 862.7544,483.6574" fill="none" id="AULA_ABIERTA-to-AULAS_ABIERTO" style="stroke:#181818;stroke-width:1;"/><polygon fill="#181818" points="856.91,482.3,864.7718,488.2323,861.7804,483.4311,866.5816,480.4397,856.91,482.3" style="stroke:#181818;stroke-width:1;"/><text fill="#000000" font-family="sans-serif" font-size="13" lengthAdjust="spacing" textLength="61.5088" x="944.12" y="489.0669">guardar()</text></g><!--link AULAS_ABIERTO to AULAS_ABIERTO--><g class="link" data-entity-1="ent0032" data-entity-2="ent0032" data-link-type="dependency" data-source-line="61" id="lnk38"><path d="M775.17,447.69 C763.48,430.73 772.6,413 802.52,413 C832.43,413 844.9551,425.7898 833.2651,442.7498" fill="none" id="AULAS_ABIERTO-to-AULAS_ABIERTO" style="stroke:#181818;stroke-width:1;"/><polygon fill="#181818" points="829.86,447.69,838.2611,442.5498,832.6976,443.5732,831.6742,438.0097,829.86,447.69" style="stroke:#181818;stroke-width:1;"/><text fill="#000000" font-family="sans-serif" font-size="13" lengthAdjust="spacing" textLength="91.9014" x="757.02" y="404.0669">eliminarAula()</text></g><!--link AULA_ABIERTA to AULA_ABIERTA--><g class="link" data-entity-1="ent0035" data-entity-2="ent0035" data-link-type="dependency" data-source-line="62" id="lnk39"><path d="M1110.01,448.69 C1099.08,431.73 1107.61,414 1135.59,414 C1163.57,414 1175.3503,426.6866 1164.4203,443.6466" fill="none" id="AULA_ABIERTA-to-AULA_ABIERTA" style="stroke:#181818;stroke-width:1;"/><polygon fill="#181818" points="1161.17,448.69,1169.4076,443.2917,1163.8785,444.4872,1162.6831,438.9581,1161.17,448.69" style="stroke:#181818;stroke-width:1;"/><text fill="#000000" font-family="sans-serif" font-size="13" lengthAdjust="spacing" textLength="77.124" x="1097.09" y="405.0669">editarAula()</text></g><!--link SISTEMA_DISPONIBLE to ASIGNACIONES_ABIERTAS--><g class="link" data-entity-1="ent0005" data-entity-2="ent0040" data-link-type="dependency" data-source-line="68" id="lnk41"><path d="M467.83,510.46 C486.28,520.35 509.2,532.01 530.41,541 C597.45,569.43 670.8057,593.6842 726.2057,610.7442" fill="none" id="SISTEMA_DISPONIBLE-to-ASIGNACIONES_ABIERTAS" style="stroke:#181818;stroke-width:1;"/><polygon fill="#181818" points="731.94,612.51,724.5158,606.0384,727.1614,611.0385,722.1614,613.6841,731.94,612.51" style="stroke:#181818;stroke-width:1;"/><text fill="#000000" font-family="sans-serif" font-size="13" lengthAdjust="spacing" textLength="156.8379" x="531.41" y="537.0669">gestionarAsignaciones()</text></g><!--link ASIGNACIONES_ABIERTAS to SISTEMA_DISPONIBLE--><g class="link" data-entity-1="ent0040" data-entity-2="ent0005" data-link-type="dependency" data-source-line="69" id="lnk42"><path d="M718.81,647.37 C662.52,653.06 588.07,652.27 530.41,622 C484.1,597.68 455.8887,546.4186 442.0887,515.8486" fill="none" id="ASIGNACIONES_ABIERTAS-to-SISTEMA_DISPONIBLE" style="stroke:#181818;stroke-width:1;"/><polygon fill="#181818" points="439.62,510.38,439.6772,520.2287,441.6772,514.9372,446.9687,516.9371,439.62,510.38" style="stroke:#181818;stroke-width:1;"/><text fill="#000000" font-family="sans-serif" font-size="13" lengthAdjust="spacing" textLength="125.9248" x="546.91" y="618.0669">completarGestion()</text></g><!--link ASIGNACIONES_ABIERTAS to ASIGNACIONES_ABIERTAS--><g class="link" data-entity-1="ent0040" data-entity-2="ent0040" data-link-type="dependency" data-source-line="71" id="lnk43"><path d="M788.84,612.69 C783,595.73 787.56,578 802.52,578 C817.47,578 823.9835,590.0569 818.1435,607.0169" fill="none" id="ASIGNACIONES_ABIERTAS-to-ASIGNACIONES_ABIERTAS" style="stroke:#181818;stroke-width:1;"/><polygon fill="#181818" points="816.19,612.69,822.9023,605.4827,817.8179,607.9624,815.3381,602.8781,816.19,612.69" style="stroke:#181818;stroke-width:1;"/><text fill="#000000" font-family="sans-serif" font-size="13" lengthAdjust="spacing" textLength="182.4634" x="711.52" y="569.0669">asignarProfesorAsignatura()</text></g><!--link ASIGNACIONES_ABIERTAS to ASIGNACIONES_ABIERTAS--><g class="link" data-entity-1="ent0040" data-entity-2="ent0040" data-link-type="dependency" data-source-line="72" id="lnk44"><path d="M782.23,612.66 C761.13,581.85 767.89,543 802.52,543 C837.14,543 847.2902,576.8996 826.1902,607.7096" fill="none" id="ASIGNACIONES_ABIERTAS-to-ASIGNACIONES_ABIERTAS-1" style="stroke:#181818;stroke-width:1;"/><polygon fill="#181818" points="822.8,612.66,831.1856,607.4946,825.6252,608.5347,824.5851,602.9743,822.8,612.66" style="stroke:#181818;stroke-width:1;"/><text fill="#000000" font-family="sans-serif" font-size="13" lengthAdjust="spacing" textLength="157.3901" x="724.02" y="534.0669">asignarAulaAsignatura()</text></g><!--link SISTEMA_DISPONIBLE to MATRIZ_HORARIO_ACTIVA--><g class="link" data-entity-1="ent0005" data-entity-2="ent0045" data-link-type="dependency" data-source-line="78" id="lnk46"><path d="M436.45,510.36 C447.27,548.53 475.84,630.92 530.41,675 C545.39,687.1 638.4441,712.285 712.4941,731.065" fill="none" id="SISTEMA_DISPONIBLE-to-MATRIZ_HORARIO_ACTIVA" style="stroke:#181818;stroke-width:1;"/><polygon fill="#181818" points="718.31,732.54,710.5695,726.4503,713.4634,731.3109,708.6029,734.2048,718.31,732.54" style="stroke:#181818;stroke-width:1;"/><text fill="#000000" font-family="sans-serif" font-size="13" lengthAdjust="spacing" textLength="109.2368" x="554.91" y="671.0669">generarHorario()</text></g><!--link MATRIZ_HORARIO_ACTIVA to SISTEMA_DISPONIBLE--><g class="link" data-entity-1="ent0045" data-entity-2="ent0005" data-link-type="dependency" data-source-line="80" id="lnk48"><path d="M722.21,773.46 C663.95,783.65 585.64,786.69 530.41,748 C450.04,691.69 435.1322,566.7002 432.2522,516.2802" fill="none" id="MATRIZ_HORARIO_ACTIVA-to-SISTEMA_DISPONIBLE" style="stroke:#181818;stroke-width:1;"/><polygon fill="#181818" points="431.91,510.29,428.4298,519.5035,432.1951,515.2819,436.4167,519.0472,431.91,510.29" style="stroke:#181818;stroke-width:1;"/><text fill="#000000" font-family="sans-serif" font-size="13" lengthAdjust="spacing" textLength="127.188" x="545.91" y="744.0669">completarProceso()</text></g><!--link MATRIZ_HORARIO_ACTIVA to MATRIZ_HORARIO_ACTIVA--><g class="link" data-entity-1="ent0045" data-entity-2="ent0045" data-link-type="dependency" data-source-line="79" id="lnk47"><path d="M775.17,732.69 C763.48,715.73 772.6,698 802.52,698 C832.43,698 844.9551,710.7898 833.2651,727.7498" fill="none" id="MATRIZ_HORARIO_ACTIVA-to-MATRIZ_HORARIO_ACTIVA" style="stroke:#181818;stroke-width:1;"/><polygon fill="#181818" points="829.86,732.69,838.2611,727.5498,832.6976,728.5732,831.6742,723.0097,829.86,732.69" style="stroke:#181818;stroke-width:1;"/><text fill="#000000" font-family="sans-serif" font-size="13" lengthAdjust="spacing" textLength="147.3799" x="729.02" y="689.0669">posicionarAsignatura()</text></g><!--link SISTEMA_DISPONIBLE to HORARIO_ABIERTO--><g class="link" data-entity-1="ent0005" data-entity-2="ent0049" data-link-type="dependency" data-source-line="82" id="lnk50"><path d="M430.77,510.16 C430.63,566.74 438.68,727.91 530.41,805 C561.17,830.85 663.7626,838.0845 733.8226,840.1345" fill="none" id="SISTEMA_DISPONIBLE-to-HORARIO_ABIERTO" style="stroke:#181818;stroke-width:1;"/><polygon fill="#181818" points="739.82,840.31,730.9408,836.0485,734.8221,840.1638,730.7069,844.0451,739.82,840.31" style="stroke:#181818;stroke-width:1;"/><text fill="#000000" font-family="sans-serif" font-size="13" lengthAdjust="spacing" textLength="118.4663" x="550.41" y="801.0669">consultarHorario()</text></g><!--link HORARIO_ABIERTO to SISTEMA_DISPONIBLE--><g class="link" data-entity-1="ent0049" data-entity-2="ent0005" data-link-type="dependency" data-source-line="83" id="lnk51"><path d="M755.94,861.49 C697.38,884.36 595.55,912.05 530.41,862 C472.91,817.82 442.3278,587.2104 434.1278,516.1504" fill="none" id="HORARIO_ABIERTO-to-SISTEMA_DISPONIBLE" style="stroke:#181818;stroke-width:1;"/><polygon fill="#181818" points="433.44,510.19,430.4981,519.5892,434.0132,515.157,438.4453,518.6721,433.44,510.19" style="stroke:#181818;stroke-width:1;"/><text fill="#000000" font-family="sans-serif" font-size="13" lengthAdjust="spacing" textLength="106.2471" x="556.41" y="858.0669">cerrarConsulta()</text></g><?plantuml-src fLRlgzem5FtUlo8ms7JmFcouBuCDebPVuMcbyUt3Ump9sbZ3gqsvZOnjx7zV-ajZc-Ypgs3rvfvxRdB8IHAsbKWA13pUIHHnOA7a8dMS7OyOOljC_a8HoqFWMHdFNtYQKQ1xbEze97xoD4PRckHC7v5KClJ7GUePq_0b1d58eub81A0tiq_5fneJ436euwFHg0pEH2e9_ytGXu_ENyTvVlyTtTrzHSGbdh_SJDmWm5FiEEV_gnIFhDq5tamzilANtlZ1HPyHJtd8AH2Mg-u7GyUGr2slS243q63EE_J5zgWnJBpv4gyV0qmkPjheDVm6ZpqtMFkg1_e3EE2SnocL1w2vwiEKQ9rxAFPPmYI5ESjbFGzRWLEy3fUB08ng3Ppn7zFi_SS72X652ssRSIpXUvxUogprpI8kM_0h0gu2V-OIFt3xwNU2j-LRWTYoN00hr3EatIIU1T-4DUvIkOPROpRYNBDeLzXSasIlfTIXfLWQy8fKSxL3_NuoLT2sH7DGHbR8qng-IHe3jWorDId96gvkkba9Mt6J0bS8EWlVv5zpkCU7ljvM83kkTaWgFpiRlCt9Ej0Yqd4lHLJpdFj6golDgunrZVvqeNRNZQhaLnqa4tKMkVzpabG5cXv8CRzguHfN3DLlTZfGslazZXHJ2LipjEpXkESDFj-ZMh70jrZ-lH_WmFC96Yn4nBSyLFi05HSOD0KQexVg9R9XBn4MU1ruJvkQOOCdQ-yRBaL8cRfLt0lrnOjDPqwyL28JEGyr8UkvsWjTbb5942e9YjMopELOykHZ8iqFYTJdqKwo4vVNgabTOJ3y1m00?></g></svg>