<svg xmlns="http://www.w3.org/2000/svg" xmlns:xlink="http://www.w3.org/1999/xlink" contentStyleType="text/css" data-diagram-type="STATE" height="558px" preserveAspectRatio="none" style="width:602px;height:558px;background:#FFFFFF;" version="1.1" viewBox="0 0 602 558" width="602px" zoomAndPan="magnify"><?plantuml 1.2026.4beta2?><defs/><g><path d="M32.71,7 L551.74,7 A12.5,12.5 0 0 1 564.24,19.5 L564.24,30.9688 L20.21,30.9688 L20.21,19.5 A12.5,12.5 0 0 1 32.71,7" fill="#F5F5F5"/><rect fill="none" height="410.9688" rx="12.5" ry="12.5" style="stroke:#444444;stroke-width:0.5;" width="544.03" x="20.21" y="7"/><line style="stroke:#444444;stroke-width:0.5;" x1="20.21" x2="564.24" y1="30.9688" y2="30.9688"/><text fill="#000000" font-family="sans-serif" font-size="12" lengthAdjust="spacing" textLength="144.7734" x="219.8383" y="23.1387">gestionarAsignaciones()</text><g class="start_entity" data-qualified-name="gestAsig..start.gestAsig" data-source-line="9" id="ent0002"><ellipse cx="94.24" cy="51.9688" fill="#222222" rx="10" ry="10" style="stroke:#222222;stroke-width:1;"/></g><g class="entity" data-qualified-name="gestAsig.PanelDesplegado" id="ent0003"><rect fill="#F5F5F5" height="50" rx="12.5" ry="12.5" style="stroke:#444444;stroke-width:0.5;" width="124.0508" x="32.21" y="192.9688"/><line style="stroke:#444444;stroke-width:0.5;" x1="32.21" x2="156.2608" y1="216.9375" y2="216.9375"/><text fill="#000000" font-family="sans-serif" font-size="12" lengthAdjust="spacing" textLength="104.0508" x="42.21" y="209.1074">PanelDesplegado</text></g><g class="entity" data-qualified-name="gestAsig.EstadoFinal" id="ent0006"><rect fill="#F5F5F5" height="50" rx="12.5" ry="12.5" style="stroke:#444444;stroke-width:0.5;" width="89.3809" x="49.54" y="295.9688"/><line style="stroke:#444444;stroke-width:0.5;" x1="49.54" x2="138.9209" y1="319.9375" y2="319.9375"/><text fill="#000000" font-family="sans-serif" font-size="12" lengthAdjust="spacing" textLength="69.3809" x="59.54" y="312.1074">EstadoFinal</text></g><g class="end_entity" data-qualified-name="gestAsig..end.gestAsig" data-source-line="21" id="ent0008"><ellipse cx="94.24" cy="393.9688" fill="none" rx="11" ry="11" style="stroke:#222222;stroke-width:1;"/><ellipse cx="94.24" cy="393.9688" fill="#222222" rx="6" ry="6" style="stroke:#222222;stroke-width:1;"/></g><!--link *start*gestAsig to PanelDesplegado--><g class="link" data-entity-1="ent0002" data-entity-2="ent0003" data-link-type="dependency" data-source-line="9" id="lnk4"><path d="M94.24,62.2588 C94.24,87.1288 94.24,149.8288 94.24,186.7588" fill="none" id="*start*gestAsig-to-PanelDesplegado" style="stroke:#181818;stroke-width:1;"/><polygon fill="#181818" points="94.24,192.7588,98.24,183.7588,94.24,187.7588,90.24,183.7588,94.24,192.7588" style="stroke:#181818;stroke-width:1;"/><path d="M99.24,84.9688 L99.24,169.9688 L540.24,169.9688 L540.24,94.9688 L530.24,84.9688 L99.24,84.9688" fill="#FEFFDD" style="stroke:#181818;stroke-width:0.5;"/><path d="M530.24,84.9688 L530.24,94.9688 L540.24,94.9688 L530.24,84.9688" fill="#FEFFDD" style="stroke:#181818;stroke-width:0.5;"/><text fill="#000000" font-family="sans-serif" font-size="13" font-weight="700" lengthAdjust="spacing" textLength="58.9063" x="105.24" y="102.0356">Sistema</text><text fill="#000000" font-family="sans-serif" font-size="13" lengthAdjust="spacing" textLength="303.0879" x="168.2786" y="102.0356">consolida el panel de asignaciones pendientes</text><text fill="#000000" font-family="sans-serif" font-size="13" lengthAdjust="spacing" textLength="420.3989" x="105.24" y="117.1685">&#8226; Presenta asignaturas que carecen de Profesor o Aula asignada</text><text fill="#000000" font-family="sans-serif" font-size="13" lengthAdjust="spacing" textLength="380.8086" x="105.24" y="132.3013">&#8226; Permite seleccionar una asignatura para cruzar recursos</text><text fill="#000000" font-family="sans-serif" font-size="13" lengthAdjust="spacing" textLength="418.4121" x="105.24" y="147.4341">&#8226; Permite solicitar asignar profesor a la asignatura seleccionada</text><text fill="#000000" font-family="sans-serif" font-size="13" lengthAdjust="spacing" textLength="391.9995" x="105.24" y="162.5669">&#8226; Permite solicitar asignar aula a la asignatura seleccionada</text></g><!--link PanelDesplegado to PanelDesplegado--><g class="link" data-entity-1="ent0003" data-entity-2="ent0003" data-link-type="dependency" data-source-line="19" id="lnk5"><path d="M156.64,208.9988 C167.07,210.2488 174.26,213.2388 174.26,217.9688 C174.26,222.6988 173.0274,224.9748 162.5974,226.2248" fill="none" id="PanelDesplegado-to-PanelDesplegado" style="stroke:#181818;stroke-width:1;"/><polygon fill="#181818" points="156.64,226.9388,166.052,229.8394,161.6045,226.3438,165.1001,221.8962,156.64,226.9388" style="stroke:#181818;stroke-width:1;"/><text fill="#000000" font-family="sans-serif" font-size="13" lengthAdjust="spacing" textLength="256.7183" x="187.1631" y="215.0356">Administrador asocia Profesor (v&#237;a DNI)</text><text fill="#000000" font-family="sans-serif" font-size="13" lengthAdjust="spacing" textLength="270.5244" x="180.26" y="230.1685">o asocia Aula (v&#237;a C&#243;digo) a la asignatura</text></g><!--link PanelDesplegado to EstadoFinal--><g class="link" data-entity-1="ent0003" data-entity-2="ent0006" data-link-type="dependency" data-source-line="20" id="lnk7"><path d="M94.24,243.4188 C94.24,259.2988 94.24,273.9088 94.24,289.7488" fill="none" id="PanelDesplegado-to-EstadoFinal" style="stroke:#181818;stroke-width:1;"/><polygon fill="#181818" points="94.24,295.7488,98.24,286.7488,94.24,290.7488,90.24,286.7488,94.24,295.7488" style="stroke:#181818;stroke-width:1;"/><text fill="#000000" font-family="sans-serif" font-size="13" lengthAdjust="spacing" textLength="264.1323" x="95.24" y="274.0356">Administrador solicita completar gesti&#243;n</text></g><!--link EstadoFinal to *end*gestAsig--><g class="link" data-entity-1="ent0006" data-entity-2="ent0008" data-link-type="dependency" data-source-line="21" id="lnk9"><path d="M94.24,346.3988 C94.24,358.7588 94.24,367.0988 94.24,376.5688" fill="none" id="EstadoFinal-to-*end*gestAsig" style="stroke:#181818;stroke-width:1;"/><polygon fill="#181818" points="94.24,382.5688,98.24,373.5688,94.24,377.5688,90.24,373.5688,94.24,382.5688" style="stroke:#181818;stroke-width:1;"/></g><g class="entity" data-qualified-name="ASIGNACIONES_ABIERTAS" id="ent0010"><rect fill="#F5F5F5" height="50" rx="12.5" ry="12.5" style="stroke:#444444;stroke-width:0.5;" width="176.4453" x="7" y="494.97"/><line style="stroke:#444444;stroke-width:0.5;" x1="7" x2="183.4453" y1="518.9388" y2="518.9388"/><text fill="#000000" font-family="sans-serif" font-size="12" lengthAdjust="spacing" textLength="156.4453" x="17" y="511.1087">ASIGNACIONES_ABIERTAS</text></g><g class="entity" data-qualified-name="SISTEMA_DISPONIBLE" id="ent0012"><rect fill="#F5F5F5" height="50" rx="12.5" ry="12.5" style="stroke:#444444;stroke-width:0.5;" width="150.3418" x="414.05" y="494.97"/><line style="stroke:#444444;stroke-width:0.5;" x1="414.05" x2="564.3918" y1="518.9388" y2="518.9388"/><text fill="#000000" font-family="sans-serif" font-size="12" lengthAdjust="spacing" textLength="130.3418" x="424.05" y="511.1087">SISTEMA_DISPONIBLE</text></g><!--link gestAsig to ASIGNACIONES_ABIERTAS--><g class="link" data-entity-1="ent0002" data-entity-2="ent0010" data-link-type="dependency" data-source-line="24" id="lnk11"><path d="M105.13,418.3 C100.27,428.03 95.92,437.93 92.22,447.97 C86.76,462.79 86.6142,474.6073 88.7342,488.6473" fill="none" id="gestAsig-to-ASIGNACIONES_ABIERTAS" style="stroke:#181818;stroke-width:1;"/><polygon fill="#181818" points="89.63,494.58,92.2414,485.0837,88.8835,489.636,84.3311,486.2781,89.63,494.58" style="stroke:#181818;stroke-width:1;"/><text fill="#000000" font-family="sans-serif" font-size="13" lengthAdjust="spacing" textLength="352.498" x="93.22" y="461.0369">asignarProfesorAsignatura() / asignarAulaAsignatura()</text></g><!--link gestAsig to SISTEMA_DISPONIBLE--><g class="link" data-entity-1="ent0002" data-entity-2="ent0012" data-link-type="dependency" data-source-line="25" id="lnk13"><path d="M431.81,418.36 C438.11,428.32 444.28,438.23 450.22,447.97 C459.52,463.22 466.3671,475.5156 473.7571,489.3756" fill="none" id="gestAsig-to-SISTEMA_DISPONIBLE" style="stroke:#181818;stroke-width:1;"/><polygon fill="#181818" points="476.58,494.67,475.8752,484.8464,474.2276,490.258,468.816,488.6103,476.58,494.67" style="stroke:#181818;stroke-width:1;"/><text fill="#000000" font-family="sans-serif" font-size="13" lengthAdjust="spacing" textLength="125.9248" x="460.22" y="461.0369">completarGestion()</text></g><?plantuml-src XPFFYjim4CRlUOfXUuaDIsb9BpqKdCHP3DjigFVMbcMGPbqHMN8bkuKjXJvBxptj8-HD-YGToN6Sx1zgWx7datxppMZijyeqwB06_mMb_QvC1RUeFKtygBJO4loO05zp5DlAsSx8XTNMmOlLct3tcdMIt3u-cyrYS6LDMwexWbUl9pydavvrLf5lbJNeCgygWuBVoK-JCq0FGGlXVSQFwMSuFty76pIab-GRJHKxZLfy6Cj4Q-1IcMqCX2jDI-LRgZ5DGLZZhLOIWJGq0GEIEDEO6HeoKf5foHy8Vt_zXeqZpr7SBsuxn_w-TWG27GaoWRDnzfOybsmXw_ImLE8fY5ojsAOdJKB4og4pnrm8lGRXkZkM6DuvR_tJ3Av5g9QNzRiTD8C517t27DCzv-SH2sCD_-DmksBVnrDuS3nF7HcyXKpMol31EFuCEQrGE7Pm-ctt1s6vBf9FnWvgR6glB7RtKbKsUUZlMGCvZvkqAsLGFqe-bCxZKVEUq8CubRjx4td7UmEBvp0Cy64wGomhYujrjYYkrdbvaysB_CDrLdAcVJE7mhA3qsa2BmSr57QidABBehpEtsStowBSNAsB-MNEt8FLY_x_cIR_0000?></g></svg>